<svg version="1.1" xmlns="http://www.w3.org/2000/svg" viewBox="0 0 118.87185553556913 113.95753179136364" width="118.87185553556913" height="113.95753179136364">
  
  <rect x="0" y="0" width="118.87185553556913" height="113.95753179136364" fill="#0000"></rect><g><g transform="translate(62.528267156417996 78.61072966238157) rotate(0 1.8861060768100515 0.37290526866269147)"><path d="M-0.06024360865354539 -0.17923331528902056 C0.5686995532424197 0.0062917551575567, 3.2211418931836615 0.7257784867577085, 3.832455762273637 0.925043852614442" stroke="#ce524a" stroke-width="1.4875" fill="none"></path></g></g><g><g transform="translate(10.200899352050442 44.9510881817979) rotate(0 49.10424883673329 -17.449469942557243)"><path d="M0 0 M0 0 C28.15600689422259 -9.311417829846336, 57.07899157027555 -19.798028374841316, 98.20849767346655 -34.8989398851145" stroke="#ce524a" stroke-width="1.575" fill="none"></path></g></g><g><g transform="translate(108.68959505427574 10) rotate(0 0.030723470590885427 46.9602346245282)"><path d="M0 0 M0 0 C0.21287867291410828 27.537898636062167, -0.08838027255097966 56.00130453447346, 0 93.92046924905644" stroke="#ce524a" stroke-width="1.575" fill="none"></path></g></g><g><g transform="translate(10.044528810060456 45.08255150346622) rotate(0 0.06843309612602866 29.437490143948708)"><path d="M0 0 M0 0 C0.5143536220199997 14.482851103077163, -0.2403965343825883 28.025046596189004, 0 58.874980287897436" stroke="#ce524a" stroke-width="1.575" fill="none"></path></g></g><g><g transform="translate(23.079269077982246 62.45295423894072) rotate(0 37.56453905701122 -8.25774794323118)"><path d="M0 0 M0 0 C16.975719865817037 -3.777146030929575, 32.78651034176295 -7.673784683268879, 75.12907811402245 -16.515495886462364" stroke="#ce524a" stroke-width="1.575" fill="none"></path></g></g><g><g transform="translate(98.1020656029284 45.89693267407415) rotate(0 0.23160677422004028 28.94445725146545)"><path d="M0 0 M0 0 C0.28957951038298024 18.507513192748917, 0.8792005774300995 35.83958297164419, 0 57.88891450293092" stroke="#ce524a" stroke-width="1.575" fill="none"></path></g></g><g><g transform="translate(72.23735758759727 70.27781746384994) rotate(0 12.971136276776207 -9.582571164910206)"><path d="M0 0 M0 0 C10.10249801756078 -7.2512091098800155, 18.790004272464657 -14.389964975634252, 25.942272553552407 -19.165142329820405" stroke="#ce524a" stroke-width="1.575" fill="none"></path></g></g><g><g transform="translate(72.3314709127045 70.36829648517221) rotate(0 0.2820690629565945 16.73799343991709)"><path d="M0 0 M0 0 C0.7980550918802407 12.584444730107235, 0.7063132438882974 25.08005998755345, 0 33.47598687983421" stroke="#ce524a" stroke-width="1.575" fill="none"></path></g></g><g><g transform="translate(23.226837935293815 62.39422348432299) rotate(0 0.0004526262268313985 20.58165743257001)"><path d="M0 0 M0 0 C0.47762901981362726 14.956304585306972, -0.47574307720175363 30.681929703293502, 0 41.16331486514001" stroke="#ce524a" stroke-width="1.575" fill="none"></path></g></g><g><g transform="translate(23.384434745411113 62.575687962788834) rotate(0 24.495247626920985 3.982566160355077)"><path d="M0 0 M0 0 C11.942555057705654 2.0867250568645814, 23.43901377864334 3.696446722801836, 48.990495253841964 7.965132320710111" stroke="#ce524a" stroke-width="1.575" fill="none"></path></g></g><g><g transform="translate(38.862800186184245 92.06622797775367) rotate(0 -0.008523539223659782 5.742031236211517)"><path d="M0 0 M0 0 C-0.09768811607919489 3.3945870386754593, 0.06217336931397642 6.673320756275844, 0 11.484062472423066" stroke="#ce524a" stroke-width="1.4875" fill="none"></path></g></g><g><g transform="translate(38.84665441053784 92.10624142174686) rotate(0 4.3550491510856375 0.005110951195320013)"><path d="M0 0 M0 0 C2.776194032126841 0.11958583446619356, 5.151035358829585 -0.09829020448561299, 8.710098302171286 0" stroke="#ce524a" stroke-width="1.4875" fill="none"></path></g></g><g><g transform="translate(47.590622093961315 92.29972572819099) rotate(0 0.03378387212686107 5.68756899549021)"><path d="M0 0 M0 0 C-0.027028686708535817 2.886291863779344, 0.16932507887132525 5.86799348364576, 0 11.37513799098038" stroke="#ce524a" stroke-width="1.4875" fill="none"></path></g></g><g><g transform="translate(39.7453516138911 43.013876543725985) rotate(0 -0.0029140976872668034 4.1003643918893715)"><path d="M0 0 M0 0 C-0.08585847165982573 3.0652020113881084, 0.07371639796282235 6.321602326885397, 0 8.200728783778732" stroke="#ce524a" stroke-width="1.4875" fill="none"></path></g></g><g><g transform="translate(39.76204669690412 51.24957190630596) rotate(0 10.758274082210562 -2.65605677691363)"><path d="M0 0 M0 0 C5.466955579976201 -2.000696805028406, 10.10058130671671 -2.7520274612054565, 21.516548164421135 -5.312113553827232" stroke="#ce524a" stroke-width="1.575" fill="none"></path></g></g><g><g transform="translate(61.13524473677171 46.0699029158518) rotate(0 -0.011694993685722466 -4.773141380819908)"><path d="M0 0 M0 0 C-0.03533353080344082 -2.0463408389170317, -0.027039768853761498 -4.329478994675272, 0 -9.546282761639814" stroke="#ce524a" stroke-width="1.4875" fill="none"></path></g></g><g><g transform="translate(39.81043281985063 43.17131850305441) rotate(0 10.692608314520442 -3.290887686996541)"><path d="M0 0 M0 0 C4.283407156266316 -1.556730560366769, 10.172760280930182 -3.776915524353261, 21.38521662904086 -6.581775373993089" stroke="#ce524a" stroke-width="1.575" fill="none"></path></g></g><g><g transform="translate(40.949137899778236 43.9297949898413) rotate(0 10.15412436434633 -3.113779608648997)"><path d="M0.34862945240736015 -0.2997028443217278 C3.7410943157971146 -1.3119391477247093, 16.61783159795415 -4.949220106194423, 19.959619276285313 -5.927856372976311" stroke="#ce524a" stroke-width="1.575" fill="none"></path></g></g><g><g transform="translate(41.11772667776074 43.86853840384521) rotate(0 -0.023966770888819156 3.6209831143367524)"><path d="M0.0026472089886665274 0.07142509192228319 C-0.004478043417135888 1.2650286653753233, -0.06550111279884975 6.012429689763045, -0.04738781946897508 7.1705411367512415" stroke="#ce524a" stroke-width="1.4875" fill="none"></path></g></g><g><g transform="translate(46.22597197727555 92.14010244737472) rotate(0 0.13634615534544992 5.721901354230738)"><path d="M0.17439756506681442 0.16886334019899368 C0.1652885543704033 2.077353571904131, 0.10795838278532029 9.376156554363313, 0.0982947456240654 11.27493936826246" stroke="#ce524a" stroke-width="1.4875" fill="none"></path></g></g><g><g transform="translate(47.13488735182614 42.11472507965664) rotate(0 0.1090512958064096 3.6285721457478815)"><path d="M0.08503146666288375 -0.11807271593809128 C0.13749710196256637 1.115401485737077, 0.13811494876941047 6.147988635022996, 0.127928952395916 7.375217007433841" stroke="#ce524a" stroke-width="1.4875" fill="none"></path></g></g><g><g transform="translate(50.375588465747114 41.169995382123375) rotate(0 0.11087597581433783 3.5300743858187786)"><path d="M0.17287449949979783 -0.13503464525938033 C0.19533476370573044 1.0942532150933986, 0.058324843585491164 5.986563260808509, 0.04663868445158004 7.195183416896965" stroke="#ce524a" stroke-width="1.4875" fill="none"></path></g></g><g><g transform="translate(53.511349057868074 40.204065579175165) rotate(0 0.15631425587892522 3.7092057069813507)"><path d="M0.12210858708620075 -0.0003927620053291392 C0.1330141167442004 1.2318039546898814, 0.22436785807212198 6.128416643029357, 0.17698524075746538 7.418804175968058" stroke="#ce524a" stroke-width="1.4875" fill="none"></path></g></g><g><g transform="translate(54.707035003244414 39.772113431356274) rotate(0 0.022021706402313157 3.775571407886332)"><path d="M-0.14558556574583054 -0.07284411698579789 C-0.09309865587949753 1.2287092615670583, 0.15670104899009069 6.3419719046287835, 0.18962897855043412 7.623986932758463" stroke="#ce524a" stroke-width="1.4875" fill="none"></path></g></g><g><g transform="translate(47.199812674657835 45.48501183792405) rotate(0 3.211158903830892 -0.9432751447479859)"><path d="M0.15157934170961382 -0.13759633523225787 C1.2234245787837903 -0.4010648494733995, 5.23396588105897 -1.474825344807717, 6.2707384659521574 -1.7489539542637025" stroke="#ce524a" stroke-width="1.4875" fill="none"></path></g></g><g><g transform="translate(54.76242027863964 43.88864390021308) rotate(0 3.1155676662346536 -0.7475018026487419)"><path d="M-0.13519868165254595 0.03243794995546341 C0.9483320505029835 -0.2563630420650465, 5.306928871972799 -1.2642853589680902, 6.366334014121818 -1.527441555252923" stroke="#ce524a" stroke-width="1.4875" fill="none"></path></g></g><g><g transform="translate(58.07122673120534 38.61485267704239) rotate(0 0.14720647523927255 4.162884154085077)"><path d="M0.10214143925905228 0.03741447371244431 C0.1467043582399686 1.4178124828748464, 0.22448892639080684 6.95031188405184, 0.17806057339906692 8.288353834457732" stroke="#ce524a" stroke-width="1.4875" fill="none"></path></g></g><g><g transform="translate(10.746685702425225 51.63342098143539) rotate(0 0.04201051157710367 5.61760893089442)"><path d="M-0.08821365243196488 0.014783456623554249 C-0.07817866084973019 1.89126365310242, 0.12861238338549935 9.411366053575785, 0.17223467558622363 11.220434405165328" stroke="#ce524a" stroke-width="1.4875" fill="none"></path></g></g><g><g transform="translate(10.738205660259723 65.18513407967203) rotate(0 -0.010079631030578184 5.478335115143409)"><path d="M0.18501103383302692 -0.020385845959186556 C0.1837338242332141 1.8048310919035495, -0.15736926223834358 9.127350145056358, -0.20517029589414598 10.977056076245917" stroke="#ce524a" stroke-width="1.4875" fill="none"></path></g></g><g><g transform="translate(10.640079458055425 78.5190918094338) rotate(0 0.1473170625567377 5.5581312678542645)"><path d="M0.12092984312772753 0.09245761853456497 C0.12103154613574349 1.9191650489001495, 0.17260837731758757 9.184655816072734, 0.17370428198575977 11.023804917173996" stroke="#ce524a" stroke-width="1.4875" fill="none"></path></g></g><g><g transform="translate(10.824217516513272 51.72185570687782) rotate(0 2.3989267466400293 -0.7233847172900312)"><path d="M-0.05095745867490769 0.040512303531169906 C0.7806055167229398 -0.21922619309174046, 4.025694326654784 -1.1937776775234454, 4.848810951954975 -1.4872817381111996" stroke="#ce524a" stroke-width="1.4875" fill="none"></path></g></g><g><g transform="translate(15.647544356957269 50.2054424524448) rotate(0 0.029382512748242107 5.836617915028512)"><path d="M0.0377486678957939 0.08594799786806107 C0.014489937961101509 2.051766692318586, 0.01970242995023725 9.669186321169473, 0.027805089175701125 11.58728783218901" stroke="#ce524a" stroke-width="1.4875" fill="none"></path></g></g><g><g transform="translate(10.788480195957447 62.76559633458078) rotate(0 2.5678290239555395 -0.6214164385975778)"><path d="M0.1522635356783867 0.02513073140382769 C0.9496928195947638 -0.1966492732028579, 4.172081052697813 -1.0732248841029484, 4.983394512232679 -1.2679636085989567" stroke="#ce524a" stroke-width="1.4875" fill="none"></path></g></g><g><g transform="translate(10.743657115937992 51.80241610745185) rotate(0 2.3801426980376164 1.5243149554894444)"><path d="M-0.16041214257478717 0.16946577244997024 C0.6290905167619399 0.671047275985813, 4.10554638077816 2.453576511132399, 4.920697538650043 2.879164138528919" stroke="#ce524a" stroke-width="1.4875" fill="none"></path></g></g><g><g transform="translate(10.903717911817239 65.14651960195113) rotate(0 2.4541750218008076 -0.8098944308205773)"><path d="M0.12643140143156054 -0.16582149714231492 C0.9295514714033825 -0.3850478134368562, 4.011345386163107 -1.1914841512315983, 4.781918642170085 -1.4539673644987958" stroke="#ce524a" stroke-width="1.4875" fill="none"></path></g></g><g><g transform="translate(10.823157511242641 65.22708000252578) rotate(0 2.397227230417741 1.2837774754927977)"><path d="M-0.16582149714231492 -0.11348855668306351 C0.6839927403092398 0.31228012768977476, 4.153718617498882 2.1969485903855954, 4.96027595797778 2.68104350766859" stroke="#ce524a" stroke-width="1.4875" fill="none"></path></g></g><g><g transform="translate(15.727044752261236 63.63010634751845) rotate(0 -0.1332068673596325 5.666417761677735)"><path d="M-0.11348855668306351 0.09788035184144972 C-0.1588165004849434 1.9980097966174954, -0.15853455048799514 9.35723692058557, -0.14553626137971878 11.23495517151396" stroke="#ce524a" stroke-width="1.4875" fill="none"></path></g></g><g><g transform="translate(10.867980591261187 76.19026022965215) rotate(0 2.4314331047517896 -0.7648323232115217)"><path d="M0.09788035184144972 -0.14553626137971878 C0.9196815776421855 -0.35730956610644016, 3.9655958257090203 -1.1696168601018266, 4.7649858576621 -1.3841283850433919" stroke="#ce524a" stroke-width="1.4875" fill="none"></path></g></g><g><g transform="translate(10.805894568262033 78.48502021144634) rotate(0 2.5395782486532426 -0.870731037799942)"><path d="M0.0793697540163994 -0.1026038743853569 C0.8918729823541067 -0.3420593776916169, 4.2216330632922165 -1.4190214519772446, 4.99978674329008 -1.638858201214494" stroke="#ce524a" stroke-width="1.4875" fill="none"></path></g></g><g><g transform="translate(10.725334167687322 78.56558061202225) rotate(0 2.3363906234383762 1.3919219743178246)"><path d="M-0.1026038743853569 0.10437954443693163 C0.7269811760544791 0.5377286528006553, 3.926181316753235 2.253237630633195, 4.775385121262081 2.6794644041987414" stroke="#ce524a" stroke-width="1.4875" fill="none"></path></g></g><g><g transform="translate(15.62922140870603 76.96860695701378) rotate(0 -0.02136791020632245 5.733520546788213)"><path d="M0.10437954443693163 -0.08701048487424852 C0.06663202462593718 1.8557654239317454, -0.10224551024039585 9.658832045783935, -0.14711536484956741 11.554051578450606" stroke="#ce524a" stroke-width="1.4875" fill="none"></path></g></g><g><g transform="translate(10.770157247705981 89.52876083914873) rotate(0 2.4985358898622394 -0.8302922555388363)"><path d="M-0.08701048487424852 -0.14711536484956741 C0.7774372049564352 -0.4167568132937367, 4.267190950907384 -1.3459950765274045, 5.084082264598745 -1.5134691462280843" stroke="#ce524a" stroke-width="1.4875" fill="none"></path></g></g><g><g transform="translate(39.35151691335068 65.09539745932898) rotate(0 0.0647468244433469 3.9660174947314317)"><path d="M0.1784091350436211 -0.04464230936765672 C0.17064741438627246 1.2933581031737331, -0.05056919111808141 6.626666856178445, -0.04891548615694046 7.976677298830512" stroke="#ce524a" stroke-width="1.4875" fill="none"></path></g></g><g><g transform="translate(39.3994821518512 73.0745871347068) rotate(0 4.343326976520046 0.5236983549754655)"><path d="M0.1338272779583931 -0.0874656704068184 C1.5525312494775383 0.07434844895737085, 7.151337282826866 0.9086705957917727, 8.552826675081688 1.1348623803577849" stroke="#ce524a" stroke-width="1.4875" fill="none"></path></g></g><g><g transform="translate(48.06688024924563 74.31426329881731) rotate(0 -0.12400324934722562 -3.9845858317102056)"><path d="M-0.046265672862529764 -0.20229474717378615 C-0.0958120475014051 -1.4819238045044965, -0.2105339083870252 -6.548519404325995, -0.20174082583189012 -7.766876916246549" stroke="#ce524a" stroke-width="1.4875" fill="none"></path></g></g><g><g transform="translate(39.0716755218794 78.27364798629219) rotate(0 4.565629586593218 0.5050137200670974)"><path d="M0.14696004408597949 -0.13971192568540575 C1.6626308507177257 0.06154142162262152, 7.5328880270585525 0.9940196081925805, 8.984299129100455 1.1497393658196182" stroke="#ce524a" stroke-width="1.4875" fill="none"></path></g></g><g><g transform="translate(39.117785751156134 78.23098277414499) rotate(0 -0.017710084140304616 4.243174579381332)"><path d="M0.13804772549867633 -0.20224245339632035 C0.09896995844443641 1.2424127766686621, -0.13452580787738166 7.211804810642175, -0.17346789377927782 8.68859161215898" stroke="#ce524a" stroke-width="1.4875" fill="none"></path></g></g><g><g transform="translate(48.04117512142989 79.3847985113274) rotate(0 -0.007288026034842687 4.32947362558599)"><path d="M0.11595708829164507 0.08460892599821093 C0.07702320144573849 1.5235497715624051, -0.13913076800107957 7.189661741491097, -0.13053314036130906 8.57433832517378" stroke="#ce524a" stroke-width="1.4875" fill="none"></path></g></g><g><g transform="translate(39.10400568263623 86.83504555661318) rotate(0 4.2936649184840405 0.4134790158224746)"><path d="M-0.1700614727139473 -0.10934937494993209 C1.3223039121434943 0.04754270271304255, 7.248890447122781 0.7944378509046139, 8.757391309682045 0.9363074065949324" stroke="#ce524a" stroke-width="1.4875" fill="none"></path></g></g><g><g transform="translate(62.35919631573802 74.13618241333756) rotate(0 1.747358595821538 0.49325047265841704)"><path d="M0.005696400821208947 -0.005035959422588343 C0.5558838114252633 0.17761849919741016, 2.9170104025160004 0.8425924680920769, 3.4890207908218778 0.9915369047394191" stroke="#ce524a" stroke-width="1.4875" fill="none"></path></g></g><g><g transform="translate(62.36847136185793 74.05747702198539) rotate(0 0.1829900877652051 2.277595315357246)"><path d="M0.16797665196657185 0.14496707838773726 C0.19643662498394654 0.8547142043975422, 0.2175778825879097 3.672585089240188, 0.16984085446596145 4.410223552326816" stroke="#ce524a" stroke-width="1.4875" fill="none"></path></g></g><g><g transform="translate(66.14262012827021 74.92416383146167) rotate(0 -0.08427105122805756 2.2832549839220633)"><path d="M0.009911889255046847 0.056806230366230004 C0.006791363259156547 0.776285487062477, -0.17706399550040566 3.733154554837659, -0.1784539917111397 4.509703737477916" stroke="#ce524a" stroke-width="1.4875" fill="none"></path></g></g><g><g transform="translate(62.13811294370532 86.88916676155281) rotate(0 1.9213967643710816 0.5776845273907156)"><path d="M0.03871565800905228 0.17152775496244432 C0.6464565900873092 0.33355062814339653, 3.2353282106275096 0.8468411520612567, 3.80407787073311 0.9838412998190318" stroke="#ce524a" stroke-width="1.4875" fill="none"></path></g></g><g><g transform="translate(62.14738798982307 86.8104613702011) rotate(0 0.12840469490004125 2.266996479054569)"><path d="M0.17152775496244432 0.16825979214906694 C0.18364821610848112 0.8894293768075535, 0.09732909188667938 3.6605424834824745, 0.08442682760953907 4.365733165959972" stroke="#ce524a" stroke-width="1.4875" fill="none"></path></g></g><g><g transform="translate(62.30718378438576 91.36371401059546) rotate(0 1.8097367053958635 0.5389777345592961)"><path d="M0.16825979214906694 0.08442682760953907 C0.7370094522546674 0.22142697536731423, 2.8984428607180446 0.8407823389661638, 3.4512136186426554 0.9935286415090953" stroke="#ce524a" stroke-width="1.4875" fill="none"></path></g></g><g><g transform="translate(65.92153675623695 87.6771481796776) rotate(0 0.08716049873686416 2.1073997135363243)"><path d="M0.08442682760953907 -0.1846044599413872 C0.07152456333239876 0.5205862225361099, 0.09127027879158656 3.6435755702592085, 0.09411416929960251 4.399403887014049" stroke="#ce524a" stroke-width="1.4875" fill="none"></path></g></g><g><g transform="translate(109.02833364236585 103.95887725028126) rotate(0 -49.55024133513169 -0.31219902994109816)"><path d="M-0.15647810679674148 -0.2666931855082512 C-16.63193449524309 -0.3272110821604729, -82.51307411496171 -0.3905593315958977, -98.94400456346666 -0.3394303166270256" stroke="#ce524a" stroke-width="1.575" fill="none"></path></g></g></svg>