<svg version="1.1" xmlns="http://www.w3.org/2000/svg" viewBox="0 0 127.63671874999864 54.457959467817886" width="255.27343749999727" height="108.91591893563577">
  <!-- svg-source:excalidraw -->
  
  <g transform="translate(71.45594832920597 10.355236695542885) rotate(0 0 1.4209467821780777)" stroke="none" fill="#ce524a"><path d="M 0.69,0 Q 0.69,0 0.69,1.59 0.69,3.19 0.67,3.30 0.65,3.41 0.60,3.51 0.55,3.61 0.47,3.69 0.38,3.77 0.28,3.81 0.18,3.86 0.07,3.87 -0.03,3.88 -0.14,3.86 -0.25,3.84 -0.35,3.78 -0.44,3.72 -0.52,3.63 -0.59,3.55 -0.63,3.45 -0.67,3.34 -0.68,3.23 -0.68,3.12 -0.65,3.01 -0.62,2.90 -0.56,2.81 -0.50,2.72 -0.41,2.65 -0.32,2.58 -0.21,2.54 -0.11,2.51 0.00,2.51 0.11,2.51 0.21,2.54 0.32,2.58 0.41,2.65 0.50,2.72 0.56,2.81 0.62,2.90 0.65,3.01 0.68,3.12 0.68,3.23 0.67,3.34 0.63,3.45 0.59,3.55 0.52,3.63 0.44,3.72 0.35,3.78 0.25,3.84 0.14,3.86 0.03,3.88 -0.07,3.87 -0.18,3.86 -0.28,3.81 -0.38,3.77 -0.47,3.69 -0.55,3.61 -0.60,3.51 -0.65,3.41 -0.67,3.30 -0.69,3.19 -0.69,3.19 -0.69,3.19 -0.69,1.59 -0.69,0 -0.68,-0.08 -0.67,-0.16 -0.64,-0.24 -0.61,-0.32 -0.56,-0.39 -0.51,-0.45 -0.45,-0.51 -0.39,-0.57 -0.31,-0.60 -0.24,-0.64 -0.16,-0.66 -0.08,-0.68 0.00,-0.68 0.08,-0.68 0.16,-0.66 0.24,-0.64 0.31,-0.60 0.39,-0.57 0.45,-0.51 0.51,-0.45 0.56,-0.39 0.61,-0.32 0.64,-0.24 0.67,-0.16 0.68,-0.08 0.69,0.00 0.69,0.00 L 0.69,0 Z"></path></g><g transform="translate(10 38.35523669554368) rotate(0 12.610902691830375 -23.026686262376757)" stroke="none" fill="#ce524a"><path d="M -0.49,-18.54 Q -0.49,-18.54 -0.17,-18.86 0.14,-19.17 0.55,-19.67 0.96,-20.18 1.49,-20.76 2.02,-21.33 2.78,-21.86 3.54,-22.38 4.12,-22.76 4.71,-23.13 5.43,-23.53 6.14,-23.92 6.84,-24.42 7.54,-24.91 8.26,-25.30 8.98,-25.70 9.74,-26.08 10.51,-26.47 11.33,-26.79 12.16,-27.11 12.90,-27.32 13.64,-27.54 14.40,-27.74 15.15,-27.95 15.85,-28.12 16.55,-28.30 17.27,-28.46 17.98,-28.62 18.71,-28.65 19.45,-28.68 20.16,-28.68 20.87,-28.69 21.58,-28.69 22.29,-28.69 23.93,-28.69 25.57,-28.69 25.68,-28.67 25.79,-28.65 25.89,-28.60 25.99,-28.55 26.07,-28.47 26.15,-28.38 26.19,-28.28 26.24,-28.18 26.25,-28.07 26.26,-27.96 26.24,-27.85 26.22,-27.74 26.16,-27.64 26.10,-27.55 26.01,-27.47 25.93,-27.40 25.83,-27.36 25.72,-27.32 25.61,-27.31 25.50,-27.31 25.39,-27.34 25.28,-27.37 25.19,-27.43 25.10,-27.49 25.03,-27.58 24.96,-27.67 24.92,-27.78 24.89,-27.88 24.89,-28.00 24.89,-28.11 24.92,-28.21 24.96,-28.32 25.03,-28.41 25.10,-28.50 25.19,-28.56 25.28,-28.62 25.39,-28.65 25.50,-28.68 25.61,-28.68 25.72,-28.67 25.83,-28.63 25.93,-28.59 26.01,-28.52 26.10,-28.44 26.16,-28.35 26.22,-28.25 26.24,-28.14 26.26,-28.03 26.25,-27.92 26.24,-27.81 26.19,-27.71 26.15,-27.61 26.07,-27.52 25.99,-27.44 25.89,-27.39 25.79,-27.34 25.68,-27.32 25.57,-27.30 25.57,-27.30 25.57,-27.30 23.93,-27.30 22.29,-27.30 21.58,-27.30 20.87,-27.30 20.17,-27.30 19.46,-27.30 18.70,-27.27 17.94,-27.25 17.15,-27.07 16.36,-26.89 15.64,-26.72 14.93,-26.56 14.27,-26.37 13.60,-26.18 12.99,-25.96 12.37,-25.74 11.75,-25.46 11.13,-25.18 10.51,-24.99 9.88,-24.80 9.22,-24.38 8.56,-23.96 7.80,-23.49 7.04,-23.02 6.39,-22.61 5.74,-22.19 5.07,-21.70 4.41,-21.21 3.74,-20.82 3.08,-20.44 2.59,-19.92 2.10,-19.41 1.61,-18.80 1.12,-18.20 0.80,-17.88 0.49,-17.56 0.42,-17.51 0.35,-17.46 0.28,-17.42 0.20,-17.39 0.12,-17.37 0.04,-17.36 -0.04,-17.36 -0.12,-17.37 -0.20,-17.39 -0.28,-17.42 -0.35,-17.46 -0.42,-17.50 -0.48,-17.56 -0.54,-17.62 -0.58,-17.69 -0.63,-17.76 -0.65,-17.84 -0.68,-17.92 -0.68,-18.01 -0.69,-18.09 -0.67,-18.17 -0.66,-18.25 -0.62,-18.33 -0.59,-18.41 -0.54,-18.47 -0.48,-18.54 -0.49,-18.54 L -0.49,-18.54 Z"></path></g><g transform="translate(34.866568688119514 10.35523669554425) rotate(0 8.880917388612943 0)" stroke="none" fill="#ce524a"><path d="M 0,-0.69 Q 0,-0.69 0.47,-0.69 0.95,-0.69 1.79,-0.69 2.63,-0.69 3.40,-0.69 4.16,-0.69 4.88,-0.69 5.59,-0.69 6.31,-0.69 7.02,-0.69 7.73,-0.69 8.44,-0.69 9.15,-0.69 9.86,-0.69 10.57,-0.69 11.28,-0.69 11.99,-0.69 12.70,-0.69 13.41,-0.69 14.12,-0.69 16.12,-0.69 18.11,-0.69 18.22,-0.67 18.33,-0.65 18.43,-0.60 18.53,-0.55 18.61,-0.47 18.69,-0.38 18.73,-0.28 18.78,-0.18 18.79,-0.07 18.80,0.03 18.78,0.14 18.76,0.25 18.70,0.35 18.64,0.44 18.55,0.52 18.47,0.59 18.37,0.63 18.26,0.67 18.15,0.68 18.04,0.68 17.93,0.65 17.82,0.62 17.73,0.56 17.64,0.50 17.57,0.41 17.50,0.32 17.46,0.21 17.43,0.11 17.43,-0.00 17.43,-0.11 17.46,-0.21 17.50,-0.32 17.57,-0.41 17.64,-0.50 17.73,-0.56 17.82,-0.62 17.93,-0.65 18.04,-0.68 18.15,-0.68 18.26,-0.67 18.37,-0.63 18.47,-0.59 18.55,-0.52 18.64,-0.44 18.70,-0.35 18.76,-0.25 18.78,-0.14 18.80,-0.03 18.79,0.07 18.78,0.18 18.73,0.28 18.69,0.38 18.61,0.47 18.53,0.55 18.43,0.60 18.33,0.65 18.22,0.67 18.11,0.69 18.11,0.69 18.11,0.69 16.12,0.69 14.12,0.69 13.41,0.69 12.70,0.69 11.99,0.69 11.28,0.69 10.57,0.69 9.86,0.69 9.15,0.69 8.44,0.69 7.73,0.69 7.02,0.69 6.31,0.69 5.59,0.69 4.88,0.69 4.16,0.69 3.40,0.69 2.63,0.69 1.79,0.69 0.95,0.69 0.47,0.69 0,0.69 -0.08,0.68 -0.16,0.67 -0.24,0.64 -0.32,0.61 -0.39,0.56 -0.45,0.51 -0.51,0.45 -0.57,0.39 -0.60,0.31 -0.64,0.24 -0.66,0.16 -0.68,0.08 -0.68,-0.00 -0.68,-0.08 -0.66,-0.16 -0.64,-0.24 -0.60,-0.31 -0.57,-0.39 -0.51,-0.45 -0.45,-0.51 -0.39,-0.56 -0.32,-0.61 -0.24,-0.64 -0.16,-0.67 -0.08,-0.68 0.00,-0.69 0.00,-0.69 L 0,-0.69 Z"></path></g><g transform="translate(56.536007116334076 10.35523669554425) rotate(0 7.63758895420716 0)" stroke="none" fill="#ce524a"><path d="M 0,-0.69 Q 0,-0.69 0.47,-0.69 0.95,-0.69 1.79,-0.69 2.63,-0.69 3.40,-0.69 4.16,-0.69 4.88,-0.69 5.59,-0.69 6.31,-0.69 7.02,-0.69 7.73,-0.69 8.44,-0.69 9.27,-0.69 10.11,-0.69 10.76,-0.69 11.42,-0.69 13.17,-0.69 14.91,-0.69 15.03,-0.67 15.14,-0.65 15.24,-0.60 15.33,-0.55 15.41,-0.47 15.49,-0.38 15.54,-0.28 15.58,-0.18 15.59,-0.07 15.61,0.03 15.58,0.14 15.56,0.25 15.50,0.35 15.44,0.44 15.36,0.52 15.27,0.59 15.17,0.63 15.06,0.67 14.95,0.68 14.84,0.68 14.73,0.65 14.62,0.62 14.53,0.56 14.44,0.50 14.37,0.41 14.30,0.32 14.27,0.21 14.23,0.11 14.23,-0.00 14.23,-0.11 14.27,-0.21 14.30,-0.32 14.37,-0.41 14.44,-0.50 14.53,-0.56 14.62,-0.62 14.73,-0.65 14.84,-0.68 14.95,-0.68 15.06,-0.67 15.17,-0.63 15.27,-0.59 15.36,-0.52 15.44,-0.44 15.50,-0.35 15.56,-0.25 15.58,-0.14 15.61,-0.03 15.59,0.07 15.58,0.18 15.54,0.28 15.49,0.38 15.41,0.47 15.33,0.55 15.24,0.60 15.14,0.65 15.03,0.67 14.91,0.69 14.91,0.69 14.91,0.69 13.17,0.69 11.42,0.69 10.76,0.69 10.11,0.69 9.27,0.69 8.44,0.69 7.73,0.69 7.02,0.69 6.31,0.69 5.59,0.69 4.88,0.69 4.16,0.69 3.40,0.69 2.63,0.69 1.79,0.69 0.95,0.69 0.47,0.69 0,0.69 -0.08,0.68 -0.16,0.67 -0.24,0.64 -0.32,0.61 -0.39,0.56 -0.45,0.51 -0.51,0.45 -0.57,0.39 -0.60,0.31 -0.64,0.24 -0.66,0.16 -0.68,0.08 -0.68,-0.00 -0.68,-0.08 -0.66,-0.16 -0.64,-0.24 -0.60,-0.31 -0.57,-0.39 -0.51,-0.45 -0.45,-0.51 -0.39,-0.56 -0.32,-0.61 -0.24,-0.64 -0.16,-0.67 -0.08,-0.68 0.00,-0.69 0.00,-0.69 L 0,-0.69 Z"></path></g><g transform="translate(56.53600711633135 10.355236695543681) rotate(0 0 1.7761834777226113)" stroke="none" fill="#ce524a"><path d="M 0.69,0 Q 0.69,0 0.69,0.39 0.69,0.79 0.69,2.35 0.69,3.90 0.67,4.01 0.65,4.12 0.60,4.22 0.55,4.32 0.47,4.40 0.38,4.48 0.28,4.52 0.18,4.57 0.07,4.58 -0.03,4.59 -0.14,4.57 -0.25,4.55 -0.35,4.49 -0.44,4.43 -0.52,4.35 -0.59,4.26 -0.63,4.16 -0.67,4.05 -0.68,3.94 -0.68,3.83 -0.65,3.72 -0.62,3.61 -0.56,3.52 -0.50,3.43 -0.41,3.36 -0.32,3.29 -0.21,3.25 -0.11,3.22 0.00,3.22 0.11,3.22 0.21,3.25 0.32,3.29 0.41,3.36 0.50,3.43 0.56,3.52 0.62,3.61 0.65,3.72 0.68,3.83 0.68,3.94 0.67,4.05 0.63,4.16 0.59,4.26 0.52,4.35 0.44,4.43 0.35,4.49 0.25,4.55 0.14,4.57 0.03,4.59 -0.07,4.58 -0.18,4.57 -0.28,4.52 -0.38,4.48 -0.47,4.40 -0.55,4.32 -0.60,4.22 -0.65,4.12 -0.67,4.01 -0.69,3.90 -0.69,3.90 -0.69,3.90 -0.69,2.35 -0.69,0.79 -0.69,0.39 -0.69,0 -0.68,-0.08 -0.67,-0.16 -0.64,-0.24 -0.61,-0.32 -0.56,-0.39 -0.51,-0.45 -0.45,-0.51 -0.39,-0.57 -0.31,-0.60 -0.24,-0.64 -0.16,-0.66 -0.08,-0.68 0.00,-0.68 0.08,-0.68 0.16,-0.66 0.24,-0.64 0.31,-0.60 0.39,-0.57 0.45,-0.51 0.51,-0.45 0.56,-0.39 0.61,-0.32 0.64,-0.24 0.67,-0.16 0.68,-0.08 0.69,0.00 0.69,0.00 L 0.69,0 Z"></path></g><g transform="translate(56.53600711634772 14.907603650989358) rotate(0 7.815207301979399 -0.8223816522277616)" stroke="none" fill="#ce524a"><path d="M -0.11,-1.32 Q -0.11,-1.32 0.36,-1.40 0.83,-1.48 1.71,-1.57 2.59,-1.65 3.37,-1.67 4.16,-1.68 4.88,-1.69 5.59,-1.69 6.31,-1.69 7.02,-1.69 7.73,-1.69 8.44,-1.69 9.15,-1.69 9.86,-1.69 10.57,-1.69 11.28,-1.69 13.27,-1.69 15.27,-1.69 15.38,-1.67 15.49,-1.65 15.59,-1.60 15.69,-1.55 15.77,-1.47 15.84,-1.38 15.89,-1.28 15.94,-1.18 15.95,-1.07 15.96,-0.96 15.94,-0.85 15.91,-0.74 15.86,-0.64 15.80,-0.55 15.71,-0.47 15.63,-0.40 15.52,-0.36 15.42,-0.32 15.31,-0.31 15.20,-0.31 15.09,-0.34 14.98,-0.37 14.89,-0.43 14.79,-0.49 14.73,-0.58 14.66,-0.67 14.62,-0.78 14.59,-0.88 14.59,-1.00 14.59,-1.11 14.62,-1.21 14.66,-1.32 14.73,-1.41 14.79,-1.50 14.89,-1.56 14.98,-1.62 15.09,-1.65 15.20,-1.68 15.31,-1.68 15.42,-1.67 15.52,-1.63 15.63,-1.59 15.71,-1.52 15.80,-1.44 15.86,-1.35 15.91,-1.25 15.94,-1.14 15.96,-1.03 15.95,-0.92 15.94,-0.81 15.89,-0.71 15.84,-0.61 15.77,-0.52 15.69,-0.44 15.59,-0.39 15.49,-0.34 15.38,-0.32 15.27,-0.30 15.27,-0.30 15.27,-0.30 13.27,-0.30 11.28,-0.30 10.57,-0.30 9.86,-0.30 9.15,-0.30 8.44,-0.30 7.73,-0.30 7.02,-0.30 6.31,-0.30 5.59,-0.30 4.88,-0.30 4.17,-0.30 3.42,-0.28 2.67,-0.27 1.87,-0.19 1.06,-0.12 0.59,-0.04 0.11,0.03 0.03,0.04 -0.05,0.04 -0.13,0.02 -0.21,0.01 -0.29,-0.02 -0.36,-0.05 -0.43,-0.11 -0.49,-0.16 -0.54,-0.22 -0.59,-0.29 -0.63,-0.37 -0.66,-0.44 -0.67,-0.53 -0.69,-0.61 -0.68,-0.69 -0.67,-0.78 -0.65,-0.86 -0.62,-0.93 -0.58,-1.01 -0.53,-1.08 -0.47,-1.13 -0.41,-1.19 -0.34,-1.23 -0.27,-1.28 -0.19,-1.30 -0.11,-1.32 -0.11,-1.32 L -0.11,-1.32 Z"></path></g><g transform="translate(56.53600711633044 19.23615408415833) rotate(0 7.282352258662627 0)" stroke="none" fill="#ce524a"><path d="M 0,-0.69 Q 0,-0.69 0.55,-0.69 1.11,-0.69 1.87,-0.69 2.63,-0.69 3.36,-0.69 4.09,-0.69 4.84,-0.69 5.59,-0.69 6.30,-0.69 7.02,-0.69 7.73,-0.69 8.44,-0.69 9.12,-0.69 9.80,-0.69 10.54,-0.69 11.27,-0.69 13.09,-0.69 14.91,-0.69 15.03,-0.67 15.14,-0.65 15.24,-0.60 15.33,-0.55 15.41,-0.47 15.49,-0.38 15.54,-0.28 15.58,-0.18 15.59,-0.07 15.61,0.03 15.58,0.14 15.56,0.25 15.50,0.35 15.44,0.44 15.36,0.52 15.27,0.59 15.17,0.63 15.06,0.67 14.95,0.68 14.84,0.68 14.73,0.65 14.62,0.62 14.53,0.56 14.44,0.50 14.37,0.41 14.30,0.32 14.27,0.21 14.23,0.11 14.23,-0.00 14.23,-0.11 14.27,-0.21 14.30,-0.32 14.37,-0.41 14.44,-0.50 14.53,-0.56 14.62,-0.62 14.73,-0.65 14.84,-0.68 14.95,-0.68 15.06,-0.67 15.17,-0.63 15.27,-0.59 15.36,-0.52 15.44,-0.44 15.50,-0.35 15.56,-0.25 15.58,-0.14 15.61,-0.03 15.59,0.07 15.58,0.18 15.54,0.28 15.49,0.38 15.41,0.47 15.33,0.55 15.24,0.60 15.14,0.65 15.03,0.67 14.91,0.69 14.91,0.69 14.91,0.69 13.09,0.69 11.27,0.69 10.54,0.69 9.80,0.69 9.12,0.69 8.44,0.69 7.73,0.69 7.02,0.69 6.30,0.69 5.59,0.69 4.84,0.69 4.09,0.69 3.36,0.69 2.63,0.69 1.87,0.69 1.11,0.69 0.55,0.69 0,0.69 -0.08,0.68 -0.16,0.67 -0.24,0.64 -0.32,0.61 -0.39,0.56 -0.45,0.51 -0.51,0.45 -0.57,0.39 -0.60,0.31 -0.64,0.24 -0.66,0.16 -0.68,0.08 -0.68,-0.00 -0.68,-0.08 -0.66,-0.16 -0.64,-0.24 -0.60,-0.31 -0.57,-0.39 -0.51,-0.45 -0.45,-0.51 -0.39,-0.56 -0.32,-0.61 -0.24,-0.64 -0.16,-0.67 -0.08,-0.68 0.00,-0.69 0.00,-0.69 L 0,-0.69 Z"></path></g><g transform="translate(56.18077042079767 19.236154084157874) rotate(0 0 1.9538018254948497)" stroke="none" fill="#ce524a"><path d="M 0.69,0 Q 0.69,0 0.69,0.47 0.69,0.95 0.69,2.60 0.69,4.26 0.67,4.37 0.65,4.48 0.60,4.58 0.55,4.68 0.47,4.75 0.38,4.83 0.28,4.88 0.18,4.93 0.07,4.94 -0.03,4.95 -0.14,4.93 -0.25,4.90 -0.35,4.84 -0.44,4.79 -0.52,4.70 -0.59,4.62 -0.63,4.51 -0.67,4.41 -0.68,4.29 -0.68,4.18 -0.65,4.07 -0.62,3.97 -0.56,3.87 -0.50,3.78 -0.41,3.71 -0.32,3.65 -0.21,3.61 -0.11,3.57 0.00,3.57 0.11,3.57 0.21,3.61 0.32,3.65 0.41,3.71 0.50,3.78 0.56,3.87 0.62,3.97 0.65,4.08 0.68,4.18 0.68,4.30 0.67,4.41 0.63,4.51 0.59,4.62 0.52,4.70 0.44,4.79 0.35,4.84 0.25,4.90 0.14,4.93 0.03,4.95 -0.07,4.94 -0.18,4.93 -0.28,4.88 -0.38,4.83 -0.47,4.75 -0.55,4.68 -0.60,4.58 -0.65,4.48 -0.67,4.37 -0.69,4.26 -0.69,4.26 -0.69,4.26 -0.69,2.60 -0.69,0.95 -0.69,0.47 -0.69,0 -0.68,-0.08 -0.67,-0.16 -0.64,-0.24 -0.61,-0.32 -0.56,-0.39 -0.51,-0.45 -0.45,-0.51 -0.39,-0.57 -0.31,-0.60 -0.24,-0.64 -0.16,-0.66 -0.08,-0.68 0.00,-0.68 0.08,-0.68 0.16,-0.66 0.24,-0.64 0.31,-0.60 0.39,-0.57 0.45,-0.51 0.51,-0.45 0.56,-0.39 0.61,-0.32 0.64,-0.24 0.67,-0.16 0.68,-0.08 0.69,0.00 0.69,0.00 L 0.69,0 Z"></path></g><g transform="translate(56.18077042079494 23.854231126235163) rotate(0 7.63758895420716 0.1776183477722384)" stroke="none" fill="#ce524a"><path d="M 0.13,-0.67 Q 0.13,-0.67 0.53,-0.60 0.93,-0.52 1.64,-0.44 2.35,-0.36 3.08,-0.35 3.82,-0.34 4.53,-0.33 5.24,-0.33 5.95,-0.33 6.66,-0.33 7.37,-0.33 8.08,-0.33 8.79,-0.33 9.50,-0.33 10.21,-0.33 10.92,-0.33 11.63,-0.33 12.34,-0.33 13.99,-0.33 15.63,-0.33 15.74,-0.31 15.85,-0.30 15.95,-0.24 16.04,-0.19 16.12,-0.11 16.20,-0.03 16.25,0.06 16.29,0.16 16.31,0.28 16.32,0.39 16.29,0.50 16.27,0.61 16.21,0.70 16.15,0.80 16.07,0.87 15.98,0.94 15.88,0.99 15.77,1.03 15.66,1.03 15.55,1.04 15.44,1.01 15.33,0.98 15.24,0.92 15.15,0.85 15.08,0.76 15.01,0.67 14.98,0.57 14.94,0.46 14.94,0.35 14.94,0.24 14.98,0.13 15.01,0.03 15.08,-0.05 15.15,-0.14 15.24,-0.21 15.33,-0.27 15.44,-0.30 15.55,-0.33 15.66,-0.32 15.77,-0.32 15.88,-0.28 15.98,-0.23 16.07,-0.16 16.15,-0.09 16.21,0.00 16.27,0.09 16.29,0.20 16.32,0.31 16.31,0.42 16.29,0.54 16.25,0.64 16.20,0.74 16.12,0.82 16.04,0.90 15.95,0.95 15.85,1.01 15.74,1.03 15.63,1.04 15.63,1.04 15.63,1.04 13.99,1.04 12.34,1.04 11.63,1.04 10.92,1.04 10.21,1.04 9.50,1.04 8.79,1.04 8.08,1.04 7.37,1.04 6.66,1.04 5.95,1.04 5.24,1.04 4.52,1.04 3.81,1.04 3.03,1.02 2.26,1.01 1.46,0.92 0.65,0.83 0.26,0.75 -0.13,0.67 -0.21,0.65 -0.29,0.62 -0.36,0.58 -0.43,0.53 -0.49,0.47 -0.55,0.41 -0.59,0.34 -0.63,0.27 -0.66,0.19 -0.68,0.11 -0.68,0.03 -0.69,-0.05 -0.67,-0.13 -0.65,-0.21 -0.62,-0.29 -0.58,-0.36 -0.53,-0.43 -0.48,-0.49 -0.41,-0.54 -0.34,-0.59 -0.27,-0.63 -0.19,-0.66 -0.11,-0.67 -0.03,-0.69 0.05,-0.68 0.13,-0.67 0.13,-0.67 L 0.13,-0.67 Z"></path></g><g transform="translate(71.81118502475238 19.23615408415651) rotate(0 0 2.3090385210393833)" stroke="none" fill="#ce524a"><path d="M 0.69,0 Q 0.69,0 0.69,0.39 0.69,0.79 0.69,2.88 0.69,4.97 0.67,5.08 0.65,5.19 0.60,5.29 0.55,5.39 0.47,5.46 0.38,5.54 0.28,5.59 0.18,5.64 0.07,5.65 -0.03,5.66 -0.14,5.64 -0.25,5.61 -0.35,5.55 -0.44,5.50 -0.52,5.41 -0.59,5.33 -0.63,5.22 -0.67,5.12 -0.68,5.01 -0.68,4.89 -0.65,4.79 -0.62,4.68 -0.56,4.58 -0.50,4.49 -0.41,4.42 -0.32,4.36 -0.21,4.32 -0.11,4.28 0.00,4.28 0.11,4.28 0.21,4.32 0.32,4.36 0.41,4.42 0.50,4.49 0.56,4.58 0.62,4.68 0.65,4.79 0.68,4.89 0.68,5.01 0.67,5.12 0.63,5.22 0.59,5.33 0.52,5.41 0.44,5.50 0.35,5.55 0.25,5.61 0.14,5.64 0.03,5.66 -0.07,5.65 -0.18,5.64 -0.28,5.59 -0.38,5.54 -0.47,5.46 -0.55,5.39 -0.60,5.29 -0.65,5.19 -0.67,5.08 -0.69,4.97 -0.69,4.97 -0.69,4.97 -0.69,2.88 -0.69,0.79 -0.69,0.39 -0.69,0 -0.68,-0.08 -0.67,-0.16 -0.64,-0.24 -0.61,-0.32 -0.56,-0.39 -0.51,-0.45 -0.45,-0.51 -0.39,-0.57 -0.31,-0.60 -0.24,-0.64 -0.16,-0.66 -0.08,-0.68 0.00,-0.68 0.08,-0.68 0.16,-0.66 0.24,-0.64 0.31,-0.60 0.39,-0.57 0.45,-0.51 0.51,-0.45 0.56,-0.39 0.61,-0.32 0.64,-0.24 0.67,-0.16 0.68,-0.08 0.69,0.00 0.69,0.00 L 0.69,0 Z"></path></g><g transform="translate(73.94260519802356 10.355236695543681) rotate(0 0 1.598565129950316)" stroke="none" fill="#ce524a"><path d="M 0.69,0 Q 0.69,0 0.69,1.77 0.69,3.55 0.67,3.66 0.65,3.77 0.60,3.87 0.55,3.97 0.47,4.04 0.38,4.12 0.28,4.17 0.18,4.22 0.07,4.23 -0.03,4.24 -0.14,4.22 -0.25,4.19 -0.35,4.13 -0.44,4.08 -0.52,3.99 -0.59,3.90 -0.63,3.80 -0.67,3.70 -0.68,3.58 -0.68,3.47 -0.65,3.36 -0.62,3.26 -0.56,3.16 -0.50,3.07 -0.41,3.00 -0.32,2.94 -0.21,2.90 -0.11,2.86 0.00,2.86 0.11,2.86 0.21,2.90 0.32,2.94 0.41,3.00 0.50,3.07 0.56,3.16 0.62,3.26 0.65,3.36 0.68,3.47 0.68,3.58 0.67,3.70 0.63,3.80 0.59,3.90 0.52,3.99 0.44,4.08 0.35,4.13 0.25,4.19 0.14,4.22 0.03,4.24 -0.07,4.23 -0.18,4.22 -0.28,4.17 -0.38,4.12 -0.47,4.04 -0.55,3.97 -0.60,3.87 -0.65,3.77 -0.67,3.66 -0.69,3.55 -0.69,3.55 -0.69,3.55 -0.69,1.77 -0.69,0 -0.68,-0.08 -0.67,-0.16 -0.64,-0.24 -0.61,-0.32 -0.56,-0.39 -0.51,-0.45 -0.45,-0.51 -0.39,-0.57 -0.31,-0.60 -0.24,-0.64 -0.16,-0.66 -0.08,-0.68 0.00,-0.68 0.08,-0.68 0.16,-0.66 0.24,-0.64 0.31,-0.60 0.39,-0.57 0.45,-0.51 0.51,-0.45 0.56,-0.39 0.61,-0.32 0.64,-0.24 0.67,-0.16 0.68,-0.08 0.69,0.00 0.69,0.00 L 0.69,0 Z"></path></g><g transform="translate(73.9426051980181 11) rotate(0 11.900429300741337 -0.8223816522277616)" stroke="none" fill="#ce524a"><path d="M 0,-1.33 Q 0,-1.33 0.47,-1.33 0.95,-1.33 1.79,-1.33 2.63,-1.33 3.40,-1.33 4.16,-1.33 5.01,-1.48 5.86,-1.62 6.61,-1.65 7.36,-1.68 8.08,-1.68 8.79,-1.69 9.50,-1.69 10.21,-1.69 10.92,-1.69 11.63,-1.69 12.34,-1.69 13.06,-1.69 13.77,-1.69 14.48,-1.69 15.19,-1.69 15.90,-1.69 16.61,-1.69 17.32,-1.69 18.03,-1.69 18.74,-1.69 19.45,-1.69 20.16,-1.69 22.21,-1.51 24.26,-1.32 24.37,-1.29 24.47,-1.25 24.56,-1.19 24.65,-1.12 24.71,-1.03 24.78,-0.93 24.81,-0.83 24.84,-0.72 24.83,-0.61 24.83,-0.49 24.79,-0.39 24.75,-0.29 24.67,-0.20 24.60,-0.11 24.51,-0.06 24.41,-0.00 24.30,0.02 24.19,0.04 24.08,0.03 23.97,0.02 23.87,-0.02 23.77,-0.06 23.68,-0.14 23.60,-0.22 23.55,-0.32 23.50,-0.41 23.48,-0.53 23.46,-0.64 23.48,-0.75 23.49,-0.86 23.55,-0.96 23.60,-1.06 23.68,-1.13 23.76,-1.21 23.86,-1.26 23.96,-1.31 24.07,-1.32 24.18,-1.33 24.29,-1.31 24.40,-1.28 24.50,-1.23 24.60,-1.17 24.67,-1.09 24.74,-1.00 24.79,-0.90 24.83,-0.79 24.83,-0.68 24.84,-0.57 24.81,-0.46 24.78,-0.35 24.72,-0.26 24.66,-0.17 24.57,-0.10 24.48,-0.03 24.37,0.00 24.27,0.03 24.15,0.03 24.04,0.03 24.04,0.03 24.04,0.03 22.63,-0.13 21.23,-0.30 20.52,-0.30 19.80,-0.30 19.09,-0.30 18.38,-0.30 17.67,-0.30 16.96,-0.30 16.25,-0.30 15.54,-0.30 14.83,-0.30 14.12,-0.30 13.41,-0.30 12.70,-0.30 11.99,-0.30 11.28,-0.30 10.57,-0.30 9.86,-0.30 9.15,-0.30 8.44,-0.30 7.74,-0.30 7.03,-0.29 6.28,-0.23 5.52,-0.17 4.84,-0.06 4.16,0.04 3.40,0.04 2.63,0.04 1.79,0.04 0.95,0.04 0.47,0.04 0,0.04 -0.08,0.03 -0.16,0.02 -0.24,-0.00 -0.32,-0.03 -0.39,-0.07 -0.45,-0.12 -0.51,-0.18 -0.57,-0.25 -0.60,-0.32 -0.64,-0.39 -0.66,-0.48 -0.68,-0.56 -0.68,-0.64 -0.68,-0.72 -0.66,-0.80 -0.64,-0.89 -0.60,-0.96 -0.57,-1.03 -0.51,-1.10 -0.45,-1.16 -0.39,-1.21 -0.32,-1.25 -0.24,-1.28 -0.16,-1.31 -0.08,-1.32 0.00,-1.33 0.00,-1.33 L 0,-1.33 Z"></path></g><g transform="translate(74.29784189356997 17.815207301979285) rotate(0 0 2.131420173267088)" stroke="none" fill="#ce524a"><path d="M 0.69,0 Q 0.69,0 0.69,0.47 0.69,0.95 0.69,2.78 0.69,4.61 0.67,4.72 0.65,4.83 0.60,4.93 0.55,5.03 0.47,5.11 0.38,5.19 0.28,5.23 0.18,5.28 0.07,5.29 -0.03,5.31 -0.14,5.28 -0.25,5.26 -0.35,5.20 -0.44,5.14 -0.52,5.06 -0.59,4.97 -0.63,4.87 -0.67,4.76 -0.68,4.65 -0.68,4.54 -0.65,4.43 -0.62,4.32 -0.56,4.23 -0.50,4.14 -0.41,4.07 -0.32,4.00 -0.21,3.96 -0.11,3.93 0.00,3.93 0.11,3.93 0.21,3.97 0.32,4.00 0.41,4.07 0.50,4.14 0.56,4.23 0.62,4.32 0.65,4.43 0.68,4.54 0.68,4.65 0.67,4.76 0.63,4.87 0.59,4.97 0.52,5.06 0.44,5.14 0.35,5.20 0.25,5.26 0.14,5.28 0.03,5.31 -0.07,5.29 -0.18,5.28 -0.28,5.23 -0.38,5.19 -0.47,5.11 -0.55,5.03 -0.60,4.93 -0.65,4.83 -0.67,4.72 -0.69,4.61 -0.69,4.61 -0.69,4.61 -0.69,2.78 -0.69,0.95 -0.69,0.47 -0.69,0 -0.68,-0.08 -0.67,-0.16 -0.64,-0.24 -0.61,-0.32 -0.56,-0.39 -0.51,-0.45 -0.45,-0.51 -0.39,-0.57 -0.31,-0.60 -0.24,-0.64 -0.16,-0.66 -0.08,-0.68 0.00,-0.68 0.08,-0.68 0.16,-0.66 0.24,-0.64 0.31,-0.60 0.39,-0.57 0.45,-0.51 0.51,-0.45 0.56,-0.39 0.61,-0.32 0.64,-0.24 0.67,-0.16 0.68,-0.08 0.69,0.00 0.69,0.00 L 0.69,0 Z"></path></g><g transform="translate(74.29784189356997 22.07804764851312) rotate(0 0 0.35523669554453363)" stroke="none" fill="#ce524a"><path d="M 0.69,1.06 Q 0.69,1.06 0.67,1.17 0.65,1.28 0.60,1.38 0.55,1.48 0.47,1.56 0.38,1.63 0.28,1.68 0.18,1.73 0.07,1.74 -0.03,1.75 -0.14,1.73 -0.25,1.70 -0.35,1.65 -0.44,1.59 -0.52,1.50 -0.59,1.42 -0.63,1.31 -0.67,1.21 -0.68,1.10 -0.68,0.99 -0.65,0.88 -0.62,0.77 -0.56,0.68 -0.50,0.58 -0.41,0.52 -0.32,0.45 -0.21,0.41 -0.11,0.38 0.00,0.38 0.11,0.38 0.21,0.41 0.32,0.45 0.41,0.52 0.50,0.58 0.56,0.68 0.62,0.77 0.65,0.88 0.68,0.99 0.68,1.10 0.67,1.21 0.63,1.31 0.59,1.42 0.52,1.50 0.44,1.59 0.35,1.65 0.25,1.70 0.14,1.73 0.03,1.75 -0.07,1.74 -0.18,1.73 -0.28,1.68 -0.38,1.63 -0.47,1.56 -0.55,1.48 -0.60,1.38 -0.65,1.28 -0.67,1.17 -0.69,1.06 -0.69,1.06 -0.69,1.06 -0.81,0.96 -0.92,0.86 -1.01,0.74 -1.10,0.62 -1.16,0.47 -1.22,0.33 -1.24,0.18 -1.27,0.03 -1.25,-0.11 -1.24,-0.27 -1.19,-0.41 -1.14,-0.55 -1.05,-0.68 -0.97,-0.81 -0.86,-0.92 -0.75,-1.02 -0.61,-1.10 -0.48,-1.17 -0.33,-1.21 -0.18,-1.25 -0.03,-1.26 0.11,-1.26 0.26,-1.23 0.41,-1.20 0.55,-1.13 0.69,-1.06 0.69,0.00 L 0.69,1.06 Z"></path></g><g transform="translate(74.65307858910637 38.61807704207877) rotate(0 11.722810952969098 -19.737159653465767)" stroke="none" fill="#ce524a"><path d="M -0.41,-16.02 Q -0.41,-16.02 -0.09,-16.26 0.22,-16.50 0.90,-16.98 1.58,-17.45 2.22,-17.91 2.86,-18.36 3.32,-18.92 3.79,-19.47 4.38,-19.82 4.96,-20.18 5.53,-20.55 6.09,-20.93 6.79,-21.29 7.50,-21.65 8.10,-21.88 8.71,-22.11 9.39,-22.42 10.06,-22.73 10.73,-22.94 11.39,-23.16 12.02,-23.36 12.64,-23.57 13.34,-23.82 14.04,-24.06 14.87,-24.17 15.70,-24.29 16.47,-24.47 17.25,-24.65 17.99,-24.67 18.73,-24.68 19.45,-24.69 20.16,-24.69 21.98,-24.69 23.80,-24.69 23.91,-24.67 24.02,-24.65 24.12,-24.60 24.22,-24.55 24.29,-24.47 24.37,-24.38 24.42,-24.28 24.46,-24.18 24.48,-24.07 24.49,-23.96 24.46,-23.85 24.44,-23.74 24.38,-23.64 24.32,-23.55 24.24,-23.47 24.15,-23.40 24.05,-23.36 23.94,-23.32 23.83,-23.31 23.72,-23.31 23.61,-23.34 23.50,-23.37 23.41,-23.43 23.32,-23.49 23.25,-23.58 23.18,-23.67 23.15,-23.78 23.11,-23.88 23.11,-24.00 23.11,-24.11 23.15,-24.21 23.18,-24.32 23.25,-24.41 23.32,-24.50 23.41,-24.56 23.50,-24.62 23.61,-24.65 23.72,-24.68 23.83,-24.68 23.94,-24.67 24.05,-24.63 24.15,-24.59 24.24,-24.52 24.32,-24.44 24.38,-24.35 24.44,-24.25 24.46,-24.14 24.49,-24.03 24.48,-23.92 24.46,-23.81 24.42,-23.71 24.37,-23.61 24.29,-23.52 24.22,-23.44 24.12,-23.39 24.02,-23.34 23.91,-23.32 23.80,-23.30 23.80,-23.30 23.80,-23.30 21.62,-23.30 19.45,-23.30 18.75,-23.30 18.04,-23.29 17.39,-23.25 16.73,-23.20 16.04,-23.04 15.36,-22.88 14.62,-22.71 13.88,-22.53 13.20,-22.35 12.52,-22.17 11.90,-21.96 11.28,-21.75 10.67,-21.45 10.05,-21.14 9.40,-20.95 8.75,-20.76 8.01,-20.38 7.27,-19.99 6.62,-19.67 5.97,-19.35 5.30,-18.84 4.64,-18.34 4.05,-17.76 3.46,-17.19 2.93,-16.76 2.39,-16.33 1.72,-15.86 1.05,-15.39 0.73,-15.15 0.41,-14.91 0.34,-14.87 0.27,-14.83 0.19,-14.81 0.11,-14.79 0.02,-14.78 -0.05,-14.78 -0.13,-14.80 -0.22,-14.81 -0.29,-14.85 -0.37,-14.88 -0.43,-14.94 -0.50,-14.99 -0.55,-15.06 -0.60,-15.12 -0.63,-15.20 -0.66,-15.28 -0.67,-15.36 -0.69,-15.44 -0.68,-15.53 -0.67,-15.61 -0.65,-15.69 -0.62,-15.77 -0.58,-15.84 -0.53,-15.91 -0.47,-15.97 -0.41,-16.02 -0.41,-16.02 L -0.41,-16.02 Z"></path></g><g transform="translate(98.45393719058757 14.618077042078312) rotate(0 8.170443997523932 3.729985303217461)" stroke="none" fill="#ce524a"><path d="M 0.16,-0.67 Q 0.16,-0.67 0.48,-0.59 0.80,-0.51 1.60,-0.43 2.39,-0.35 3.20,-0.16 4.00,0.02 4.78,0.36 5.56,0.69 6.21,0.86 6.86,1.03 7.63,1.39 8.40,1.74 9.14,2.04 9.88,2.33 10.46,2.70 11.04,3.06 11.57,3.50 12.09,3.93 12.70,4.22 13.31,4.52 13.89,4.90 14.47,5.29 15.70,6.37 16.92,7.44 16.97,7.55 17.01,7.65 17.02,7.76 17.03,7.88 17.00,7.98 16.97,8.09 16.91,8.19 16.85,8.28 16.76,8.35 16.67,8.42 16.56,8.46 16.46,8.49 16.35,8.49 16.23,8.50 16.13,8.46 16.02,8.43 15.93,8.36 15.84,8.29 15.78,8.20 15.71,8.11 15.68,8.00 15.65,7.89 15.65,7.78 15.66,7.67 15.70,7.57 15.74,7.46 15.81,7.37 15.88,7.29 15.98,7.23 16.07,7.17 16.18,7.14 16.29,7.12 16.40,7.13 16.51,7.14 16.61,7.19 16.72,7.23 16.80,7.31 16.88,7.38 16.94,7.48 16.99,7.58 17.01,7.69 17.03,7.80 17.01,7.91 17.00,8.02 16.94,8.12 16.89,8.22 16.81,8.30 16.73,8.38 16.63,8.43 16.53,8.48 16.42,8.49 16.31,8.50 16.20,8.48 16.09,8.46 15.99,8.40 15.89,8.34 15.82,8.26 15.75,8.18 15.75,8.18 15.75,8.18 14.29,7.00 12.83,5.82 12.14,5.44 11.45,5.07 10.84,4.62 10.22,4.18 9.59,3.77 8.96,3.37 8.26,3.03 7.55,2.70 6.87,2.50 6.18,2.30 5.47,1.99 4.76,1.67 4.09,1.50 3.41,1.33 2.67,1.17 1.94,1.01 1.20,0.92 0.46,0.83 0.14,0.75 -0.16,0.67 -0.24,0.64 -0.32,0.61 -0.39,0.56 -0.46,0.51 -0.51,0.45 -0.57,0.39 -0.61,0.31 -0.64,0.24 -0.66,0.16 -0.68,0.08 -0.68,-0.00 -0.68,-0.08 -0.66,-0.16 -0.64,-0.24 -0.60,-0.32 -0.56,-0.39 -0.51,-0.45 -0.45,-0.52 -0.38,-0.56 -0.31,-0.61 -0.24,-0.64 -0.16,-0.67 -0.08,-0.68 0.00,-0.69 0.08,-0.68 0.16,-0.67 0.16,-0.67 L 0.16,-0.67 Z"></path></g><g transform="translate(115.15006188118696 26.65710086633476) rotate(0 1.2433284344058393 -4.934289913366456)" stroke="none" fill="#ce524a"><path d="M -0.49,-4.35 Q -0.49,-4.35 1.01,-5.48 2.52,-6.61 2.62,-6.64 2.73,-6.68 2.84,-6.68 2.95,-6.68 3.06,-6.64 3.17,-6.61 3.25,-6.54 3.34,-6.47 3.41,-6.38 3.47,-6.28 3.50,-6.17 3.53,-6.07 3.52,-5.95 3.51,-5.84 3.47,-5.74 3.43,-5.63 3.36,-5.55 3.28,-5.46 3.19,-5.41 3.09,-5.35 2.98,-5.33 2.87,-5.30 2.76,-5.32 2.65,-5.33 2.55,-5.38 2.44,-5.42 2.36,-5.50 2.28,-5.58 2.23,-5.68 2.18,-5.78 2.16,-5.89 2.14,-6.00 2.16,-6.11 2.18,-6.22 2.23,-6.32 2.29,-6.42 2.37,-6.49 2.45,-6.57 2.55,-6.62 2.66,-6.66 2.77,-6.68 2.88,-6.69 2.99,-6.66 3.10,-6.64 3.19,-6.58 3.29,-6.52 3.36,-6.43 3.43,-6.35 3.47,-6.24 3.51,-6.14 3.52,-6.03 3.53,-5.92 3.49,-5.81 3.46,-5.70 3.40,-5.61 3.34,-5.52 3.25,-5.45 3.16,-5.38 3.16,-5.38 3.16,-5.38 1.82,-4.38 0.49,-3.37 0.42,-3.32 0.35,-3.27 0.28,-3.24 0.20,-3.20 0.12,-3.19 0.04,-3.17 -0.04,-3.18 -0.12,-3.18 -0.20,-3.21 -0.28,-3.23 -0.35,-3.27 -0.42,-3.32 -0.48,-3.38 -0.54,-3.44 -0.58,-3.51 -0.63,-3.58 -0.65,-3.66 -0.68,-3.74 -0.68,-3.82 -0.69,-3.91 -0.67,-3.99 -0.66,-4.07 -0.62,-4.15 -0.59,-4.22 -0.54,-4.29 -0.48,-4.35 -0.49,-4.35 L -0.49,-4.35 Z"></path></g><g transform="translate(97.03299040841921 10.355236695544022) rotate(0 6.216642172029083 1.9538018254948497)" stroke="none" fill="#ce524a"><path d="M 0,-0.69 Q 0,-0.69 0.39,-0.69 0.79,-0.69 1.51,-0.55 2.23,-0.42 2.95,-0.28 3.68,-0.14 4.58,0.03 5.49,0.21 6.17,0.44 6.85,0.66 7.53,0.84 8.21,1.02 8.86,1.32 9.51,1.62 11.29,2.45 13.07,3.27 13.16,3.33 13.26,3.40 13.32,3.48 13.39,3.57 13.43,3.68 13.47,3.79 13.47,3.90 13.47,4.01 13.43,4.12 13.40,4.22 13.33,4.31 13.26,4.40 13.17,4.47 13.08,4.53 12.97,4.56 12.86,4.59 12.75,4.59 12.64,4.58 12.54,4.54 12.43,4.50 12.34,4.43 12.26,4.36 12.20,4.26 12.14,4.16 12.12,4.05 12.09,3.95 12.10,3.83 12.11,3.72 12.16,3.62 12.21,3.52 12.28,3.44 12.36,3.35 12.46,3.30 12.56,3.25 12.67,3.23 12.78,3.21 12.89,3.23 13.00,3.24 13.10,3.30 13.20,3.35 13.28,3.43 13.35,3.51 13.40,3.61 13.45,3.71 13.46,3.82 13.48,3.93 13.45,4.04 13.43,4.15 13.37,4.25 13.32,4.35 13.23,4.42 13.15,4.49 13.04,4.54 12.94,4.58 12.83,4.59 12.71,4.59 12.61,4.56 12.50,4.53 12.50,4.53 12.50,4.53 10.55,3.60 8.59,2.66 7.78,2.36 6.96,2.06 6.18,1.84 5.40,1.61 4.61,1.44 3.83,1.27 3.16,1.12 2.50,0.98 1.65,0.83 0.79,0.69 0.39,0.69 0,0.69 -0.08,0.68 -0.16,0.67 -0.24,0.64 -0.32,0.61 -0.39,0.56 -0.45,0.51 -0.51,0.45 -0.57,0.39 -0.60,0.31 -0.64,0.24 -0.66,0.16 -0.68,0.08 -0.68,-0.00 -0.68,-0.08 -0.66,-0.16 -0.64,-0.24 -0.60,-0.31 -0.57,-0.39 -0.51,-0.45 -0.45,-0.51 -0.39,-0.56 -0.32,-0.61 -0.24,-0.64 -0.16,-0.67 -0.08,-0.68 0.00,-0.69 0.00,-0.69 L 0,-0.69 Z"></path></g><g transform="translate(108.40056466583792 13.552366955444995) rotate(0 4.440458694306471 3.3747486076729274)" stroke="none" fill="#ce524a"><path d="M 0.41,-0.55 Q 0.41,-0.55 0.73,-0.31 1.05,-0.07 1.66,0.25 2.28,0.59 2.88,1.00 3.48,1.41 4.20,1.94 4.92,2.47 5.52,2.95 6.11,3.43 6.62,3.83 7.14,4.22 8.44,5.43 9.75,6.64 9.81,6.74 9.87,6.83 9.90,6.94 9.92,7.05 9.91,7.16 9.90,7.27 9.86,7.38 9.81,7.48 9.74,7.56 9.66,7.64 9.56,7.70 9.46,7.75 9.35,7.77 9.24,7.79 9.13,7.78 9.02,7.76 8.92,7.71 8.82,7.66 8.74,7.58 8.66,7.50 8.62,7.40 8.57,7.30 8.55,7.19 8.54,7.07 8.56,6.96 8.58,6.85 8.64,6.76 8.70,6.66 8.78,6.59 8.86,6.51 8.97,6.47 9.07,6.43 9.18,6.42 9.29,6.41 9.40,6.44 9.51,6.47 9.61,6.53 9.70,6.59 9.77,6.68 9.84,6.76 9.88,6.87 9.91,6.98 9.91,7.09 9.92,7.20 9.88,7.31 9.85,7.41 9.78,7.50 9.72,7.59 9.62,7.66 9.53,7.72 9.43,7.76 9.32,7.79 9.21,7.78 9.09,7.78 8.99,7.74 8.88,7.70 8.80,7.63 8.71,7.56 8.71,7.56 8.71,7.56 7.56,6.47 6.42,5.38 5.83,4.95 5.25,4.52 4.78,4.07 4.30,3.62 3.60,3.10 2.90,2.58 2.30,2.20 1.69,1.83 0.95,1.43 0.22,1.03 -0.09,0.79 -0.41,0.55 -0.47,0.49 -0.53,0.43 -0.58,0.36 -0.62,0.29 -0.65,0.21 -0.67,0.13 -0.68,0.05 -0.69,-0.02 -0.67,-0.10 -0.66,-0.19 -0.63,-0.26 -0.60,-0.34 -0.55,-0.41 -0.50,-0.47 -0.43,-0.53 -0.37,-0.58 -0.29,-0.62 -0.22,-0.65 -0.13,-0.67 -0.05,-0.69 0.02,-0.68 0.11,-0.68 0.19,-0.66 0.27,-0.63 0.34,-0.59 0.41,-0.55 0.41,-0.55 L 0.41,-0.55 Z"></path></g><g transform="translate(16.64476330446996 27.657100866334986) rotate(0 -5.579053217821922 -5.756671565594161)" stroke="none" fill="#ce524a"><path d="M -5.05,-4.08 Q -5.05,-4.08 -6.21,-5.24 -7.37,-6.41 -7.45,-6.49 -7.54,-6.56 -7.59,-6.66 -7.65,-6.76 -7.67,-6.87 -7.69,-6.98 -7.67,-7.09 -7.66,-7.20 -7.61,-7.30 -7.56,-7.40 -7.48,-7.48 -7.40,-7.56 -7.30,-7.61 -7.20,-7.66 -7.09,-7.67 -6.97,-7.69 -6.86,-7.67 -6.75,-7.64 -6.66,-7.59 -6.56,-7.53 -6.48,-7.45 -6.41,-7.37 -6.37,-7.26 -6.32,-7.16 -6.31,-7.05 -6.30,-6.94 -6.33,-6.83 -6.36,-6.72 -6.42,-6.63 -6.48,-6.53 -6.57,-6.46 -6.66,-6.39 -6.76,-6.35 -6.87,-6.31 -6.98,-6.31 -7.09,-6.31 -7.20,-6.34 -7.30,-6.38 -7.40,-6.44 -7.49,-6.51 -7.55,-6.60 -7.62,-6.69 -7.65,-6.80 -7.68,-6.90 -7.68,-7.02 -7.68,-7.13 -7.64,-7.23 -7.60,-7.34 -7.53,-7.42 -7.46,-7.51 -7.36,-7.57 -7.27,-7.63 -7.16,-7.66 -7.05,-7.69 -6.94,-7.68 -6.83,-7.67 -6.72,-7.62 -6.62,-7.58 -6.62,-7.58 -6.62,-7.58 -5.29,-6.26 -3.97,-4.94 -3.92,-4.87 -3.88,-4.80 -3.85,-4.72 -3.83,-4.64 -3.82,-4.56 -3.82,-4.47 -3.83,-4.39 -3.84,-4.31 -3.88,-4.23 -3.91,-4.16 -3.96,-4.09 -4.01,-4.02 -4.08,-3.97 -4.14,-3.92 -4.22,-3.88 -4.30,-3.85 -4.38,-3.83 -4.46,-3.82 -4.54,-3.82 -4.63,-3.83 -4.71,-3.85 -4.79,-3.87 -4.86,-3.92 -4.93,-3.96 -4.99,-4.02 -5.05,-4.08 -5.05,-4.08 L -5.05,-4.08 Z"></path></g><g transform="translate(12.841893564370366 38.97331373762222) rotate(0 11.367574257424565 -19.737159653465767)" stroke="none" fill="#ce524a"><path d="M -0.55,-15.89 Q -0.55,-15.89 -0.31,-16.20 -0.07,-16.52 0.42,-17.03 0.93,-17.54 1.45,-18.14 1.97,-18.73 2.54,-19.18 3.11,-19.63 3.65,-19.99 4.18,-20.36 4.81,-20.65 5.44,-20.95 6.11,-21.30 6.79,-21.65 7.54,-22.01 8.29,-22.37 9.01,-22.60 9.74,-22.83 10.35,-23.06 10.95,-23.30 11.63,-23.54 12.30,-23.77 12.98,-23.86 13.67,-23.94 14.33,-24.10 14.99,-24.26 15.78,-24.29 16.57,-24.32 17.36,-24.49 18.15,-24.65 20.26,-24.67 22.37,-24.69 22.48,-24.67 22.59,-24.65 22.69,-24.60 22.79,-24.55 22.87,-24.47 22.95,-24.39 23.00,-24.28 23.04,-24.18 23.05,-24.07 23.07,-23.96 23.04,-23.85 23.02,-23.74 22.96,-23.64 22.90,-23.55 22.82,-23.47 22.73,-23.40 22.63,-23.36 22.53,-23.32 22.41,-23.31 22.30,-23.31 22.19,-23.34 22.09,-23.37 21.99,-23.43 21.90,-23.49 21.83,-23.58 21.76,-23.67 21.73,-23.78 21.69,-23.88 21.69,-23.99 21.69,-24.11 21.73,-24.21 21.76,-24.32 21.83,-24.41 21.90,-24.50 21.99,-24.56 22.08,-24.62 22.19,-24.65 22.30,-24.68 22.41,-24.68 22.52,-24.67 22.63,-24.63 22.73,-24.59 22.82,-24.52 22.90,-24.44 22.96,-24.35 23.02,-24.25 23.04,-24.14 23.07,-24.03 23.05,-23.92 23.04,-23.81 23.00,-23.71 22.95,-23.61 22.87,-23.53 22.80,-23.44 22.70,-23.39 22.60,-23.34 22.49,-23.32 22.38,-23.30 22.38,-23.30 22.38,-23.30 20.30,-23.29 18.22,-23.27 17.43,-23.11 16.63,-22.95 15.89,-22.92 15.15,-22.89 14.47,-22.73 13.79,-22.57 13.00,-22.44 12.21,-22.31 11.38,-22.02 10.55,-21.73 9.77,-21.42 9.00,-21.11 8.37,-20.88 7.75,-20.64 7.17,-20.32 6.59,-20.00 6.03,-19.68 5.47,-19.36 4.81,-18.98 4.16,-18.60 3.57,-18.20 2.98,-17.79 2.53,-17.29 2.08,-16.78 1.55,-16.24 1.02,-15.69 0.79,-15.37 0.55,-15.05 0.49,-14.99 0.43,-14.93 0.36,-14.89 0.29,-14.84 0.21,-14.82 0.13,-14.79 0.05,-14.78 -0.02,-14.78 -0.10,-14.79 -0.19,-14.80 -0.26,-14.84 -0.34,-14.87 -0.41,-14.92 -0.47,-14.97 -0.53,-15.03 -0.58,-15.10 -0.62,-15.17 -0.65,-15.25 -0.67,-15.33 -0.69,-15.41 -0.68,-15.50 -0.68,-15.58 -0.66,-15.66 -0.63,-15.74 -0.59,-15.81 -0.55,-15.89 -0.55,-15.89 L -0.55,-15.89 Z"></path></g><g transform="translate(35.2218053836732 14.973313737622334) rotate(0 6.571878867573588 2.131420173267088)" stroke="none" fill="#ce524a"><path d="M 0.11,-0.68 Q 0.11,-0.68 0.59,-0.60 1.06,-0.52 1.87,-0.44 2.68,-0.36 3.46,-0.18 4.24,-0.01 5.08,0.28 5.92,0.57 6.56,0.77 7.21,0.98 7.96,1.20 8.70,1.42 9.44,1.77 10.19,2.11 11.93,3.15 13.68,4.18 13.74,4.28 13.79,4.38 13.81,4.49 13.83,4.60 13.82,4.71 13.80,4.82 13.75,4.92 13.70,5.02 13.62,5.10 13.54,5.18 13.44,5.23 13.34,5.28 13.23,5.29 13.11,5.31 13.01,5.28 12.90,5.26 12.80,5.21 12.70,5.15 12.63,5.07 12.55,4.98 12.51,4.88 12.47,4.78 12.46,4.66 12.45,4.55 12.48,4.44 12.50,4.33 12.57,4.24 12.63,4.15 12.71,4.08 12.80,4.01 12.91,3.97 13.01,3.93 13.13,3.93 13.24,3.93 13.34,3.96 13.45,3.99 13.54,4.06 13.63,4.13 13.70,4.22 13.76,4.31 13.79,4.42 13.83,4.52 13.82,4.64 13.82,4.75 13.78,4.85 13.74,4.96 13.67,5.05 13.60,5.13 13.50,5.19 13.41,5.25 13.30,5.28 13.19,5.30 13.08,5.29 12.97,5.28 12.86,5.24 12.76,5.19 12.68,5.12 12.60,5.04 12.60,5.04 12.60,5.04 11.33,4.22 10.07,3.40 9.36,3.20 8.66,2.99 7.96,2.69 7.26,2.38 6.51,2.17 5.76,1.95 4.92,1.65 4.09,1.36 3.33,1.18 2.58,1.01 1.70,0.92 0.83,0.84 0.36,0.76 -0.11,0.68 -0.19,0.66 -0.27,0.63 -0.34,0.59 -0.41,0.55 -0.47,0.49 -0.53,0.43 -0.58,0.36 -0.62,0.29 -0.65,0.21 -0.67,0.13 -0.68,0.05 -0.69,-0.03 -0.67,-0.11 -0.66,-0.19 -0.63,-0.27 -0.59,-0.34 -0.54,-0.41 -0.49,-0.48 -0.43,-0.53 -0.36,-0.58 -0.29,-0.62 -0.21,-0.65 -0.13,-0.67 -0.05,-0.69 0.03,-0.68 0.11,-0.68 0.11,-0.68 L 0.11,-0.68 Z"></path></g><g transform="translate(48.010326423280276 19.236154084157306) rotate(0 2.4866568688116217 2.131420173267088)" stroke="none" fill="#ce524a"><path d="M 0.43,-0.54 Q 0.43,-0.54 0.83,-0.22 1.22,0.09 1.94,0.68 2.66,1.28 4.16,2.46 5.66,3.65 5.75,3.72 5.83,3.79 5.90,3.88 5.96,3.98 5.99,4.09 6.01,4.19 6.01,4.31 6.00,4.42 5.95,4.52 5.91,4.63 5.84,4.71 5.76,4.79 5.67,4.85 5.57,4.91 5.46,4.93 5.35,4.95 5.24,4.94 5.13,4.92 5.03,4.87 4.92,4.82 4.84,4.75 4.76,4.67 4.71,4.57 4.66,4.47 4.65,4.36 4.63,4.25 4.65,4.14 4.67,4.03 4.72,3.93 4.78,3.83 4.86,3.75 4.94,3.68 5.05,3.63 5.15,3.59 5.26,3.58 5.37,3.57 5.48,3.59 5.59,3.62 5.69,3.68 5.78,3.74 5.85,3.82 5.92,3.91 5.96,4.02 6.00,4.12 6.01,4.23 6.01,4.34 5.98,4.45 5.95,4.56 5.88,4.65 5.82,4.74 5.73,4.81 5.64,4.88 5.53,4.91 5.42,4.94 5.31,4.94 5.20,4.94 5.09,4.90 4.99,4.86 4.99,4.86 4.99,4.86 3.91,3.89 2.83,2.92 2.17,2.47 1.52,2.02 0.94,1.59 0.36,1.17 -0.03,0.85 -0.43,0.54 -0.49,0.48 -0.54,0.42 -0.59,0.34 -0.63,0.27 -0.65,0.19 -0.68,0.11 -0.68,0.03 -0.69,-0.04 -0.67,-0.13 -0.65,-0.21 -0.62,-0.28 -0.58,-0.36 -0.53,-0.42 -0.48,-0.49 -0.41,-0.54 -0.35,-0.59 -0.27,-0.63 -0.19,-0.66 -0.11,-0.67 -0.03,-0.69 0.04,-0.68 0.13,-0.68 0.21,-0.65 0.29,-0.62 0.36,-0.58 0.43,-0.54 0.43,-0.54 L 0.43,-0.54 Z"></path></g><g transform="translate(53.69411355198099 17.815207301978035) rotate(0 0 2.66427521658386)" stroke="none" fill="#ce524a"><path d="M 0.69,0 Q 0.69,0 0.69,0.39 0.69,0.79 0.69,1.55 0.69,2.31 0.69,3.99 0.69,5.68 0.67,5.79 0.65,5.90 0.60,6.00 0.55,6.10 0.47,6.18 0.38,6.25 0.28,6.30 0.18,6.35 0.07,6.36 -0.03,6.37 -0.14,6.35 -0.25,6.32 -0.35,6.26 -0.44,6.21 -0.52,6.12 -0.59,6.04 -0.63,5.93 -0.67,5.83 -0.68,5.72 -0.68,5.60 -0.65,5.50 -0.62,5.39 -0.56,5.29 -0.50,5.20 -0.41,5.13 -0.32,5.07 -0.21,5.03 -0.11,4.99 0.00,4.99 0.11,4.99 0.21,5.03 0.32,5.07 0.41,5.13 0.50,5.20 0.56,5.30 0.62,5.39 0.65,5.50 0.68,5.60 0.68,5.72 0.67,5.83 0.63,5.93 0.59,6.04 0.52,6.12 0.44,6.21 0.35,6.26 0.25,6.32 0.14,6.35 0.03,6.37 -0.07,6.36 -0.18,6.35 -0.28,6.30 -0.38,6.25 -0.47,6.18 -0.55,6.10 -0.60,6.00 -0.65,5.90 -0.67,5.79 -0.69,5.68 -0.69,5.68 -0.69,5.68 -0.69,3.99 -0.69,2.31 -0.69,1.55 -0.69,0.79 -0.69,0.39 -0.69,0 -0.68,-0.08 -0.67,-0.16 -0.64,-0.24 -0.61,-0.32 -0.56,-0.39 -0.51,-0.45 -0.45,-0.51 -0.39,-0.57 -0.31,-0.60 -0.24,-0.64 -0.16,-0.66 -0.08,-0.68 0.00,-0.68 0.08,-0.68 0.16,-0.66 0.24,-0.64 0.31,-0.60 0.39,-0.57 0.45,-0.51 0.51,-0.45 0.56,-0.39 0.61,-0.32 0.64,-0.24 0.67,-0.16 0.68,-0.08 0.69,0.00 0.69,0.00 L 0.69,0 Z"></path></g><g transform="translate(74.29784189356542 22.97331373762279) rotate(0 1.4209467821780777 -6.579053217821922)" stroke="none" fill="#ce524a"><path d="M -0.49,-5.64 Q -0.49,-5.64 -0.17,-5.96 0.14,-6.28 1.50,-7.44 2.85,-8.60 2.96,-8.64 3.06,-8.68 3.17,-8.68 3.29,-8.68 3.39,-8.65 3.50,-8.62 3.59,-8.55 3.68,-8.49 3.75,-8.39 3.81,-8.30 3.85,-8.20 3.88,-8.09 3.88,-7.98 3.87,-7.86 3.83,-7.76 3.80,-7.65 3.73,-7.57 3.65,-7.48 3.56,-7.42 3.47,-7.36 3.36,-7.33 3.25,-7.30 3.14,-7.31 3.02,-7.32 2.92,-7.37 2.82,-7.41 2.74,-7.49 2.65,-7.56 2.60,-7.66 2.54,-7.76 2.52,-7.87 2.50,-7.98 2.51,-8.09 2.53,-8.20 2.58,-8.30 2.63,-8.40 2.71,-8.48 2.79,-8.56 2.89,-8.61 2.99,-8.66 3.10,-8.67 3.21,-8.69 3.32,-8.67 3.43,-8.65 3.53,-8.59 3.63,-8.54 3.70,-8.45 3.78,-8.37 3.82,-8.27 3.86,-8.16 3.87,-8.05 3.88,-7.94 3.86,-7.83 3.83,-7.72 3.77,-7.63 3.71,-7.53 3.62,-7.46 3.53,-7.39 3.53,-7.39 3.53,-7.39 2.33,-6.35 1.12,-5.30 0.80,-4.98 0.49,-4.66 0.42,-4.61 0.35,-4.56 0.28,-4.53 0.20,-4.49 0.12,-4.48 0.04,-4.46 -0.04,-4.47 -0.12,-4.47 -0.20,-4.50 -0.28,-4.52 -0.35,-4.56 -0.42,-4.61 -0.48,-4.67 -0.54,-4.73 -0.58,-4.80 -0.63,-4.87 -0.65,-4.95 -0.68,-5.03 -0.68,-5.11 -0.69,-5.20 -0.67,-5.28 -0.66,-5.36 -0.62,-5.44 -0.59,-5.51 -0.54,-5.58 -0.48,-5.64 -0.49,-5.64 L -0.49,-5.64 Z"></path></g><g transform="translate(74.29784189356724 14.26284034653338) rotate(0 1.7761834777226113 0)" stroke="none" fill="#ce524a"><path d="M 0,-0.69 Q 0,-0.69 1.95,-0.69 3.90,-0.69 4.01,-0.67 4.12,-0.65 4.22,-0.60 4.32,-0.55 4.40,-0.47 4.48,-0.38 4.52,-0.28 4.57,-0.18 4.58,-0.07 4.59,0.03 4.57,0.14 4.55,0.25 4.49,0.35 4.43,0.44 4.35,0.52 4.26,0.59 4.16,0.63 4.05,0.67 3.94,0.68 3.83,0.68 3.72,0.65 3.61,0.62 3.52,0.56 3.43,0.50 3.36,0.41 3.29,0.32 3.25,0.21 3.22,0.11 3.22,-0.00 3.22,-0.11 3.25,-0.21 3.29,-0.32 3.36,-0.41 3.43,-0.50 3.52,-0.56 3.61,-0.62 3.72,-0.65 3.83,-0.68 3.94,-0.68 4.05,-0.67 4.16,-0.63 4.26,-0.59 4.35,-0.52 4.43,-0.44 4.49,-0.35 4.55,-0.25 4.57,-0.14 4.59,-0.03 4.58,0.07 4.57,0.18 4.52,0.28 4.48,0.38 4.40,0.47 4.32,0.55 4.22,0.60 4.12,0.65 4.01,0.67 3.90,0.69 3.90,0.69 3.90,0.69 1.95,0.69 0,0.69 -0.08,0.68 -0.16,0.67 -0.24,0.64 -0.32,0.61 -0.39,0.56 -0.45,0.51 -0.51,0.45 -0.57,0.39 -0.60,0.31 -0.64,0.24 -0.66,0.16 -0.68,0.08 -0.68,-0.00 -0.68,-0.08 -0.66,-0.16 -0.64,-0.24 -0.60,-0.31 -0.57,-0.39 -0.51,-0.45 -0.45,-0.51 -0.39,-0.56 -0.32,-0.61 -0.24,-0.64 -0.16,-0.67 -0.08,-0.68 0.00,-0.69 0.00,-0.69 L 0,-0.69 Z"></path></g><g transform="translate(49.43127320544954 14.26284034653338) rotate(0 1.5985651299503445 0)" stroke="none" fill="#ce524a"><path d="M 0,-0.69 Q 0,-0.69 1.77,-0.69 3.55,-0.69 3.66,-0.67 3.77,-0.65 3.87,-0.60 3.97,-0.55 4.04,-0.47 4.12,-0.38 4.17,-0.28 4.22,-0.18 4.23,-0.07 4.24,0.03 4.22,0.14 4.19,0.25 4.13,0.35 4.08,0.44 3.99,0.52 3.90,0.59 3.80,0.63 3.70,0.67 3.58,0.68 3.47,0.68 3.36,0.65 3.26,0.62 3.16,0.56 3.07,0.50 3.00,0.41 2.94,0.32 2.90,0.21 2.86,0.11 2.86,-0.00 2.86,-0.11 2.90,-0.21 2.94,-0.32 3.00,-0.41 3.07,-0.50 3.16,-0.56 3.26,-0.62 3.36,-0.65 3.47,-0.68 3.58,-0.68 3.70,-0.67 3.80,-0.63 3.90,-0.59 3.99,-0.52 4.08,-0.44 4.13,-0.35 4.19,-0.25 4.22,-0.14 4.24,-0.03 4.23,0.07 4.22,0.18 4.17,0.28 4.12,0.38 4.04,0.47 3.97,0.55 3.87,0.60 3.77,0.65 3.66,0.67 3.55,0.69 3.55,0.69 3.55,0.69 1.77,0.69 0,0.69 -0.08,0.68 -0.16,0.67 -0.24,0.64 -0.32,0.61 -0.39,0.56 -0.45,0.51 -0.51,0.45 -0.57,0.39 -0.60,0.31 -0.64,0.24 -0.66,0.16 -0.68,0.08 -0.68,-0.00 -0.68,-0.08 -0.66,-0.16 -0.64,-0.24 -0.60,-0.31 -0.57,-0.39 -0.51,-0.45 -0.45,-0.51 -0.39,-0.56 -0.32,-0.61 -0.24,-0.64 -0.16,-0.67 -0.08,-0.68 0.00,-0.69 0.00,-0.69 L 0,-0.69 Z"></path></g><g transform="translate(53.33887685644095 10.355236695542885) rotate(0 0 1.4209467821780777)" stroke="none" fill="#ce524a"><path d="M 0.69,0 Q 0.69,0 0.69,1.59 0.69,3.19 0.67,3.30 0.65,3.41 0.60,3.51 0.55,3.61 0.47,3.69 0.38,3.77 0.28,3.81 0.18,3.86 0.07,3.87 -0.03,3.88 -0.14,3.86 -0.25,3.84 -0.35,3.78 -0.44,3.72 -0.52,3.63 -0.59,3.55 -0.63,3.45 -0.67,3.34 -0.68,3.23 -0.68,3.12 -0.65,3.01 -0.62,2.90 -0.56,2.81 -0.50,2.72 -0.41,2.65 -0.32,2.58 -0.21,2.54 -0.11,2.51 0.00,2.51 0.11,2.51 0.21,2.54 0.32,2.58 0.41,2.65 0.50,2.72 0.56,2.81 0.62,2.90 0.65,3.01 0.68,3.12 0.68,3.23 0.67,3.34 0.63,3.45 0.59,3.55 0.52,3.63 0.44,3.72 0.35,3.78 0.25,3.84 0.14,3.86 0.03,3.88 -0.07,3.87 -0.18,3.86 -0.28,3.81 -0.38,3.77 -0.47,3.69 -0.55,3.61 -0.60,3.51 -0.65,3.41 -0.67,3.30 -0.69,3.19 -0.69,3.19 -0.69,3.19 -0.69,1.59 -0.69,0 -0.68,-0.08 -0.67,-0.16 -0.64,-0.24 -0.61,-0.32 -0.56,-0.39 -0.51,-0.45 -0.45,-0.51 -0.39,-0.57 -0.31,-0.60 -0.24,-0.64 -0.16,-0.66 -0.08,-0.68 0.00,-0.68 0.08,-0.68 0.16,-0.66 0.24,-0.64 0.31,-0.60 0.39,-0.57 0.45,-0.51 0.51,-0.45 0.56,-0.39 0.61,-0.32 0.64,-0.24 0.67,-0.16 0.68,-0.08 0.69,0.00 0.69,0.00 L 0.69,0 Z"></path></g><g transform="translate(49.431273205446814 15.32855043316738) rotate(0 1.776183477722583 1.4209467821780777)" stroke="none" fill="#ce524a"><path d="M 0.43,-0.54 Q 0.43,-0.54 0.82,-0.22 1.22,0.09 2.72,1.15 4.21,2.22 4.30,2.28 4.39,2.35 4.46,2.44 4.52,2.53 4.56,2.64 4.59,2.74 4.59,2.86 4.58,2.97 4.54,3.07 4.51,3.18 4.44,3.27 4.37,3.35 4.27,3.41 4.18,3.47 4.07,3.50 3.96,3.53 3.85,3.52 3.74,3.51 3.63,3.47 3.53,3.42 3.45,3.35 3.36,3.27 3.31,3.17 3.25,3.08 3.23,2.97 3.21,2.86 3.23,2.74 3.24,2.63 3.29,2.53 3.34,2.43 3.42,2.35 3.50,2.27 3.60,2.22 3.70,2.17 3.81,2.16 3.92,2.14 4.03,2.17 4.14,2.19 4.24,2.24 4.34,2.30 4.41,2.38 4.49,2.46 4.53,2.57 4.58,2.67 4.58,2.78 4.59,2.89 4.57,3.00 4.54,3.11 4.48,3.21 4.42,3.30 4.33,3.37 4.24,3.44 4.14,3.48 4.03,3.52 3.92,3.52 3.81,3.52 3.70,3.49 3.59,3.46 3.59,3.46 3.59,3.46 1.98,2.32 0.36,1.17 -0.03,0.85 -0.43,0.54 -0.49,0.48 -0.54,0.42 -0.59,0.34 -0.63,0.27 -0.65,0.19 -0.68,0.11 -0.68,0.03 -0.69,-0.04 -0.67,-0.13 -0.65,-0.21 -0.62,-0.28 -0.58,-0.36 -0.53,-0.42 -0.48,-0.49 -0.41,-0.54 -0.35,-0.59 -0.27,-0.63 -0.19,-0.66 -0.11,-0.67 -0.03,-0.69 0.04,-0.68 0.13,-0.68 0.21,-0.65 0.29,-0.62 0.36,-0.58 0.43,-0.54 0.43,-0.54 L 0.43,-0.54 Z"></path></g><g transform="translate(61.154084158425576 25.275177908414435) rotate(0 0 9.413772431929715)" stroke="none" fill="#ce524a"><path d="M 0.69,0 Q 0.69,0 0.69,0.63 0.69,1.27 0.69,2.02 0.69,2.76 0.69,3.44 0.69,4.12 0.69,4.85 0.69,5.59 0.69,6.30 0.69,7.02 0.69,7.73 0.69,8.44 0.69,9.15 0.69,9.86 0.69,10.57 0.69,11.28 0.69,11.99 0.69,12.70 0.69,13.41 0.69,14.12 0.69,14.83 0.69,15.54 0.69,17.36 0.69,19.18 0.67,19.29 0.65,19.40 0.60,19.50 0.55,19.60 0.47,19.67 0.38,19.75 0.28,19.80 0.18,19.85 0.07,19.86 -0.03,19.87 -0.14,19.85 -0.25,19.82 -0.35,19.76 -0.44,19.71 -0.52,19.62 -0.59,19.54 -0.63,19.43 -0.67,19.33 -0.68,19.21 -0.68,19.10 -0.65,18.99 -0.62,18.89 -0.56,18.79 -0.50,18.70 -0.41,18.63 -0.32,18.57 -0.21,18.53 -0.11,18.49 0.00,18.49 0.11,18.49 0.21,18.53 0.32,18.57 0.41,18.63 0.50,18.70 0.56,18.79 0.62,18.89 0.65,18.99 0.68,19.10 0.68,19.21 0.67,19.33 0.63,19.43 0.59,19.54 0.52,19.62 0.44,19.71 0.35,19.76 0.25,19.82 0.14,19.85 0.03,19.87 -0.07,19.86 -0.18,19.85 -0.28,19.80 -0.38,19.75 -0.47,19.67 -0.55,19.60 -0.60,19.50 -0.65,19.40 -0.67,19.29 -0.69,19.18 -0.69,19.18 -0.69,19.18 -0.69,17.36 -0.69,15.54 -0.69,14.83 -0.69,14.12 -0.69,13.41 -0.69,12.70 -0.69,11.99 -0.69,11.28 -0.69,10.57 -0.69,9.86 -0.69,9.15 -0.69,8.44 -0.69,7.73 -0.69,7.02 -0.69,6.30 -0.69,5.59 -0.69,4.85 -0.69,4.12 -0.69,3.44 -0.69,2.76 -0.69,2.02 -0.69,1.27 -0.69,0.63 -0.69,0 -0.68,-0.08 -0.67,-0.16 -0.64,-0.24 -0.61,-0.32 -0.56,-0.39 -0.51,-0.45 -0.45,-0.51 -0.39,-0.57 -0.31,-0.60 -0.24,-0.64 -0.16,-0.66 -0.08,-0.68 0.00,-0.68 0.08,-0.68 0.16,-0.66 0.24,-0.64 0.31,-0.60 0.39,-0.57 0.45,-0.51 0.51,-0.45 0.56,-0.39 0.61,-0.32 0.64,-0.24 0.67,-0.16 0.68,-0.08 0.69,0.00 0.69,0.00 L 0.69,0 Z"></path></g><g transform="translate(66.12739789604802 24.209467821780436) rotate(0 0 9.946627475246487)" stroke="none" fill="#ce524a"><path d="M 0.69,0 Q 0.69,0 0.69,0.47 0.69,0.95 0.69,1.87 0.69,2.79 0.69,3.53 0.69,4.28 0.69,4.92 0.69,5.57 0.69,6.41 0.69,7.25 0.69,8.01 0.69,8.78 0.69,9.44 0.69,10.10 0.69,10.94 0.69,11.78 0.69,12.59 0.69,13.39 0.69,14.11 0.69,14.83 0.69,15.54 0.69,16.25 0.69,18.25 0.69,20.24 0.67,20.35 0.65,20.46 0.60,20.56 0.55,20.66 0.47,20.74 0.38,20.82 0.28,20.86 0.18,20.91 0.07,20.92 -0.03,20.94 -0.14,20.91 -0.25,20.89 -0.35,20.83 -0.44,20.77 -0.52,20.69 -0.59,20.60 -0.63,20.50 -0.67,20.39 -0.68,20.28 -0.68,20.17 -0.65,20.06 -0.62,19.95 -0.56,19.86 -0.50,19.77 -0.41,19.70 -0.32,19.63 -0.21,19.60 -0.11,19.56 0.00,19.56 0.11,19.56 0.21,19.60 0.32,19.63 0.41,19.70 0.50,19.77 0.56,19.86 0.62,19.95 0.65,20.06 0.68,20.17 0.68,20.28 0.67,20.39 0.63,20.50 0.59,20.60 0.52,20.69 0.44,20.77 0.35,20.83 0.25,20.89 0.14,20.91 0.03,20.94 -0.07,20.92 -0.18,20.91 -0.28,20.86 -0.38,20.82 -0.47,20.74 -0.55,20.66 -0.60,20.56 -0.65,20.46 -0.67,20.35 -0.69,20.24 -0.69,20.24 -0.69,20.24 -0.69,18.25 -0.69,16.25 -0.69,15.54 -0.69,14.83 -0.69,14.11 -0.69,13.39 -0.69,12.59 -0.69,11.78 -0.69,10.94 -0.69,10.10 -0.69,9.44 -0.69,8.78 -0.69,8.01 -0.69,7.25 -0.69,6.41 -0.69,5.57 -0.69,4.92 -0.69,4.28 -0.69,3.53 -0.69,2.79 -0.69,1.87 -0.69,0.95 -0.69,0.47 -0.69,0 -0.68,-0.08 -0.67,-0.16 -0.64,-0.24 -0.61,-0.32 -0.56,-0.39 -0.51,-0.45 -0.45,-0.51 -0.39,-0.57 -0.31,-0.60 -0.24,-0.64 -0.16,-0.66 -0.08,-0.68 0.00,-0.68 0.08,-0.68 0.16,-0.66 0.24,-0.64 0.31,-0.60 0.39,-0.57 0.45,-0.51 0.51,-0.45 0.56,-0.39 0.61,-0.32 0.64,-0.24 0.67,-0.16 0.68,-0.08 0.69,0.00 0.69,0.00 L 0.69,0 Z"></path></g><g transform="translate(61.15408415842194 44.457959467817886) rotate(0 2.3090385210393833 0)" stroke="none" fill="#ce524a"><path d="M 0,-0.69 Q 0,-0.69 0.47,-0.69 0.95,-0.69 2.96,-0.69 4.97,-0.69 5.08,-0.67 5.19,-0.65 5.29,-0.60 5.39,-0.55 5.46,-0.47 5.54,-0.38 5.59,-0.28 5.64,-0.18 5.65,-0.07 5.66,0.03 5.64,0.14 5.61,0.25 5.55,0.35 5.50,0.44 5.41,0.52 5.33,0.59 5.22,0.63 5.12,0.67 5.01,0.68 4.89,0.68 4.79,0.65 4.68,0.62 4.58,0.56 4.49,0.50 4.42,0.41 4.36,0.32 4.32,0.21 4.28,0.11 4.28,-0.00 4.28,-0.11 4.32,-0.21 4.36,-0.32 4.42,-0.41 4.49,-0.50 4.58,-0.56 4.68,-0.62 4.79,-0.65 4.89,-0.68 5.01,-0.68 5.12,-0.67 5.22,-0.63 5.33,-0.59 5.41,-0.52 5.50,-0.44 5.55,-0.35 5.61,-0.25 5.64,-0.14 5.66,-0.03 5.65,0.07 5.64,0.18 5.59,0.28 5.54,0.38 5.46,0.47 5.39,0.55 5.29,0.60 5.19,0.65 5.08,0.67 4.97,0.69 4.97,0.69 4.97,0.69 2.96,0.69 0.95,0.69 0.47,0.69 0,0.69 -0.08,0.68 -0.16,0.67 -0.24,0.64 -0.32,0.61 -0.39,0.56 -0.45,0.51 -0.51,0.45 -0.57,0.39 -0.60,0.31 -0.64,0.24 -0.66,0.16 -0.68,0.08 -0.68,-0.00 -0.68,-0.08 -0.66,-0.16 -0.64,-0.24 -0.60,-0.31 -0.57,-0.39 -0.51,-0.45 -0.45,-0.51 -0.39,-0.56 -0.32,-0.61 -0.24,-0.64 -0.16,-0.67 -0.08,-0.68 0.00,-0.69 0.00,-0.69 L 0,-0.69 Z"></path></g></svg>