<svg version="1.1" xmlns="http://www.w3.org/2000/svg" viewBox="0 0 127.63671874999864 54.457959467817886" width="127.63671874999864" height="54.457959467817886">
  <!-- svg-source:excalidraw -->
  
  <rect x="0" y="0" width="127.63671874999864" height="54.457959467817886" fill="#0000"></rect><g transform="translate(53.33887685644095 10.355236695542885) rotate(0 0 1.4209467821780777)" stroke="none" fill="#ce524a"><path d="M 1.25,0 Q 1.25,0 1.25,1.59 1.25,3.19 1.22,3.39 1.19,3.59 1.09,3.77 1.00,3.95 0.85,4.09 0.70,4.24 0.52,4.32 0.33,4.41 0.13,4.43 -0.06,4.45 -0.26,4.41 -0.46,4.36 -0.64,4.26 -0.81,4.15 -0.94,4.00 -1.07,3.84 -1.15,3.65 -1.23,3.46 -1.24,3.26 -1.25,3.06 -1.19,2.86 -1.14,2.66 -1.02,2.49 -0.91,2.33 -0.75,2.20 -0.59,2.08 -0.39,2.01 -0.20,1.95 0.00,1.95 0.20,1.95 0.39,2.01 0.59,2.08 0.75,2.20 0.91,2.33 1.02,2.49 1.14,2.66 1.19,2.86 1.25,3.06 1.24,3.26 1.23,3.46 1.15,3.65 1.07,3.84 0.94,4.00 0.81,4.15 0.64,4.26 0.46,4.36 0.26,4.41 0.06,4.45 -0.13,4.43 -0.33,4.41 -0.52,4.32 -0.70,4.23 -0.85,4.09 -1.00,3.95 -1.09,3.77 -1.19,3.59 -1.22,3.39 -1.25,3.19 -1.25,3.19 -1.25,3.19 -1.25,1.59 -1.25,0 -1.24,-0.15 -1.22,-0.30 -1.16,-0.44 -1.11,-0.58 -1.02,-0.71 -0.94,-0.83 -0.82,-0.93 -0.71,-1.03 -0.58,-1.10 -0.44,-1.17 -0.29,-1.21 -0.15,-1.25 0.00,-1.25 0.15,-1.25 0.29,-1.21 0.44,-1.17 0.58,-1.10 0.71,-1.03 0.82,-0.93 0.94,-0.83 1.02,-0.71 1.11,-0.58 1.16,-0.44 1.22,-0.30 1.24,-0.15 1.25,0.00 1.25,0.00 L 1.25,0 Z"></path></g><g transform="translate(10 38.35523669554368) rotate(0 12.610902691830375 -23.026686262376757)" stroke="none" fill="#ce524a"><path d="M -0.98,-18.84 Q -0.98,-18.84 -0.66,-19.23 -0.34,-19.63 0.55,-20.50 1.46,-21.36 2.38,-22.13 3.30,-22.89 4.41,-23.62 5.52,-24.35 6.73,-25.06 7.94,-25.76 9.17,-26.39 10.40,-27.03 11.55,-27.50 12.71,-27.97 13.91,-28.24 15.11,-28.51 16.24,-28.80 17.38,-29.08 18.59,-29.16 19.80,-29.25 21.05,-29.25 22.29,-29.25 23.93,-29.25 25.57,-29.25 25.77,-29.22 25.97,-29.19 26.15,-29.09 26.33,-29.00 26.47,-28.85 26.61,-28.70 26.70,-28.52 26.79,-28.33 26.81,-28.13 26.83,-27.93 26.79,-27.73 26.74,-27.53 26.64,-27.35 26.53,-27.18 26.38,-27.05 26.22,-26.92 26.03,-26.84 25.84,-26.76 25.64,-26.75 25.44,-26.74 25.24,-26.80 25.04,-26.85 24.87,-26.97 24.71,-27.08 24.58,-27.24 24.46,-27.40 24.39,-27.60 24.33,-27.79 24.33,-28.00 24.33,-28.20 24.39,-28.39 24.46,-28.59 24.58,-28.75 24.71,-28.91 24.87,-29.02 25.04,-29.14 25.24,-29.19 25.44,-29.25 25.64,-29.24 25.84,-29.23 26.03,-29.15 26.22,-29.07 26.38,-28.94 26.53,-28.81 26.64,-28.64 26.74,-28.46 26.79,-28.26 26.83,-28.06 26.81,-27.86 26.79,-27.66 26.70,-27.47 26.61,-27.29 26.47,-27.14 26.33,-26.99 26.15,-26.90 25.97,-26.80 25.77,-26.77 25.57,-26.74 25.57,-26.74 25.57,-26.74 22.87,-26.73 20.17,-26.73 18.84,-26.58 17.52,-26.43 16.17,-26.29 14.82,-26.14 13.74,-25.69 12.65,-25.25 11.47,-24.83 10.30,-24.42 9.06,-23.61 7.82,-22.80 6.80,-22.22 5.78,-21.64 4.59,-20.80 3.40,-19.96 2.51,-19.01 1.61,-18.05 1.30,-17.66 0.98,-17.26 0.87,-17.15 0.76,-17.05 0.63,-16.97 0.50,-16.89 0.35,-16.85 0.21,-16.81 0.06,-16.80 -0.08,-16.79 -0.23,-16.82 -0.38,-16.85 -0.52,-16.91 -0.66,-16.98 -0.78,-17.07 -0.90,-17.17 -0.99,-17.29 -1.08,-17.41 -1.14,-17.55 -1.20,-17.69 -1.23,-17.84 -1.25,-17.99 -1.24,-18.14 -1.23,-18.29 -1.19,-18.43 -1.14,-18.58 -1.06,-18.71 -0.98,-18.84 -0.98,-18.84 L -0.98,-18.84 Z"></path></g><g transform="translate(34.866568688119514 10.35523669554425) rotate(0 8.880917388612943 0)" stroke="none" fill="#ce524a"><path d="M 0,-1.25 Q 0,-1.25 0.55,-1.25 1.11,-1.25 2.44,-1.25 3.77,-1.25 5.04,-1.25 6.31,-1.25 7.55,-1.25 8.79,-1.25 10.04,-1.25 11.28,-1.25 12.52,-1.25 13.77,-1.25 15.94,-1.25 18.11,-1.25 18.31,-1.22 18.51,-1.19 18.69,-1.09 18.87,-1.00 19.01,-0.85 19.15,-0.70 19.24,-0.52 19.33,-0.33 19.35,-0.13 19.37,0.06 19.33,0.26 19.28,0.46 19.18,0.64 19.07,0.81 18.92,0.94 18.76,1.07 18.57,1.15 18.38,1.23 18.18,1.24 17.98,1.25 17.78,1.19 17.58,1.14 17.41,1.02 17.25,0.91 17.12,0.75 17.00,0.59 16.93,0.39 16.87,0.20 16.87,-0.00 16.87,-0.20 16.93,-0.39 17.00,-0.59 17.12,-0.75 17.25,-0.91 17.41,-1.02 17.58,-1.14 17.78,-1.19 17.98,-1.25 18.18,-1.24 18.38,-1.23 18.57,-1.15 18.76,-1.07 18.92,-0.94 19.07,-0.81 19.18,-0.64 19.28,-0.46 19.33,-0.26 19.37,-0.06 19.35,0.13 19.33,0.33 19.24,0.52 19.15,0.70 19.01,0.85 18.87,1.00 18.69,1.09 18.51,1.19 18.31,1.22 18.11,1.25 18.11,1.25 18.11,1.25 15.94,1.25 13.77,1.25 12.52,1.25 11.28,1.25 10.04,1.25 8.79,1.25 7.55,1.25 6.31,1.25 5.04,1.25 3.77,1.25 2.44,1.25 1.11,1.25 0.55,1.25 0,1.25 -0.15,1.24 -0.30,1.22 -0.44,1.16 -0.58,1.11 -0.71,1.02 -0.83,0.94 -0.93,0.82 -1.03,0.71 -1.10,0.58 -1.17,0.44 -1.21,0.29 -1.25,0.15 -1.25,-0.00 -1.25,-0.15 -1.21,-0.29 -1.17,-0.44 -1.10,-0.58 -1.03,-0.71 -0.93,-0.82 -0.83,-0.94 -0.71,-1.02 -0.58,-1.11 -0.44,-1.16 -0.30,-1.22 -0.15,-1.24 0.00,-1.25 0.00,-1.25 L 0,-1.25 Z"></path></g><g transform="translate(56.536007116334076 10.35523669554425) rotate(0 7.63758895420716 0)" stroke="none" fill="#ce524a"><path d="M 0,-1.25 Q 0,-1.25 0.55,-1.25 1.11,-1.25 2.44,-1.25 3.77,-1.25 5.04,-1.25 6.31,-1.25 7.55,-1.25 8.79,-1.25 10.11,-1.25 11.42,-1.25 13.17,-1.25 14.91,-1.25 15.12,-1.22 15.32,-1.19 15.50,-1.09 15.68,-1.00 15.82,-0.85 15.96,-0.70 16.04,-0.52 16.13,-0.33 16.15,-0.13 16.17,0.06 16.13,0.26 16.09,0.46 15.98,0.64 15.88,0.81 15.72,0.94 15.56,1.07 15.38,1.15 15.19,1.23 14.98,1.24 14.78,1.25 14.58,1.19 14.39,1.14 14.22,1.02 14.05,0.91 13.92,0.75 13.80,0.59 13.74,0.39 13.67,0.20 13.67,-0.00 13.67,-0.20 13.74,-0.39 13.80,-0.59 13.93,-0.75 14.05,-0.91 14.22,-1.02 14.39,-1.14 14.58,-1.19 14.78,-1.25 14.98,-1.24 15.19,-1.23 15.38,-1.15 15.56,-1.07 15.72,-0.94 15.88,-0.81 15.98,-0.64 16.09,-0.46 16.13,-0.26 16.17,-0.06 16.15,0.13 16.13,0.33 16.04,0.52 15.96,0.70 15.82,0.85 15.68,1.00 15.50,1.09 15.32,1.19 15.12,1.22 14.91,1.25 14.91,1.25 14.91,1.25 13.17,1.25 11.42,1.25 10.11,1.25 8.79,1.25 7.55,1.25 6.31,1.25 5.04,1.25 3.77,1.25 2.44,1.25 1.11,1.25 0.55,1.25 0,1.25 -0.15,1.24 -0.30,1.22 -0.44,1.16 -0.58,1.11 -0.71,1.02 -0.83,0.94 -0.93,0.82 -1.03,0.71 -1.10,0.58 -1.17,0.44 -1.21,0.29 -1.25,0.15 -1.25,-0.00 -1.25,-0.15 -1.21,-0.29 -1.17,-0.44 -1.10,-0.58 -1.03,-0.71 -0.93,-0.82 -0.83,-0.94 -0.71,-1.02 -0.58,-1.11 -0.44,-1.16 -0.30,-1.22 -0.15,-1.24 0.00,-1.25 0.00,-1.25 L 0,-1.25 Z"></path></g><g transform="translate(56.53600711633135 10.355236695543681) rotate(0 0 1.7761834777226113)" stroke="none" fill="#ce524a"><path d="M 1.25,0 Q 1.25,0 1.25,1.95 1.25,3.90 1.22,4.10 1.19,4.30 1.09,4.49 1.00,4.67 0.85,4.81 0.70,4.95 0.52,5.03 0.33,5.12 0.13,5.14 -0.06,5.16 -0.26,5.12 -0.46,5.07 -0.64,4.97 -0.81,4.86 -0.94,4.71 -1.07,4.55 -1.15,4.36 -1.23,4.17 -1.24,3.97 -1.25,3.77 -1.19,3.57 -1.14,3.37 -1.02,3.20 -0.91,3.04 -0.75,2.91 -0.59,2.79 -0.39,2.72 -0.20,2.66 0.00,2.66 0.20,2.66 0.39,2.72 0.59,2.79 0.75,2.91 0.91,3.04 1.02,3.21 1.14,3.37 1.19,3.57 1.25,3.77 1.24,3.97 1.23,4.17 1.15,4.36 1.07,4.55 0.94,4.71 0.81,4.86 0.64,4.97 0.46,5.07 0.26,5.12 0.06,5.16 -0.13,5.14 -0.33,5.12 -0.52,5.03 -0.70,4.95 -0.85,4.81 -1.00,4.66 -1.09,4.48 -1.19,4.30 -1.22,4.10 -1.25,3.90 -1.25,3.90 -1.25,3.90 -1.25,1.95 -1.25,0 -1.24,-0.15 -1.22,-0.30 -1.16,-0.44 -1.11,-0.58 -1.02,-0.71 -0.94,-0.83 -0.82,-0.93 -0.71,-1.03 -0.58,-1.10 -0.44,-1.17 -0.29,-1.21 -0.15,-1.25 0.00,-1.25 0.15,-1.25 0.29,-1.21 0.44,-1.17 0.58,-1.10 0.71,-1.03 0.82,-0.93 0.94,-0.83 1.02,-0.71 1.11,-0.58 1.16,-0.44 1.22,-0.30 1.24,-0.15 1.25,0.00 1.25,0.00 L 1.25,0 Z"></path></g><g transform="translate(56.53600711634772 14.907603650989358) rotate(0 7.815207301979399 -0.8223816522277616)" stroke="none" fill="#ce524a"><path d="M -0.17,-1.89 Q -0.17,-1.89 0.37,-1.97 0.93,-2.05 2.13,-2.14 3.33,-2.24 4.64,-2.25 5.95,-2.25 7.19,-2.25 8.44,-2.25 9.68,-2.25 10.92,-2.25 13.10,-2.25 15.27,-2.26 15.47,-2.22 15.67,-2.19 15.85,-2.09 16.03,-2.00 16.17,-1.85 16.31,-1.70 16.40,-1.52 16.48,-1.33 16.51,-1.13 16.53,-0.93 16.48,-0.73 16.44,-0.53 16.34,-0.35 16.23,-0.18 16.08,-0.05 15.92,0.07 15.73,0.15 15.54,0.23 15.34,0.24 15.13,0.25 14.94,0.19 14.74,0.14 14.57,0.02 14.40,-0.08 14.28,-0.24 14.16,-0.40 14.09,-0.60 14.03,-0.79 14.03,-1.00 14.03,-1.20 14.09,-1.39 14.16,-1.59 14.28,-1.75 14.40,-1.91 14.57,-2.02 14.74,-2.14 14.94,-2.19 15.13,-2.25 15.34,-2.24 15.54,-2.23 15.73,-2.15 15.92,-2.07 16.08,-1.94 16.23,-1.81 16.34,-1.64 16.44,-1.46 16.48,-1.26 16.53,-1.06 16.51,-0.86 16.48,-0.66 16.40,-0.47 16.31,-0.29 16.17,-0.14 16.03,0.00 15.85,0.09 15.67,0.19 15.47,0.22 15.27,0.25 15.27,0.25 15.27,0.25 13.27,0.26 11.28,0.26 10.04,0.26 8.79,0.26 7.55,0.26 6.31,0.26 5.05,0.26 3.80,0.26 2.54,0.35 1.29,0.44 0.73,0.52 0.17,0.60 0.02,0.60 -0.12,0.60 -0.27,0.57 -0.42,0.54 -0.55,0.47 -0.69,0.40 -0.80,0.30 -0.92,0.21 -1.01,0.08 -1.10,-0.03 -1.15,-0.17 -1.21,-0.31 -1.23,-0.46 -1.25,-0.61 -1.24,-0.76 -1.22,-0.92 -1.17,-1.06 -1.12,-1.20 -1.04,-1.33 -0.96,-1.46 -0.84,-1.56 -0.73,-1.66 -0.60,-1.73 -0.47,-1.81 -0.32,-1.85 -0.17,-1.89 -0.17,-1.89 L -0.17,-1.89 Z"></path></g><g transform="translate(71.45594832920597 10.355236695542885) rotate(0 0 1.4209467821780777)" stroke="none" fill="#ce524a"><path d="M 1.25,0 Q 1.25,0 1.25,1.59 1.25,3.19 1.22,3.39 1.19,3.59 1.09,3.77 1.00,3.95 0.85,4.09 0.70,4.24 0.52,4.32 0.33,4.41 0.13,4.43 -0.06,4.45 -0.26,4.41 -0.46,4.36 -0.64,4.26 -0.81,4.15 -0.94,4.00 -1.07,3.84 -1.15,3.65 -1.23,3.46 -1.24,3.26 -1.25,3.06 -1.19,2.86 -1.14,2.66 -1.02,2.49 -0.91,2.33 -0.75,2.20 -0.59,2.08 -0.39,2.01 -0.20,1.95 0.00,1.95 0.20,1.95 0.39,2.01 0.59,2.08 0.75,2.20 0.91,2.33 1.02,2.49 1.14,2.66 1.19,2.86 1.25,3.06 1.24,3.26 1.23,3.46 1.15,3.65 1.07,3.84 0.94,4.00 0.81,4.15 0.64,4.26 0.46,4.36 0.26,4.41 0.06,4.45 -0.13,4.43 -0.33,4.41 -0.52,4.32 -0.70,4.23 -0.85,4.09 -1.00,3.95 -1.09,3.77 -1.19,3.59 -1.22,3.39 -1.25,3.19 -1.25,3.19 -1.25,3.19 -1.25,1.59 -1.25,0 -1.24,-0.15 -1.22,-0.30 -1.16,-0.44 -1.11,-0.58 -1.02,-0.71 -0.94,-0.83 -0.82,-0.93 -0.71,-1.03 -0.58,-1.10 -0.44,-1.17 -0.29,-1.21 -0.15,-1.25 0.00,-1.25 0.15,-1.25 0.29,-1.21 0.44,-1.17 0.58,-1.10 0.71,-1.03 0.82,-0.93 0.94,-0.83 1.02,-0.71 1.11,-0.58 1.16,-0.44 1.22,-0.30 1.24,-0.15 1.25,0.00 1.25,0.00 L 1.25,0 Z"></path></g><g transform="translate(56.53600711633044 19.23615408415833) rotate(0 7.282352258662627 0)" stroke="none" fill="#ce524a"><path d="M 0,-1.25 Q 0,-1.25 0.63,-1.25 1.27,-1.25 2.65,-1.25 4.04,-1.25 5.35,-1.25 6.66,-1.25 8.03,-1.25 9.39,-1.25 12.15,-1.25 14.91,-1.25 15.12,-1.22 15.32,-1.19 15.50,-1.09 15.68,-1.00 15.82,-0.85 15.96,-0.70 16.04,-0.52 16.13,-0.33 16.15,-0.13 16.17,0.06 16.13,0.26 16.09,0.46 15.98,0.64 15.88,0.81 15.72,0.94 15.56,1.07 15.38,1.15 15.19,1.23 14.98,1.24 14.78,1.25 14.58,1.19 14.39,1.14 14.22,1.02 14.05,0.91 13.92,0.75 13.80,0.59 13.74,0.39 13.67,0.20 13.67,-0.00 13.67,-0.20 13.74,-0.39 13.80,-0.59 13.93,-0.75 14.05,-0.91 14.22,-1.02 14.39,-1.14 14.58,-1.19 14.78,-1.25 14.98,-1.24 15.19,-1.23 15.38,-1.15 15.56,-1.07 15.72,-0.94 15.88,-0.81 15.98,-0.64 16.09,-0.46 16.13,-0.26 16.17,-0.06 16.15,0.13 16.13,0.33 16.04,0.52 15.96,0.70 15.82,0.85 15.68,1.00 15.50,1.09 15.32,1.19 15.12,1.22 14.91,1.25 14.91,1.25 14.91,1.25 12.15,1.25 9.39,1.25 8.03,1.25 6.66,1.25 5.35,1.25 4.04,1.25 2.65,1.25 1.27,1.25 0.63,1.25 0,1.25 -0.15,1.24 -0.30,1.22 -0.44,1.16 -0.58,1.11 -0.71,1.02 -0.83,0.94 -0.93,0.82 -1.03,0.71 -1.10,0.58 -1.17,0.44 -1.21,0.29 -1.25,0.15 -1.25,-0.00 -1.25,-0.15 -1.21,-0.29 -1.17,-0.44 -1.10,-0.58 -1.03,-0.71 -0.93,-0.82 -0.83,-0.94 -0.71,-1.02 -0.58,-1.11 -0.44,-1.16 -0.30,-1.22 -0.15,-1.24 0.00,-1.25 0.00,-1.25 L 0,-1.25 Z"></path></g><g transform="translate(56.18077042079767 19.236154084157874) rotate(0 0 1.9538018254948497)" stroke="none" fill="#ce524a"><path d="M 1.25,0 Q 1.25,0 1.25,0.55 1.25,1.11 1.25,2.68 1.25,4.26 1.22,4.46 1.19,4.66 1.09,4.84 1.00,5.02 0.85,5.16 0.70,5.30 0.52,5.39 0.33,5.47 0.13,5.49 -0.06,5.52 -0.26,5.47 -0.46,5.43 -0.64,5.32 -0.81,5.22 -0.94,5.06 -1.07,4.91 -1.15,4.72 -1.23,4.53 -1.24,4.33 -1.25,4.12 -1.19,3.93 -1.14,3.73 -1.02,3.56 -0.91,3.39 -0.75,3.27 -0.59,3.14 -0.39,3.08 -0.20,3.01 0.00,3.01 0.20,3.01 0.39,3.08 0.59,3.14 0.75,3.27 0.91,3.39 1.02,3.56 1.14,3.73 1.19,3.93 1.25,4.12 1.24,4.33 1.23,4.53 1.15,4.72 1.07,4.91 0.94,5.06 0.81,5.22 0.64,5.32 0.46,5.43 0.26,5.47 0.06,5.52 -0.13,5.49 -0.33,5.47 -0.52,5.39 -0.70,5.30 -0.85,5.16 -1.00,5.02 -1.09,4.84 -1.19,4.66 -1.22,4.46 -1.25,4.26 -1.25,4.26 -1.25,4.26 -1.25,2.68 -1.25,1.11 -1.25,0.55 -1.25,0 -1.24,-0.15 -1.22,-0.30 -1.16,-0.44 -1.11,-0.58 -1.02,-0.71 -0.94,-0.83 -0.82,-0.93 -0.71,-1.03 -0.58,-1.10 -0.44,-1.17 -0.29,-1.21 -0.15,-1.25 0.00,-1.25 0.15,-1.25 0.29,-1.21 0.44,-1.17 0.58,-1.10 0.71,-1.03 0.82,-0.93 0.94,-0.83 1.02,-0.71 1.11,-0.58 1.16,-0.44 1.22,-0.30 1.24,-0.15 1.25,0.00 1.25,0.00 L 1.25,0 Z"></path></g><g transform="translate(56.18077042079494 23.854231126235163) rotate(0 7.63758895420716 0.1776183477722384)" stroke="none" fill="#ce524a"><path d="M 0.17,-1.24 Q 0.17,-1.24 0.73,-1.16 1.29,-1.08 2.54,-1.00 3.80,-0.91 5.05,-0.90 6.31,-0.90 7.55,-0.90 8.79,-0.90 10.04,-0.90 11.28,-0.90 13.45,-0.90 15.63,-0.90 15.83,-0.87 16.03,-0.83 16.21,-0.74 16.39,-0.64 16.53,-0.49 16.67,-0.35 16.75,-0.16 16.84,0.01 16.86,0.22 16.88,0.42 16.84,0.62 16.80,0.82 16.69,0.99 16.59,1.17 16.43,1.30 16.27,1.43 16.09,1.51 15.90,1.58 15.69,1.59 15.49,1.60 15.29,1.55 15.10,1.49 14.93,1.38 14.76,1.26 14.64,1.10 14.51,0.94 14.45,0.75 14.38,0.55 14.38,0.35 14.38,0.15 14.45,-0.04 14.51,-0.23 14.64,-0.39 14.76,-0.55 14.93,-0.67 15.10,-0.78 15.29,-0.84 15.49,-0.89 15.69,-0.88 15.90,-0.87 16.09,-0.79 16.28,-0.72 16.43,-0.59 16.59,-0.46 16.69,-0.28 16.80,-0.11 16.84,0.08 16.88,0.28 16.86,0.48 16.84,0.69 16.75,0.87 16.67,1.06 16.53,1.21 16.39,1.35 16.21,1.45 16.03,1.54 15.83,1.58 15.63,1.61 15.63,1.61 15.63,1.61 13.27,1.61 10.92,1.61 9.68,1.61 8.44,1.61 7.19,1.61 5.95,1.61 4.64,1.60 3.33,1.59 2.13,1.50 0.93,1.40 0.37,1.32 -0.17,1.24 -0.32,1.20 -0.47,1.16 -0.60,1.09 -0.73,1.02 -0.84,0.91 -0.96,0.81 -1.04,0.68 -1.12,0.56 -1.17,0.41 -1.22,0.27 -1.24,0.12 -1.25,-0.02 -1.23,-0.17 -1.21,-0.32 -1.15,-0.46 -1.10,-0.60 -1.01,-0.73 -0.92,-0.85 -0.80,-0.95 -0.69,-1.05 -0.55,-1.11 -0.42,-1.18 -0.27,-1.22 -0.12,-1.25 0.02,-1.25 0.17,-1.24 0.17,-1.24 L 0.17,-1.24 Z"></path></g><g transform="translate(71.81118502475238 19.23615408415651) rotate(0 0 2.3090385210393833)" stroke="none" fill="#ce524a"><path d="M 1.25,0 Q 1.25,0 1.25,0.55 1.25,1.11 1.25,3.04 1.25,4.97 1.22,5.17 1.19,5.37 1.09,5.55 1.00,5.73 0.85,5.87 0.70,6.01 0.52,6.10 0.33,6.18 0.13,6.20 -0.06,6.23 -0.26,6.18 -0.46,6.14 -0.64,6.03 -0.81,5.93 -0.94,5.77 -1.07,5.62 -1.15,5.43 -1.23,5.24 -1.24,5.04 -1.25,4.83 -1.19,4.64 -1.14,4.44 -1.02,4.27 -0.91,4.10 -0.75,3.98 -0.59,3.86 -0.39,3.79 -0.20,3.72 0.00,3.72 0.20,3.72 0.39,3.79 0.59,3.86 0.75,3.98 0.91,4.10 1.02,4.27 1.14,4.44 1.19,4.64 1.25,4.83 1.24,5.04 1.23,5.24 1.15,5.43 1.07,5.62 0.94,5.77 0.81,5.93 0.64,6.03 0.46,6.14 0.26,6.18 0.06,6.23 -0.13,6.20 -0.33,6.18 -0.52,6.10 -0.70,6.01 -0.85,5.87 -1.00,5.73 -1.09,5.55 -1.19,5.37 -1.22,5.17 -1.25,4.97 -1.25,4.97 -1.25,4.97 -1.25,3.04 -1.25,1.11 -1.25,0.55 -1.25,0 -1.24,-0.15 -1.22,-0.30 -1.16,-0.44 -1.11,-0.58 -1.02,-0.71 -0.94,-0.83 -0.82,-0.93 -0.71,-1.03 -0.58,-1.10 -0.44,-1.17 -0.29,-1.21 -0.15,-1.25 0.00,-1.25 0.15,-1.25 0.29,-1.21 0.44,-1.17 0.58,-1.10 0.71,-1.03 0.82,-0.93 0.94,-0.83 1.02,-0.71 1.11,-0.58 1.16,-0.44 1.22,-0.30 1.24,-0.15 1.25,0.00 1.25,0.00 L 1.25,0 Z"></path></g><g transform="translate(73.94260519802356 10.355236695543681) rotate(0 0 1.598565129950316)" stroke="none" fill="#ce524a"><path d="M 1.25,0 Q 1.25,0 1.25,1.77 1.25,3.55 1.22,3.75 1.19,3.95 1.09,4.13 1.00,4.31 0.85,4.45 0.70,4.59 0.52,4.68 0.33,4.76 0.13,4.78 -0.06,4.81 -0.26,4.76 -0.46,4.72 -0.64,4.61 -0.81,4.51 -0.94,4.35 -1.07,4.20 -1.15,4.01 -1.23,3.82 -1.24,3.61 -1.25,3.41 -1.19,3.21 -1.14,3.02 -1.02,2.85 -0.91,2.68 -0.75,2.56 -0.59,2.43 -0.39,2.37 -0.20,2.30 0.00,2.30 0.20,2.30 0.39,2.37 0.59,2.43 0.75,2.56 0.91,2.68 1.02,2.85 1.14,3.02 1.19,3.21 1.25,3.41 1.24,3.61 1.23,3.82 1.15,4.01 1.07,4.20 0.94,4.35 0.81,4.51 0.64,4.61 0.46,4.72 0.26,4.76 0.06,4.81 -0.13,4.78 -0.33,4.76 -0.52,4.68 -0.70,4.59 -0.85,4.45 -1.00,4.31 -1.09,4.13 -1.19,3.95 -1.22,3.75 -1.25,3.55 -1.25,3.55 -1.25,3.55 -1.25,1.77 -1.25,0 -1.24,-0.15 -1.22,-0.30 -1.16,-0.44 -1.11,-0.58 -1.02,-0.71 -0.94,-0.83 -0.82,-0.93 -0.71,-1.03 -0.58,-1.10 -0.44,-1.17 -0.29,-1.21 -0.15,-1.25 0.00,-1.25 0.15,-1.25 0.29,-1.21 0.44,-1.17 0.58,-1.10 0.71,-1.03 0.82,-0.93 0.94,-0.83 1.02,-0.71 1.11,-0.58 1.16,-0.44 1.22,-0.30 1.24,-0.15 1.25,0.00 1.25,0.00 L 1.25,0 Z"></path></g><g transform="translate(73.9426051980181 11) rotate(0 11.900429300741337 -0.8223816522277616)" stroke="none" fill="#ce524a"><path d="M 0,-1.90 Q 0,-1.90 0.55,-1.90 1.11,-1.90 2.44,-1.90 3.77,-1.90 4.99,-2.06 6.21,-2.22 7.50,-2.24 8.79,-2.25 10.04,-2.25 11.28,-2.25 12.52,-2.25 13.77,-2.25 15.01,-2.25 16.25,-2.25 17.50,-2.25 18.74,-2.25 19.98,-2.25 21.23,-2.25 22.79,-2.07 24.35,-1.88 24.54,-1.82 24.74,-1.76 24.90,-1.63 25.06,-1.51 25.18,-1.34 25.29,-1.18 25.35,-0.98 25.40,-0.78 25.39,-0.58 25.38,-0.38 25.31,-0.19 25.23,-0.00 25.10,0.15 24.97,0.31 24.80,0.41 24.62,0.52 24.43,0.56 24.23,0.61 24.02,0.59 23.82,0.57 23.64,0.48 23.45,0.40 23.30,0.26 23.15,0.12 23.06,-0.05 22.96,-0.23 22.93,-0.43 22.89,-0.63 22.92,-0.83 22.95,-1.04 23.05,-1.22 23.14,-1.40 23.29,-1.54 23.44,-1.68 23.62,-1.77 23.81,-1.85 24.01,-1.88 24.21,-1.90 24.41,-1.86 24.61,-1.81 24.79,-1.71 24.96,-1.60 25.09,-1.45 25.23,-1.30 25.30,-1.11 25.38,-0.92 25.39,-0.71 25.40,-0.51 25.35,-0.31 25.30,-0.12 25.18,0.04 25.07,0.21 24.91,0.34 24.75,0.46 24.55,0.53 24.36,0.59 24.16,0.59 23.95,0.59 23.95,0.59 23.95,0.59 22.59,0.42 21.23,0.26 19.98,0.26 18.74,0.26 17.50,0.26 16.25,0.26 15.01,0.26 13.77,0.26 12.52,0.26 11.28,0.26 10.04,0.26 8.79,0.26 7.46,0.28 6.12,0.30 4.95,0.46 3.77,0.61 2.44,0.61 1.11,0.61 0.55,0.61 0,0.61 -0.15,0.59 -0.30,0.57 -0.44,0.52 -0.58,0.47 -0.71,0.38 -0.83,0.29 -0.93,0.18 -1.03,0.07 -1.10,-0.06 -1.17,-0.19 -1.21,-0.34 -1.25,-0.49 -1.25,-0.64 -1.25,-0.79 -1.21,-0.94 -1.17,-1.09 -1.10,-1.22 -1.03,-1.36 -0.93,-1.47 -0.83,-1.58 -0.71,-1.67 -0.58,-1.76 -0.44,-1.81 -0.30,-1.86 -0.15,-1.88 0.00,-1.90 0.00,-1.90 L 0,-1.90 Z"></path></g><g transform="translate(74.29784189356997 17.815207301979285) rotate(0 0 2.131420173267088)" stroke="none" fill="#ce524a"><path d="M 1.25,0 Q 1.25,0 1.25,0.55 1.25,1.11 1.25,2.86 1.25,4.61 1.22,4.81 1.19,5.02 1.09,5.20 1.00,5.38 0.85,5.52 0.70,5.66 0.52,5.74 0.33,5.83 0.13,5.85 -0.06,5.87 -0.26,5.83 -0.46,5.78 -0.64,5.68 -0.81,5.57 -0.94,5.42 -1.07,5.26 -1.15,5.07 -1.23,4.88 -1.24,4.68 -1.25,4.48 -1.19,4.28 -1.14,4.08 -1.02,3.92 -0.91,3.75 -0.75,3.62 -0.59,3.50 -0.39,3.43 -0.20,3.37 0.00,3.37 0.20,3.37 0.39,3.43 0.59,3.50 0.75,3.62 0.91,3.75 1.02,3.92 1.14,4.08 1.19,4.28 1.25,4.48 1.24,4.68 1.23,4.88 1.15,5.07 1.07,5.26 0.94,5.42 0.81,5.57 0.64,5.68 0.46,5.78 0.26,5.83 0.06,5.87 -0.13,5.85 -0.33,5.83 -0.52,5.74 -0.70,5.66 -0.85,5.52 -1.00,5.38 -1.09,5.20 -1.19,5.02 -1.22,4.81 -1.25,4.61 -1.25,4.61 -1.25,4.61 -1.25,2.86 -1.25,1.11 -1.25,0.55 -1.25,0 -1.24,-0.15 -1.22,-0.30 -1.16,-0.44 -1.11,-0.58 -1.02,-0.71 -0.94,-0.83 -0.82,-0.93 -0.71,-1.03 -0.58,-1.10 -0.44,-1.17 -0.29,-1.21 -0.15,-1.25 0.00,-1.25 0.15,-1.25 0.29,-1.21 0.44,-1.17 0.58,-1.10 0.71,-1.03 0.82,-0.93 0.94,-0.83 1.02,-0.71 1.11,-0.58 1.16,-0.44 1.22,-0.30 1.24,-0.15 1.25,0.00 1.25,0.00 L 1.25,0 Z"></path></g><g transform="translate(74.29784189356997 22.07804764851312) rotate(0 0 0.35523669554453363)" stroke="none" fill="#ce524a"><path d="M 1.25,1.06 Q 1.25,1.06 1.22,1.26 1.19,1.46 1.09,1.64 1.00,1.82 0.85,1.96 0.70,2.10 0.52,2.19 0.33,2.27 0.13,2.30 -0.06,2.32 -0.26,2.28 -0.46,2.23 -0.64,2.13 -0.81,2.02 -0.94,1.87 -1.07,1.71 -1.15,1.52 -1.23,1.33 -1.24,1.13 -1.25,0.92 -1.19,0.73 -1.14,0.53 -1.02,0.36 -0.91,0.19 -0.75,0.07 -0.59,-0.04 -0.39,-0.11 -0.20,-0.17 0.00,-0.17 0.20,-0.17 0.39,-0.11 0.59,-0.04 0.75,0.07 0.91,0.19 1.02,0.36 1.14,0.53 1.19,0.73 1.25,0.92 1.24,1.13 1.23,1.33 1.15,1.52 1.07,1.71 0.94,1.87 0.81,2.02 0.64,2.13 0.46,2.23 0.26,2.28 0.06,2.32 -0.13,2.30 -0.33,2.27 -0.52,2.19 -0.70,2.10 -0.85,1.96 -1.00,1.82 -1.09,1.64 -1.19,1.46 -1.22,1.26 -1.25,1.06 -1.25,1.06 -1.25,1.06 -1.36,0.89 -1.47,0.73 -1.54,0.54 -1.61,0.35 -1.63,0.16 -1.64,-0.03 -1.62,-0.23 -1.59,-0.43 -1.51,-0.61 -1.44,-0.80 -1.32,-0.96 -1.20,-1.12 -1.05,-1.25 -0.90,-1.37 -0.72,-1.46 -0.54,-1.55 -0.35,-1.59 -0.16,-1.64 0.03,-1.63 0.23,-1.63 0.42,-1.58 0.62,-1.52 0.79,-1.43 0.96,-1.33 1.11,-1.20 1.26,-1.06 1.26,0.00 L 1.25,1.06 Z"></path></g><g transform="translate(74.65307858910637 38.61807704207877) rotate(0 11.722810952969098 -19.737159653465767)" stroke="none" fill="#ce524a"><path d="M -0.69,-16.52 Q -0.69,-16.52 -0.22,-16.84 0.25,-17.15 1.39,-17.98 2.52,-18.81 3.62,-19.75 4.72,-20.68 6.01,-21.43 7.31,-22.18 8.42,-22.58 9.53,-22.97 10.85,-23.53 12.16,-24.09 13.30,-24.42 14.44,-24.74 15.60,-24.96 16.76,-25.18 18.10,-25.21 19.45,-25.25 21.62,-25.25 23.80,-25.25 24.00,-25.22 24.20,-25.19 24.38,-25.09 24.56,-25.00 24.70,-24.85 24.84,-24.70 24.92,-24.52 25.01,-24.33 25.03,-24.13 25.05,-23.93 25.01,-23.73 24.97,-23.53 24.86,-23.35 24.76,-23.18 24.60,-23.05 24.45,-22.92 24.26,-22.84 24.07,-22.76 23.86,-22.75 23.66,-22.74 23.46,-22.80 23.27,-22.85 23.10,-22.97 22.93,-23.08 22.81,-23.24 22.68,-23.40 22.62,-23.60 22.55,-23.79 22.55,-24.00 22.55,-24.20 22.62,-24.39 22.68,-24.59 22.81,-24.75 22.93,-24.91 23.10,-25.02 23.27,-25.14 23.46,-25.19 23.66,-25.25 23.86,-25.24 24.07,-25.23 24.26,-25.15 24.45,-25.07 24.60,-24.94 24.76,-24.81 24.86,-24.64 24.97,-24.46 25.01,-24.26 25.05,-24.06 25.03,-23.86 25.01,-23.66 24.92,-23.47 24.84,-23.29 24.70,-23.14 24.56,-22.99 24.38,-22.90 24.20,-22.80 24.00,-22.77 23.80,-22.74 23.80,-22.74 23.80,-22.74 21.45,-22.73 19.10,-22.73 17.88,-22.67 16.66,-22.62 15.15,-22.28 13.64,-21.94 12.28,-21.51 10.92,-21.07 9.49,-20.44 8.06,-19.81 6.87,-19.12 5.68,-18.42 4.75,-17.59 3.81,-16.75 2.73,-15.91 1.65,-15.06 1.17,-14.74 0.69,-14.42 0.56,-14.35 0.42,-14.28 0.27,-14.25 0.13,-14.22 -0.02,-14.22 -0.17,-14.22 -0.31,-14.26 -0.46,-14.30 -0.59,-14.37 -0.73,-14.44 -0.84,-14.55 -0.95,-14.65 -1.04,-14.78 -1.12,-14.90 -1.17,-15.04 -1.22,-15.19 -1.24,-15.34 -1.25,-15.49 -1.23,-15.64 -1.21,-15.79 -1.16,-15.93 -1.10,-16.07 -1.01,-16.20 -0.92,-16.32 -0.81,-16.42 -0.69,-16.52 -0.69,-16.52 L -0.69,-16.52 Z"></path></g><g transform="translate(98.45393719058757 14.618077042078312) rotate(0 8.170443997523932 3.729985303217461)" stroke="none" fill="#ce524a"><path d="M 0.20,-1.24 Q 0.20,-1.24 0.68,-1.16 1.16,-1.08 2.37,-0.81 3.58,-0.54 4.76,-0.13 5.94,0.27 7.36,0.80 8.78,1.33 9.88,1.88 10.98,2.42 12.20,3.21 13.43,4.00 15.42,5.57 17.41,7.15 17.48,7.33 17.56,7.52 17.58,7.73 17.59,7.93 17.54,8.13 17.49,8.32 17.37,8.49 17.26,8.66 17.10,8.79 16.94,8.92 16.75,8.98 16.56,9.05 16.35,9.05 16.15,9.06 15.95,8.99 15.76,8.93 15.60,8.81 15.43,8.69 15.32,8.52 15.20,8.35 15.14,8.16 15.09,7.96 15.09,7.76 15.10,7.56 15.17,7.37 15.25,7.18 15.38,7.02 15.51,6.86 15.68,6.75 15.85,6.65 16.05,6.60 16.25,6.55 16.45,6.57 16.66,6.59 16.84,6.67 17.03,6.76 17.18,6.90 17.33,7.03 17.43,7.21 17.52,7.39 17.56,7.59 17.60,7.79 17.57,8.00 17.54,8.20 17.44,8.38 17.35,8.56 17.20,8.70 17.06,8.84 16.87,8.93 16.69,9.02 16.49,9.04 16.28,9.07 16.08,9.03 15.88,8.99 15.71,8.88 15.53,8.78 15.40,8.63 15.26,8.47 15.26,8.47 15.27,8.47 13.95,7.41 12.63,6.35 11.53,5.61 10.43,4.87 9.34,4.25 8.24,3.64 6.97,3.10 5.70,2.56 4.50,2.22 3.30,1.88 2.02,1.64 0.74,1.40 0.26,1.32 -0.20,1.24 -0.35,1.20 -0.49,1.15 -0.62,1.08 -0.76,1.00 -0.87,0.89 -0.97,0.79 -1.05,0.66 -1.14,0.53 -1.18,0.39 -1.23,0.24 -1.24,0.09 -1.25,-0.05 -1.23,-0.20 -1.20,-0.35 -1.14,-0.49 -1.08,-0.63 -0.99,-0.75 -0.90,-0.87 -0.78,-0.97 -0.66,-1.06 -0.53,-1.13 -0.39,-1.19 -0.24,-1.22 -0.09,-1.25 0.05,-1.24 0.20,-1.24 0.20,-1.24 L 0.20,-1.24 Z"></path></g><g transform="translate(115.15006188118696 26.65710086633476) rotate(0 1.2433284344058393 -4.934289913366456)" stroke="none" fill="#ce524a"><path d="M -0.78,-4.85 Q -0.78,-4.85 0.71,-5.97 2.22,-7.09 2.41,-7.16 2.60,-7.23 2.80,-7.24 3.01,-7.24 3.20,-7.18 3.40,-7.12 3.56,-7.00 3.73,-6.88 3.85,-6.72 3.97,-6.55 4.03,-6.36 4.09,-6.16 4.08,-5.96 4.07,-5.76 4.00,-5.56 3.93,-5.37 3.81,-5.21 3.68,-5.06 3.51,-4.95 3.33,-4.84 3.14,-4.79 2.94,-4.74 2.73,-4.76 2.53,-4.77 2.34,-4.85 2.16,-4.93 2.01,-5.07 1.85,-5.21 1.75,-5.38 1.65,-5.56 1.62,-5.76 1.58,-5.96 1.61,-6.16 1.63,-6.37 1.72,-6.55 1.81,-6.73 1.96,-6.88 2.10,-7.02 2.29,-7.11 2.47,-7.20 2.67,-7.23 2.87,-7.25 3.07,-7.22 3.27,-7.18 3.45,-7.08 3.63,-6.98 3.76,-6.82 3.90,-6.67 3.98,-6.48 4.06,-6.30 4.08,-6.09 4.09,-5.89 4.04,-5.69 3.99,-5.50 3.88,-5.32 3.77,-5.15 3.61,-5.02 3.46,-4.90 3.46,-4.90 3.46,-4.90 2.12,-3.89 0.78,-2.88 0.65,-2.80 0.52,-2.72 0.38,-2.67 0.23,-2.63 0.08,-2.62 -0.06,-2.61 -0.21,-2.63 -0.36,-2.66 -0.50,-2.72 -0.64,-2.78 -0.76,-2.87 -0.88,-2.96 -0.97,-3.08 -1.07,-3.20 -1.13,-3.34 -1.19,-3.48 -1.22,-3.63 -1.25,-3.77 -1.24,-3.93 -1.24,-4.08 -1.19,-4.22 -1.15,-4.37 -1.07,-4.50 -0.99,-4.63 -0.89,-4.74 -0.78,-4.85 -0.78,-4.85 L -0.78,-4.85 Z"></path></g><g transform="translate(97.03299040841921 10.355236695544022) rotate(0 6.216642172029083 1.9538018254948497)" stroke="none" fill="#ce524a"><path d="M 0.20,-1.24 Q 0.20,-1.24 0.68,-1.16 1.16,-1.08 2.47,-0.88 3.78,-0.68 5.01,-0.43 6.24,-0.18 7.63,0.29 9.03,0.78 11.17,1.77 13.30,2.75 13.47,2.87 13.64,2.98 13.77,3.14 13.89,3.30 13.96,3.50 14.03,3.69 14.03,3.89 14.03,4.10 13.96,4.29 13.90,4.48 13.78,4.65 13.66,4.81 13.49,4.93 13.32,5.04 13.13,5.10 12.93,5.15 12.73,5.14 12.52,5.14 12.33,5.06 12.14,4.99 11.99,4.86 11.83,4.73 11.72,4.55 11.62,4.38 11.57,4.18 11.53,3.98 11.55,3.78 11.57,3.58 11.65,3.39 11.74,3.20 11.87,3.05 12.01,2.91 12.19,2.81 12.37,2.71 12.57,2.68 12.77,2.64 12.98,2.67 13.18,2.71 13.36,2.80 13.54,2.89 13.68,3.04 13.82,3.19 13.91,3.37 13.99,3.56 14.02,3.76 14.04,3.96 14.00,4.16 13.96,4.36 13.85,4.54 13.75,4.71 13.60,4.84 13.44,4.98 13.25,5.05 13.06,5.13 12.86,5.14 12.66,5.16 12.46,5.10 12.26,5.05 12.26,5.05 12.26,5.05 10.35,4.13 8.43,3.20 7.19,2.83 5.96,2.46 4.83,2.15 3.70,1.83 2.22,1.61 0.74,1.40 0.26,1.32 -0.20,1.24 -0.35,1.20 -0.49,1.15 -0.62,1.08 -0.76,1.00 -0.87,0.89 -0.97,0.79 -1.05,0.66 -1.14,0.53 -1.18,0.39 -1.23,0.24 -1.24,0.09 -1.25,-0.05 -1.23,-0.20 -1.20,-0.35 -1.14,-0.49 -1.08,-0.63 -0.99,-0.75 -0.90,-0.87 -0.78,-0.97 -0.66,-1.06 -0.53,-1.13 -0.39,-1.19 -0.24,-1.22 -0.09,-1.25 0.05,-1.24 0.20,-1.24 0.20,-1.24 L 0.20,-1.24 Z"></path></g><g transform="translate(108.40056466583792 13.552366955444995) rotate(0 4.440458694306471 3.3747486076729274)" stroke="none" fill="#ce524a"><path d="M 0.69,-1.04 Q 0.69,-1.04 1.17,-0.73 1.65,-0.41 2.74,0.28 3.84,0.98 4.82,1.76 5.80,2.54 6.87,3.43 7.93,4.31 9.05,5.29 10.18,6.27 10.29,6.44 10.39,6.61 10.44,6.81 10.49,7.01 10.47,7.21 10.45,7.42 10.37,7.60 10.29,7.79 10.15,7.94 10.01,8.09 9.83,8.19 9.65,8.29 9.45,8.32 9.25,8.36 9.05,8.33 8.85,8.30 8.67,8.21 8.49,8.12 8.34,7.97 8.20,7.82 8.11,7.64 8.02,7.46 8.00,7.26 7.97,7.05 8.01,6.85 8.05,6.65 8.15,6.48 8.26,6.30 8.41,6.17 8.56,6.03 8.75,5.95 8.94,5.87 9.14,5.86 9.35,5.84 9.54,5.90 9.74,5.95 9.91,6.06 10.08,6.17 10.21,6.33 10.33,6.49 10.40,6.68 10.47,6.87 10.47,7.08 10.48,7.28 10.42,7.48 10.35,7.67 10.23,7.84 10.11,8.00 9.95,8.12 9.78,8.23 9.58,8.29 9.39,8.35 9.18,8.34 8.98,8.33 8.79,8.26 8.60,8.19 8.44,8.06 8.28,7.93 8.28,7.93 8.29,7.93 6.54,6.39 4.79,4.85 3.70,3.95 2.62,3.06 1.43,2.37 0.25,1.68 -0.22,1.36 -0.69,1.04 -0.81,0.94 -0.92,0.85 -1.01,0.72 -1.10,0.60 -1.16,0.46 -1.21,0.32 -1.23,0.17 -1.25,0.02 -1.24,-0.13 -1.22,-0.28 -1.17,-0.42 -1.12,-0.56 -1.04,-0.69 -0.95,-0.82 -0.84,-0.92 -0.73,-1.02 -0.59,-1.09 -0.46,-1.17 -0.31,-1.20 -0.17,-1.24 -0.02,-1.25 0.13,-1.25 0.27,-1.21 0.42,-1.18 0.56,-1.11 0.69,-1.04 0.69,-1.04 L 0.69,-1.04 Z"></path></g><g transform="translate(16.64476330446996 27.657100866334986) rotate(0 -5.579053217821922 -5.756671565594161)" stroke="none" fill="#ce524a"><path d="M -5.48,-3.70 Q -5.48,-3.70 -6.61,-4.84 -7.74,-5.98 -7.88,-6.12 -8.02,-6.27 -8.11,-6.45 -8.20,-6.63 -8.23,-6.84 -8.25,-7.04 -8.21,-7.24 -8.17,-7.44 -8.07,-7.61 -7.97,-7.79 -7.82,-7.93 -7.67,-8.06 -7.48,-8.14 -7.29,-8.22 -7.09,-8.23 -6.88,-8.25 -6.69,-8.20 -6.49,-8.15 -6.32,-8.04 -6.15,-7.93 -6.02,-7.77 -5.89,-7.61 -5.83,-7.42 -5.76,-7.22 -5.75,-7.02 -5.75,-6.82 -5.81,-6.62 -5.87,-6.43 -5.99,-6.26 -6.11,-6.10 -6.28,-5.98 -6.44,-5.86 -6.64,-5.80 -6.83,-5.75 -7.04,-5.75 -7.24,-5.76 -7.43,-5.83 -7.62,-5.90 -7.78,-6.03 -7.94,-6.16 -8.05,-6.33 -8.16,-6.50 -8.20,-6.70 -8.25,-6.90 -8.23,-7.10 -8.22,-7.31 -8.13,-7.49 -8.05,-7.68 -7.91,-7.83 -7.78,-7.98 -7.60,-8.08 -7.42,-8.18 -7.22,-8.22 -7.02,-8.25 -6.82,-8.23 -6.62,-8.20 -6.44,-8.11 -6.25,-8.01 -6.25,-8.01 -6.25,-8.01 -4.90,-6.66 -3.54,-5.31 -3.46,-5.19 -3.38,-5.06 -3.33,-4.92 -3.28,-4.77 -3.26,-4.62 -3.25,-4.47 -3.27,-4.32 -3.29,-4.17 -3.35,-4.03 -3.41,-3.89 -3.50,-3.77 -3.59,-3.64 -3.71,-3.55 -3.82,-3.45 -3.96,-3.38 -4.10,-3.32 -4.25,-3.29 -4.39,-3.25 -4.55,-3.26 -4.70,-3.26 -4.84,-3.30 -4.99,-3.34 -5.12,-3.42 -5.26,-3.49 -5.37,-3.60 -5.48,-3.70 -5.48,-3.70 L -5.48,-3.70 Z"></path></g><g transform="translate(12.841893564370366 38.97331373762222) rotate(0 11.367574257424565 -19.737159653465767)" stroke="none" fill="#ce524a"><path d="M -0.89,-16.36 Q -0.89,-16.36 -0.49,-16.76 -0.09,-17.15 0.71,-18.12 1.52,-19.09 2.63,-19.89 3.73,-20.70 4.81,-21.26 5.90,-21.83 6.99,-22.36 8.07,-22.90 9.39,-23.32 10.70,-23.74 11.95,-24.11 13.21,-24.48 14.51,-24.68 15.81,-24.88 17.20,-25.06 18.59,-25.24 20.48,-25.25 22.37,-25.25 22.57,-25.22 22.77,-25.19 22.96,-25.09 23.14,-25.00 23.28,-24.85 23.42,-24.70 23.50,-24.52 23.59,-24.33 23.61,-24.13 23.63,-23.93 23.59,-23.73 23.55,-23.53 23.44,-23.36 23.34,-23.18 23.18,-23.05 23.03,-22.92 22.84,-22.84 22.65,-22.76 22.44,-22.75 22.24,-22.74 22.04,-22.80 21.85,-22.85 21.68,-22.96 21.51,-23.08 21.39,-23.24 21.26,-23.40 21.20,-23.60 21.13,-23.79 21.13,-23.99 21.13,-24.20 21.20,-24.39 21.26,-24.58 21.38,-24.75 21.51,-24.91 21.68,-25.02 21.84,-25.14 22.04,-25.19 22.24,-25.25 22.44,-25.24 22.64,-25.23 22.83,-25.15 23.02,-25.08 23.18,-24.94 23.33,-24.81 23.44,-24.64 23.54,-24.46 23.59,-24.26 23.63,-24.07 23.61,-23.86 23.59,-23.66 23.50,-23.47 23.42,-23.29 23.28,-23.14 23.14,-22.99 22.96,-22.90 22.78,-22.80 22.58,-22.77 22.38,-22.74 22.38,-22.74 22.38,-22.74 19.92,-22.69 17.47,-22.64 16.16,-22.46 14.85,-22.28 13.63,-22.03 12.41,-21.79 11.11,-21.34 9.81,-20.89 8.64,-20.35 7.46,-19.82 6.40,-19.31 5.35,-18.79 4.36,-18.09 3.37,-17.38 2.53,-16.38 1.68,-15.37 1.28,-14.98 0.89,-14.58 0.77,-14.48 0.65,-14.39 0.51,-14.33 0.37,-14.27 0.22,-14.24 0.07,-14.21 -0.07,-14.22 -0.22,-14.23 -0.37,-14.28 -0.51,-14.32 -0.64,-14.40 -0.77,-14.48 -0.88,-14.58 -0.99,-14.69 -1.07,-14.82 -1.14,-14.95 -1.19,-15.10 -1.23,-15.24 -1.24,-15.39 -1.25,-15.55 -1.23,-15.69 -1.20,-15.84 -1.14,-15.98 -1.07,-16.12 -0.98,-16.24 -0.89,-16.36 -0.89,-16.36 L -0.89,-16.36 Z"></path></g><g transform="translate(35.2218053836732 14.973313737622334) rotate(0 6.571878867573588 2.131420173267088)" stroke="none" fill="#ce524a"><path d="M 0.17,-1.24 Q 0.17,-1.24 0.73,-1.16 1.29,-1.08 2.48,-0.86 3.67,-0.64 4.92,-0.28 6.18,0.07 7.46,0.51 8.74,0.95 10.04,1.52 11.34,2.09 12.74,2.96 14.13,3.83 14.23,4.01 14.32,4.19 14.36,4.39 14.40,4.59 14.37,4.79 14.34,4.99 14.25,5.17 14.16,5.36 14.01,5.50 13.87,5.64 13.68,5.73 13.50,5.82 13.30,5.85 13.10,5.87 12.90,5.83 12.70,5.79 12.52,5.69 12.34,5.59 12.21,5.44 12.07,5.28 11.99,5.10 11.91,4.91 11.90,4.70 11.88,4.50 11.93,4.30 11.98,4.11 12.10,3.94 12.21,3.76 12.37,3.64 12.53,3.51 12.72,3.44 12.91,3.37 13.11,3.37 13.32,3.37 13.51,3.43 13.71,3.49 13.87,3.61 14.04,3.73 14.15,3.90 14.27,4.06 14.33,4.26 14.39,4.45 14.38,4.66 14.37,4.86 14.30,5.05 14.23,5.24 14.10,5.40 13.97,5.56 13.80,5.67 13.63,5.77 13.43,5.82 13.23,5.87 13.03,5.85 12.83,5.83 12.64,5.75 12.45,5.67 12.30,5.53 12.15,5.40 12.15,5.40 12.15,5.40 10.30,4.46 8.44,3.52 7.26,3.05 6.08,2.58 4.84,2.23 3.59,1.88 2.26,1.64 0.93,1.40 0.37,1.32 -0.17,1.24 -0.32,1.20 -0.47,1.16 -0.60,1.09 -0.73,1.02 -0.84,0.91 -0.96,0.81 -1.04,0.68 -1.12,0.56 -1.17,0.41 -1.22,0.27 -1.24,0.12 -1.25,-0.02 -1.23,-0.17 -1.21,-0.32 -1.15,-0.46 -1.10,-0.60 -1.01,-0.73 -0.92,-0.85 -0.80,-0.95 -0.69,-1.05 -0.55,-1.11 -0.42,-1.18 -0.27,-1.22 -0.12,-1.25 0.02,-1.25 0.17,-1.24 0.17,-1.24 L 0.17,-1.24 Z"></path></g><g transform="translate(48.010326423280276 19.236154084157306) rotate(0 2.4866568688116217 2.131420173267088)" stroke="none" fill="#ce524a"><path d="M 0.80,-0.96 Q 0.80,-0.96 1.28,-0.57 1.75,-0.17 3.84,1.49 5.93,3.15 6.09,3.28 6.25,3.41 6.36,3.58 6.48,3.75 6.53,3.95 6.58,4.14 6.56,4.35 6.55,4.55 6.47,4.74 6.39,4.93 6.26,5.08 6.12,5.23 5.95,5.33 5.77,5.44 5.57,5.48 5.37,5.52 5.17,5.49 4.97,5.47 4.78,5.38 4.60,5.29 4.45,5.15 4.31,5.00 4.22,4.82 4.12,4.64 4.09,4.44 4.06,4.24 4.10,4.04 4.14,3.84 4.24,3.66 4.33,3.48 4.48,3.34 4.63,3.20 4.82,3.12 5.01,3.04 5.21,3.02 5.41,3.00 5.61,3.05 5.81,3.10 5.98,3.20 6.16,3.31 6.28,3.47 6.41,3.63 6.49,3.82 6.56,4.01 6.57,4.21 6.57,4.42 6.52,4.61 6.46,4.81 6.34,4.97 6.22,5.14 6.06,5.26 5.89,5.38 5.70,5.44 5.51,5.50 5.30,5.50 5.10,5.50 4.91,5.43 4.71,5.36 4.71,5.36 4.71,5.36 3.63,4.38 2.55,3.40 1.35,2.58 0.14,1.76 -0.32,1.36 -0.80,0.96 -0.91,0.85 -1.01,0.74 -1.08,0.61 -1.16,0.48 -1.20,0.33 -1.24,0.18 -1.25,0.03 -1.25,-0.11 -1.22,-0.26 -1.19,-0.41 -1.12,-0.54 -1.05,-0.68 -0.96,-0.80 -0.86,-0.91 -0.74,-1.00 -0.61,-1.09 -0.47,-1.15 -0.33,-1.21 -0.18,-1.23 -0.03,-1.25 0.11,-1.24 0.26,-1.23 0.40,-1.18 0.55,-1.13 0.67,-1.05 0.80,-0.96 0.80,-0.96 L 0.80,-0.96 Z"></path></g><g transform="translate(53.69411355198099 17.815207301978035) rotate(0 0 2.66427521658386)" stroke="none" fill="#ce524a"><path d="M 1.25,0 Q 1.25,0 1.25,0.55 1.25,1.11 1.25,3.39 1.25,5.68 1.22,5.88 1.19,6.08 1.09,6.26 1.00,6.44 0.85,6.58 0.70,6.72 0.52,6.81 0.33,6.89 0.13,6.91 -0.06,6.94 -0.26,6.89 -0.46,6.85 -0.64,6.74 -0.81,6.64 -0.94,6.48 -1.07,6.33 -1.15,6.14 -1.23,5.95 -1.24,5.75 -1.25,5.54 -1.19,5.35 -1.14,5.15 -1.02,4.98 -0.91,4.81 -0.75,4.69 -0.59,4.57 -0.39,4.50 -0.20,4.44 0.00,4.44 0.20,4.44 0.39,4.50 0.59,4.57 0.75,4.69 0.91,4.81 1.02,4.98 1.14,5.15 1.19,5.35 1.25,5.54 1.24,5.75 1.23,5.95 1.15,6.14 1.07,6.33 0.94,6.48 0.81,6.64 0.64,6.74 0.46,6.85 0.26,6.89 0.06,6.94 -0.13,6.91 -0.33,6.89 -0.52,6.81 -0.70,6.72 -0.85,6.58 -1.00,6.44 -1.09,6.26 -1.19,6.08 -1.22,5.88 -1.25,5.68 -1.25,5.68 -1.25,5.68 -1.25,3.39 -1.25,1.11 -1.25,0.55 -1.25,0 -1.24,-0.15 -1.22,-0.30 -1.16,-0.44 -1.11,-0.58 -1.02,-0.71 -0.94,-0.83 -0.82,-0.93 -0.71,-1.03 -0.58,-1.10 -0.44,-1.17 -0.29,-1.21 -0.15,-1.25 0.00,-1.25 0.15,-1.25 0.29,-1.21 0.44,-1.17 0.58,-1.10 0.71,-1.03 0.82,-0.93 0.94,-0.83 1.02,-0.71 1.11,-0.58 1.16,-0.44 1.22,-0.30 1.24,-0.15 1.25,0.00 1.25,0.00 L 1.25,0 Z"></path></g><g transform="translate(74.29784189356542 22.97331373762279) rotate(0 1.4209467821780777 -6.579053217821922)" stroke="none" fill="#ce524a"><path d="M -0.89,-6.04 Q -0.89,-6.04 0.81,-7.55 2.52,-9.06 2.71,-9.14 2.90,-9.22 3.10,-9.23 3.30,-9.25 3.50,-9.20 3.70,-9.15 3.87,-9.04 4.04,-8.93 4.17,-8.77 4.29,-8.61 4.36,-8.42 4.43,-8.22 4.44,-8.02 4.44,-7.82 4.38,-7.62 4.32,-7.43 4.20,-7.26 4.08,-7.10 3.91,-6.98 3.74,-6.86 3.55,-6.80 3.35,-6.75 3.15,-6.75 2.95,-6.76 2.76,-6.83 2.56,-6.90 2.41,-7.03 2.25,-7.16 2.14,-7.33 2.03,-7.51 1.98,-7.70 1.94,-7.90 1.95,-8.10 1.97,-8.31 2.05,-8.49 2.14,-8.68 2.27,-8.83 2.41,-8.98 2.59,-9.08 2.77,-9.18 2.97,-9.22 3.17,-9.25 3.37,-9.23 3.57,-9.20 3.75,-9.11 3.93,-9.01 4.08,-8.87 4.22,-8.72 4.31,-8.54 4.40,-8.36 4.43,-8.15 4.45,-7.95 4.41,-7.75 4.37,-7.55 4.27,-7.38 4.17,-7.20 4.02,-7.06 3.86,-6.93 3.86,-6.93 3.86,-6.93 2.37,-5.60 0.89,-4.26 0.77,-4.17 0.65,-4.07 0.51,-4.01 0.37,-3.95 0.22,-3.92 0.07,-3.90 -0.07,-3.90 -0.22,-3.91 -0.37,-3.96 -0.51,-4.00 -0.64,-4.08 -0.77,-4.16 -0.88,-4.27 -0.99,-4.38 -1.07,-4.51 -1.14,-4.64 -1.19,-4.78 -1.23,-4.93 -1.24,-5.08 -1.25,-5.23 -1.23,-5.38 -1.20,-5.53 -1.14,-5.67 -1.07,-5.81 -0.98,-5.92 -0.89,-6.04 -0.89,-6.04 L -0.89,-6.04 Z"></path></g><g transform="translate(74.29784189356724 14.26284034653338) rotate(0 1.7761834777226113 0)" stroke="none" fill="#ce524a"><path d="M 0,-1.25 Q 0,-1.25 1.95,-1.25 3.90,-1.25 4.10,-1.22 4.30,-1.19 4.49,-1.09 4.67,-1.00 4.81,-0.85 4.95,-0.70 5.03,-0.52 5.12,-0.33 5.14,-0.13 5.16,0.06 5.12,0.26 5.07,0.46 4.97,0.64 4.86,0.81 4.71,0.94 4.55,1.07 4.36,1.15 4.17,1.23 3.97,1.24 3.77,1.25 3.57,1.19 3.37,1.14 3.20,1.02 3.04,0.91 2.91,0.75 2.79,0.59 2.72,0.39 2.66,0.20 2.66,-0.00 2.66,-0.20 2.72,-0.39 2.79,-0.59 2.91,-0.75 3.04,-0.91 3.21,-1.02 3.37,-1.14 3.57,-1.19 3.77,-1.25 3.97,-1.24 4.17,-1.23 4.36,-1.15 4.55,-1.07 4.71,-0.94 4.86,-0.81 4.97,-0.64 5.07,-0.46 5.12,-0.26 5.16,-0.06 5.14,0.13 5.12,0.33 5.03,0.52 4.95,0.70 4.81,0.85 4.66,1.00 4.48,1.09 4.30,1.19 4.10,1.22 3.90,1.25 3.90,1.25 3.90,1.25 1.95,1.25 0,1.25 -0.15,1.24 -0.30,1.22 -0.44,1.16 -0.58,1.11 -0.71,1.02 -0.83,0.94 -0.93,0.82 -1.03,0.71 -1.10,0.58 -1.17,0.44 -1.21,0.29 -1.25,0.15 -1.25,-0.00 -1.25,-0.15 -1.21,-0.29 -1.17,-0.44 -1.10,-0.58 -1.03,-0.71 -0.93,-0.82 -0.83,-0.94 -0.71,-1.02 -0.58,-1.11 -0.44,-1.16 -0.30,-1.22 -0.15,-1.24 0.00,-1.25 0.00,-1.25 L 0,-1.25 Z"></path></g><g transform="translate(49.43127320544954 14.26284034653338) rotate(0 1.5985651299503445 0)" stroke="none" fill="#ce524a"><path d="M 0,-1.25 Q 0,-1.25 1.77,-1.25 3.55,-1.25 3.75,-1.22 3.95,-1.19 4.13,-1.09 4.31,-1.00 4.45,-0.85 4.59,-0.70 4.68,-0.52 4.76,-0.33 4.78,-0.13 4.81,0.06 4.76,0.26 4.72,0.46 4.61,0.64 4.51,0.81 4.35,0.94 4.20,1.07 4.01,1.15 3.82,1.23 3.61,1.24 3.41,1.25 3.21,1.19 3.02,1.14 2.85,1.02 2.68,0.91 2.56,0.75 2.43,0.59 2.37,0.39 2.30,0.20 2.30,-0.00 2.30,-0.20 2.37,-0.39 2.43,-0.59 2.56,-0.75 2.68,-0.91 2.85,-1.02 3.02,-1.14 3.21,-1.19 3.41,-1.25 3.61,-1.24 3.82,-1.23 4.01,-1.15 4.20,-1.07 4.35,-0.94 4.51,-0.81 4.61,-0.64 4.72,-0.46 4.76,-0.26 4.81,-0.06 4.78,0.13 4.76,0.33 4.68,0.52 4.59,0.70 4.45,0.85 4.31,1.00 4.13,1.09 3.95,1.19 3.75,1.22 3.55,1.25 3.55,1.25 3.55,1.25 1.77,1.25 0,1.25 -0.15,1.24 -0.30,1.22 -0.44,1.16 -0.58,1.11 -0.71,1.02 -0.83,0.94 -0.93,0.82 -1.03,0.71 -1.10,0.58 -1.17,0.44 -1.21,0.29 -1.25,0.15 -1.25,-0.00 -1.25,-0.15 -1.21,-0.29 -1.17,-0.44 -1.10,-0.58 -1.03,-0.71 -0.93,-0.82 -0.83,-0.94 -0.71,-1.02 -0.58,-1.11 -0.44,-1.16 -0.30,-1.22 -0.15,-1.24 0.00,-1.25 0.00,-1.25 L 0,-1.25 Z"></path></g><g transform="translate(49.431273205446814 15.32855043316738) rotate(0 1.776183477722583 1.4209467821780777)" stroke="none" fill="#ce524a"><path d="M 0.69,-1.04 Q 0.69,-1.04 1.17,-0.72 1.65,-0.41 3.06,0.65 4.47,1.71 4.63,1.83 4.80,1.95 4.91,2.11 5.03,2.28 5.09,2.48 5.15,2.67 5.15,2.87 5.14,3.08 5.07,3.27 5.00,3.46 4.87,3.62 4.74,3.78 4.57,3.89 4.40,4.00 4.20,4.04 4.00,4.09 3.80,4.08 3.59,4.06 3.41,3.98 3.22,3.90 3.07,3.76 2.92,3.62 2.82,3.45 2.72,3.27 2.68,3.07 2.64,2.87 2.67,2.67 2.70,2.46 2.79,2.28 2.88,2.10 3.03,1.96 3.17,1.81 3.35,1.72 3.54,1.63 3.74,1.60 3.94,1.58 4.14,1.62 4.34,1.66 4.52,1.76 4.70,1.86 4.83,2.01 4.97,2.16 5.05,2.35 5.13,2.54 5.14,2.74 5.16,2.94 5.11,3.14 5.06,3.34 4.95,3.51 4.84,3.68 4.68,3.81 4.52,3.94 4.33,4.01 4.14,4.08 3.93,4.08 3.73,4.08 3.53,4.02 3.34,3.96 3.34,3.96 3.34,3.96 1.79,2.82 0.25,1.68 -0.22,1.36 -0.69,1.04 -0.81,0.94 -0.92,0.85 -1.01,0.72 -1.10,0.60 -1.16,0.46 -1.21,0.32 -1.23,0.17 -1.25,0.02 -1.24,-0.13 -1.22,-0.28 -1.17,-0.42 -1.12,-0.56 -1.04,-0.69 -0.95,-0.82 -0.84,-0.92 -0.73,-1.02 -0.59,-1.09 -0.46,-1.17 -0.31,-1.20 -0.17,-1.24 -0.02,-1.25 0.13,-1.25 0.27,-1.21 0.42,-1.18 0.56,-1.11 0.69,-1.04 0.69,-1.04 L 0.69,-1.04 Z"></path></g><g transform="translate(61.154084158425576 25.275177908414435) rotate(0 0 9.413772431929715)" stroke="none" fill="#ce524a"><path d="M 1.25,0 Q 1.25,0 1.25,0.71 1.25,1.43 1.25,2.74 1.25,4.05 1.25,5.35 1.25,6.66 1.25,7.90 1.25,9.15 1.25,10.39 1.25,11.63 1.25,12.88 1.25,14.12 1.25,16.65 1.25,19.18 1.22,19.38 1.19,19.58 1.09,19.76 1.00,19.94 0.85,20.08 0.70,20.22 0.52,20.31 0.33,20.39 0.13,20.41 -0.06,20.44 -0.26,20.39 -0.46,20.35 -0.64,20.24 -0.81,20.14 -0.94,19.98 -1.07,19.83 -1.15,19.64 -1.23,19.45 -1.24,19.24 -1.25,19.04 -1.19,18.85 -1.14,18.65 -1.02,18.48 -0.91,18.31 -0.75,18.19 -0.59,18.06 -0.39,18.00 -0.20,17.93 0.00,17.93 0.20,17.93 0.39,18.00 0.59,18.06 0.75,18.19 0.91,18.31 1.02,18.48 1.14,18.65 1.19,18.85 1.25,19.04 1.24,19.25 1.23,19.45 1.15,19.64 1.07,19.83 0.94,19.98 0.81,20.14 0.64,20.24 0.46,20.35 0.26,20.39 0.06,20.44 -0.13,20.41 -0.33,20.39 -0.52,20.31 -0.70,20.22 -0.85,20.08 -1.00,19.94 -1.09,19.76 -1.19,19.58 -1.22,19.38 -1.25,19.18 -1.25,19.18 -1.25,19.18 -1.25,16.65 -1.25,14.12 -1.25,12.88 -1.25,11.63 -1.25,10.39 -1.25,9.15 -1.25,7.90 -1.25,6.66 -1.25,5.35 -1.25,4.05 -1.25,2.74 -1.25,1.43 -1.25,0.71 -1.25,0 -1.24,-0.15 -1.22,-0.30 -1.16,-0.44 -1.11,-0.58 -1.02,-0.71 -0.94,-0.83 -0.82,-0.93 -0.71,-1.03 -0.58,-1.10 -0.44,-1.17 -0.29,-1.21 -0.15,-1.25 0.00,-1.25 0.15,-1.25 0.29,-1.21 0.44,-1.17 0.58,-1.10 0.71,-1.03 0.82,-0.93 0.94,-0.83 1.02,-0.71 1.11,-0.58 1.16,-0.44 1.22,-0.30 1.24,-0.15 1.25,0.00 1.25,0.00 L 1.25,0 Z"></path></g><g transform="translate(66.12739789604802 24.209467821780436) rotate(0 0 9.946627475246487)" stroke="none" fill="#ce524a"><path d="M 1.25,0 Q 1.25,0 1.25,0.63 1.25,1.27 1.25,2.73 1.25,4.19 1.25,5.49 1.25,6.78 1.25,7.96 1.25,9.14 1.25,10.46 1.25,11.78 1.25,13.13 1.25,14.47 1.25,15.72 1.25,16.96 1.25,18.60 1.25,20.24 1.22,20.44 1.19,20.65 1.09,20.83 1.00,21.01 0.85,21.15 0.70,21.29 0.52,21.37 0.33,21.46 0.13,21.48 -0.06,21.50 -0.26,21.46 -0.46,21.41 -0.64,21.31 -0.81,21.20 -0.94,21.05 -1.07,20.89 -1.15,20.70 -1.23,20.51 -1.24,20.31 -1.25,20.11 -1.19,19.91 -1.14,19.71 -1.02,19.55 -0.91,19.38 -0.75,19.25 -0.59,19.13 -0.39,19.07 -0.20,19.00 0.00,19.00 0.20,19.00 0.39,19.07 0.59,19.13 0.75,19.25 0.91,19.38 1.02,19.55 1.14,19.71 1.19,19.91 1.25,20.11 1.24,20.31 1.23,20.51 1.15,20.70 1.07,20.89 0.94,21.05 0.81,21.20 0.64,21.31 0.46,21.41 0.26,21.46 0.06,21.50 -0.13,21.48 -0.33,21.46 -0.52,21.37 -0.70,21.29 -0.85,21.15 -1.00,21.01 -1.09,20.83 -1.19,20.65 -1.22,20.44 -1.25,20.24 -1.25,20.24 -1.25,20.24 -1.25,18.60 -1.25,16.96 -1.25,15.72 -1.25,14.47 -1.25,13.13 -1.25,11.78 -1.25,10.46 -1.25,9.14 -1.25,7.96 -1.25,6.78 -1.25,5.49 -1.25,4.19 -1.25,2.73 -1.25,1.27 -1.25,0.63 -1.25,0 -1.24,-0.15 -1.22,-0.30 -1.16,-0.44 -1.11,-0.58 -1.02,-0.71 -0.94,-0.83 -0.82,-0.93 -0.71,-1.03 -0.58,-1.10 -0.44,-1.17 -0.29,-1.21 -0.15,-1.25 0.00,-1.25 0.15,-1.25 0.29,-1.21 0.44,-1.17 0.58,-1.10 0.71,-1.03 0.82,-0.93 0.94,-0.83 1.02,-0.71 1.11,-0.58 1.16,-0.44 1.22,-0.30 1.24,-0.15 1.25,0.00 1.25,0.00 L 1.25,0 Z"></path></g><g transform="translate(61.15408415842194 44.457959467817886) rotate(0 2.3090385210393833 0)" stroke="none" fill="#ce524a"><path d="M 0,-1.25 Q 0,-1.25 0.55,-1.25 1.11,-1.25 3.04,-1.25 4.97,-1.25 5.17,-1.22 5.37,-1.19 5.55,-1.09 5.73,-1.00 5.87,-0.85 6.01,-0.70 6.10,-0.52 6.18,-0.33 6.20,-0.13 6.23,0.06 6.18,0.26 6.14,0.46 6.03,0.64 5.93,0.81 5.77,0.94 5.62,1.07 5.43,1.15 5.24,1.23 5.04,1.24 4.83,1.25 4.64,1.19 4.44,1.14 4.27,1.02 4.10,0.91 3.98,0.75 3.86,0.59 3.79,0.39 3.72,0.20 3.72,-0.00 3.72,-0.20 3.79,-0.39 3.86,-0.59 3.98,-0.75 4.10,-0.91 4.27,-1.02 4.44,-1.14 4.64,-1.19 4.83,-1.25 5.04,-1.24 5.24,-1.23 5.43,-1.15 5.62,-1.07 5.77,-0.94 5.93,-0.81 6.03,-0.64 6.14,-0.46 6.18,-0.26 6.23,-0.06 6.20,0.13 6.18,0.33 6.10,0.52 6.01,0.70 5.87,0.85 5.73,1.00 5.55,1.09 5.37,1.19 5.17,1.22 4.97,1.25 4.97,1.25 4.97,1.25 3.04,1.25 1.11,1.25 0.55,1.25 0,1.25 -0.15,1.24 -0.30,1.22 -0.44,1.16 -0.58,1.11 -0.71,1.02 -0.83,0.94 -0.93,0.82 -1.03,0.71 -1.10,0.58 -1.17,0.44 -1.21,0.29 -1.25,0.15 -1.25,-0.00 -1.25,-0.15 -1.21,-0.29 -1.17,-0.44 -1.10,-0.58 -1.03,-0.71 -0.93,-0.82 -0.83,-0.94 -0.71,-1.02 -0.58,-1.11 -0.44,-1.16 -0.30,-1.22 -0.15,-1.24 0.00,-1.25 0.00,-1.25 L 0,-1.25 Z"></path></g></svg>