<svg version="1.1" xmlns="http://www.w3.org/2000/svg" viewBox="0 0 153.69890586787892 118.53553759873091" width="153.69890586787892" height="118.53553759873091">
  <!-- svg-source:excalidraw -->
  
  <rect x="0" y="0" width="153.69890586787892" height="118.53553759873091" fill="#0000"></rect><g><g transform="translate(37.04502712311239 66.36452346229476) rotate(0 3.7613199903029226 1.8095302213698687)"><path d="M0 0 M0 0 C2.151294982276735 0.9608761548410882, 4.352830809048719 2.16768864355966, 7.522639980605792 3.619060442739782" stroke="#ce524a" stroke-width="1.4875" fill="none"></path></g></g><g><g transform="translate(35.20547368361929 10.188557033455936) rotate(0 5.419331166930988 -0.036166708920404744)"><path d="M0 0 M0 0 C2.5414888163721203 -0.11759780483157382, 5.24526764477768 -0.07476099358886894, 10.838662333862006 0" stroke="#ce524a" stroke-width="1.4875" fill="none"></path></g></g><g><g transform="translate(46.13785335256239 10.349616166201145) rotate(0 0.020903949331284366 3.0724695183749873)"><path d="M0 0 M0 0 C0.029375858850912116 1.6452692903720636, 0.07719363729972108 3.2543138836262226, 0 6.144939036749974" stroke="#ce524a" stroke-width="1.4875" fill="none"></path></g></g><g><g transform="translate(46.39768045521271 16.476597390239704) rotate(0 2.8154483239611636 -0.01552743439680171)"><path d="M0 0 M0 0 C1.6364631199379867 -0.0609136585358303, 3.1228677421146274 -0.016458917729568957, 5.630896647922306 0" stroke="#ce524a" stroke-width="1.4875" fill="none"></path></g></g><g><g transform="translate(51.99995683912732 16.341913794912102) rotate(0 -0.029946724953560988 3.462490763173264)"><path d="M0 0 M0 0 C-0.1322627280661946 2.5089640156284116, -0.008283528200668421 5.068446504619148, 0 6.924981526346543" stroke="#ce524a" stroke-width="1.4875" fill="none"></path></g></g><g><g transform="translate(52.28672066084039 23.231540877488897) rotate(0 3.192562390874002 -0.02280496484286232)"><path d="M0 0 M0 0 C1.7623769907094433 -0.0021492441457325153, 3.3347446072947866 -0.10250277220444248, 6.385124781748058 0" stroke="#ce524a" stroke-width="1.4875" fill="none"></path></g></g><g><g transform="translate(58.80652903791622 23.334798300570924) rotate(0 0.26475053095265366 12.569610423735867)"><path d="M0 0 M0 0 C0.5963279873383186 5.527813213225429, 0.8156748444092415 12.359788849763524, 0 25.139220847471716" stroke="#ce524a" stroke-width="1.575" fill="none"></path></g></g><g><g transform="translate(35.187515870907646 10) rotate(0 -0.8948041364473056 1.2764076565376854)"><path d="M0 0 M0 0 C-0.6965450899406316 0.942269538108246, -1.3977978430434483 1.9131588282369536, -1.7896082728945828 2.552815313075402" stroke="#ce524a" stroke-width="1.4875" fill="none"></path></g></g><g><g transform="translate(33.43045613355059 12.402979813275351) rotate(0 -0.020136796719839367 33.70456973033822)"><path d="M0 0 M0 0 C-0.6007324492082745 20.100217536262384, 0.516829129542336 40.79368679408572, 0 67.40913946067644" stroke="#ce524a" stroke-width="1.575" fill="none"></path></g></g><g><g transform="translate(59.05064305444398 50.59139090467488) rotate(0 10.357168480571488 -0.18691282670977216)"><path d="M0 0 M0 0 C5.775417440564483 -0.309100987593405, 12.329173893096147 -0.6592698356311247, 20.71433696114294 0" stroke="#ce524a" stroke-width="1.575" fill="none"></path></g></g><g><g transform="translate(79.97822904152258 50.69352596446379) rotate(0 0.03724027284101794 9.673302950530228)"><path d="M0 0 M0 0 C-0.0593404154448018 7.228535379064647, 0.2139222332354555 14.390427157776974, 0 19.346605901060475" stroke="#ce524a" stroke-width="1.4875" fill="none"></path></g></g><g><g transform="translate(35.55565103146705 60.57537358986235) rotate(0 14.395431613763492 5.089075767558654)"><path d="M0 0 M0 0 C9.409696254922014 2.818310005703404, 18.645846501481568 6.140757223489247, 28.79086322752702 10.178151535117287" stroke="#ce524a" stroke-width="1.575" fill="none"></path></g></g><g><g transform="translate(35.63421646207394 23.201798250185902) rotate(0 9.637453018048006 0.08354377650641709)"><path d="M0 0 M0 0 C7.616636900879041 0.11478466179375676, 15.22861202392154 0.3102536352227859, 19.274906036096013 0" stroke="#ce524a" stroke-width="1.4875" fill="none"></path></g></g><g><g transform="translate(35.33286191753234 23.458819444599612) rotate(0 0.1847011532474312 18.64357668300528)"><path d="M0 0 M0 0 C0.7732167447079535 10.039781074090262, 0.12282178048981385 20.103422619131127, 0 37.28715336601056" stroke="#ce524a" stroke-width="1.575" fill="none"></path></g></g><g><g transform="translate(64.36503325335184 70.67720442096447) rotate(0 39.42918371334156 -0.23059823459220752)"><path d="M0 0 M0 0 C17.68122865590507 -0.9609364891998955, 36.64521213090527 -0.15997189531256642, 78.8583674266831 0" stroke="#ce524a" stroke-width="1.575" fill="none"></path></g></g><g><g transform="translate(50.509458384185336 50.7614289437754) rotate(0 0.04675650543407528 7.382344568807866)"><path d="M0 0 M0 0 C0.25078117966549934 4.29984843484627, -0.05521430836871855 8.605064102703425, 0 14.764689137615692" stroke="#ce524a" stroke-width="1.4875" fill="none"></path></g></g><g><g transform="translate(50.50384656771371 50.54200691972255) rotate(0 14.704642701366197 0.014731291667601454)"><path d="M0 0 M0 0 C10.873837024837863 -0.48927314501671815, 22.047047826886438 0.5506535269650934, 29.409285402732383 0" stroke="#ce524a" stroke-width="1.575" fill="none"></path></g></g><g><g transform="translate(50.435943588405166 50.6020533559722) rotate(0 -2.791317513131901 -0.8754433696191768)"><path d="M0 0 M0 0 C-1.3443305561553507 -0.3224778941454275, -2.632119409467497 -0.9472294575610449, -5.582635026263812 -1.7508867392383494" stroke="#ce524a" stroke-width="1.4875" fill="none"></path></g></g><g><g transform="translate(44.80953639365828 48.98304430382416) rotate(0 -0.06560836153693117 7.155907774165996)"><path d="M0 0 M0 0 C-0.20667719901198772 3.54011295230578, -0.1432340625184553 7.464938218346522, 0 14.311815548331941" stroke="#ce524a" stroke-width="1.4875" fill="none"></path></g></g><g><g transform="translate(50.42191404722564 65.00197442291278) rotate(0 5.175217150402602 -0.028906654538445764)"><path d="M0 0 M0 0 C2.8702164242220847 0.0028384352995500673, 5.760053719319196 -0.13231241122115286, 10.350434300805171 0" stroke="#ce524a" stroke-width="1.4875" fill="none"></path></g></g><g><g transform="translate(60.95473238336672 64.89254400171114) rotate(0 7.361300257038124 2.519144414243897)"><path d="M0 0 M0 0 C3.6374371519726214 0.9467663975488276, 6.919152751790775 2.3896370954176875, 14.722600514076305 5.038288828487791" stroke="#ce524a" stroke-width="1.4875" fill="none"></path></g></g><g><g transform="translate(62.147243383649425 59.50183309878662) rotate(0 -0.014871807624956546 1.9582433578756877)"><path d="M0 0 M0 0 C0.013898116160862284 1.0540773156714818, -0.0763837637424331 2.0501258956740473, 0 3.916486715751423" stroke="#ce524a" stroke-width="1.4875" fill="none"></path></g></g><g><g transform="translate(62.303813063214875 63.68488109695477) rotate(0 3.511313566478975 0.004120244958528474)"><path d="M0 0 M0 0 C1.417795271959284 -0.02909493939604689, 3.146182003325745 0.04626262672314229, 7.022627132957916 0" stroke="#ce524a" stroke-width="1.4875" fill="none"></path></g></g><g><g transform="translate(62.294834156860134 59.57478671292188) rotate(0 3.4605266274081146 -0.018702640650190006)"><path d="M0 0 M0 0 C1.692796778240218 -0.1344654550880569, 3.396554241293013 0.059084610372331356, 6.9210532548162105 0" stroke="#ce524a" stroke-width="1.4875" fill="none"></path></g></g><g><g transform="translate(69.43306470914013 59.76109901978816) rotate(0 -0.00007010889430603129 1.924291868220621)"><path d="M0 0 M0 0 C0.021733146841873094 1.4973707521294317, -0.02202526723493156 2.915265941777982, 0 3.8485837364412183" stroke="#ce524a" stroke-width="1.4875" fill="none"></path></g></g><g><g transform="translate(65.72645992943774 59.47938583289931) rotate(0 -0.015434717425762301 2.0289522454218627)"><path d="M0 0 M0 0 C-0.0009834213355657592 1.3389147728659725, -0.06957725219738554 2.7153067987798334, 0 4.057904490843752" stroke="#ce524a" stroke-width="1.4875" fill="none"></path></g></g><g><g transform="translate(37.09104401818445 66.6097598421162) rotate(0 0.00020316616007676203 8.281357567609064)"><path d="M0 0 M0 0 C-0.15762029236336045 6.071544772921404, 0.15846681803056556 12.41999132186332, 0 16.56271513521815" stroke="#ce524a" stroke-width="1.4875" fill="none"></path></g></g><g><g transform="translate(33.61059544229954 79.88956234126329) rotate(0 5.401934535868065 5.060736094375443)"><path d="M0 0 M0 0 C4.374700536383563 3.6998749712322567, 8.27229905733353 7.832180871981748, 10.803869071736125 10.121472188750932" stroke="#ce524a" stroke-width="1.4875" fill="none"></path></g></g><g><g transform="translate(44.49864176111396 70.25295109568663) rotate(0 -0.027440603143702447 9.773258976668444)"><path d="M0 0 M0 0 C0.00038892207253573424 6.331250933396745, -0.12461386067830829 13.328809941197783, 0 19.546517953336842" stroke="#ce524a" stroke-width="1.4875" fill="none"></path></g></g><g><g transform="translate(44.786527946125375 89.83313994785374) rotate(0 9.869221038338196 9.181773520528282)"><path d="M0 0 M0 0 C4.9090501379696745 4.484632771762645, 9.568819806687358 8.639707582935554, 19.738442076676424 18.363547041056584" stroke="#ce524a" stroke-width="1.4875" fill="none"></path></g></g><g><g transform="translate(15.213377502411845 76.32044706512431) rotate(0 4.749841461831238 -0.0389579223635792)"><path d="M0 0 M0 0 C3.438095634557815 -0.1036735050327046, 6.409401989154895 -0.10410208090637278, 9.499682923662439 0" stroke="#ce524a" stroke-width="1.4875" fill="none"></path></g></g><g><g transform="translate(24.81351194092099 76.22392382180885) rotate(0 4.145448827805694 0.9523252552844497)"><path d="M0 0 M0 0 C2.709465377836126 0.5003066058320467, 5.37783329662137 1.3366023059597223, 8.290897655611337 1.9046505105688958" stroke="#ce524a" stroke-width="1.4875" fill="none"></path></g></g><g><g transform="translate(15.298677112786208 76.57297880636077) rotate(0 -2.31992492949081 1.1170320687352273)"><path d="M0 0 M0 0 C-1.6365032218140283 0.7039789413229026, -3.355174045862015 1.673310577566059, -4.639849858981631 2.23406413747047" stroke="#ce524a" stroke-width="1.4875" fill="none"></path></g></g><g><g transform="translate(11.116751477911293 78.86821174337376) rotate(0 3.7702988966579483 1.0926206670823717)"><path d="M0 0 M0 0 C2.9125183199507205 0.8521921549243375, 5.540821675852547 1.5375480339864145, 7.540597793315934 2.1852413341647887" stroke="#ce524a" stroke-width="1.4875" fill="none"></path></g></g><g><g transform="translate(18.64444209334215 81.14997632085738) rotate(0 -4.322221046671075 4.187537451345065)"><path d="M0 0 M0 0 C-2.533353180704777 2.6786754965728754, -5.115087809183721 5.117037695685742, -8.644442093342166 8.3750749026901" stroke="#ce524a" stroke-width="1.4875" fill="none"></path></g></g><g><g transform="translate(10.066219434367895 89.58790356803263) rotate(0 5.617147697566111 2.0278298821274916)"><path d="M0 0 M0 0 C2.911633392320572 0.9965104598817275, 6.123570180777633 2.2435281604911212, 11.234295395132202 4.055659764254985" stroke="#ce524a" stroke-width="1.4875" fill="none"></path></g></g><g><g transform="translate(21.432392516592245 93.5599472668548) rotate(0 -0.9287556261023724 3.6858410587556136)"><path d="M0 0 M0 0 C-0.27205494097913585 1.5580697855292989, -0.6848170073546573 3.165066882763342, -1.857511252204789 7.371682117511209" stroke="#ce524a" stroke-width="1.4875" fill="none"></path></g></g><g><g transform="translate(19.609674526512094 101.12523705264721) rotate(0 19.596743710760506 0.829795318960862)"><path d="M0 0 M0 0 C10.144012435747115 -0.28144721152453783, 21.73843161274214 0.26457685426692157, 39.193487421521 1.7284394733506794" stroke="#ce524a" stroke-width="1.575" fill="none"></path></g></g><g><g transform="translate(64.35661552864269 70.7557698515709) rotate(0 0.2243218907138953 18.61243110158614)"><path d="M0 0 M0 0 C0.7069470825251223 14.469176139689907, 0.48943633461557645 28.879853484049292, 0 37.22486220317227" stroke="#ce524a" stroke-width="1.575" fill="none"></path></g></g><g><g transform="translate(64.7314848689681 108.24214270233404) rotate(0 39.40673644745391 0.146697448198438)"><path d="M0 0 M0 0 C18.870463665683936 0.6447470125081929, 37.723737263897796 0.04794425333766064, 78.8134728949078 0" stroke="#ce524a" stroke-width="1.575" fill="none"></path></g></g><g><g transform="translate(64.68602915554538 102.45074810331528) rotate(0 39.47548119923488 0.23875739015227282)"><path d="M0 0 M0 0 C18.296734042627456 0.9120906096996024, 35.39533787551094 0.289901517063494, 78.95096239846977 0" stroke="#ce524a" stroke-width="1.575" fill="none"></path></g></g><g><g transform="translate(35.346891458711525 10.062852344485236) rotate(0 0.0026111672773936334 6.791700885138482)"><path d="M0 0 M0 0 C0.20649619740680572 5.429456426037547, -0.19561633375100512 10.44699088387346, 0 13.583401770277018" stroke="#ce524a" stroke-width="1.4875" fill="none"></path></g></g><g><g transform="translate(35.67069326914009 12.599393389791203) rotate(0 5.321966151143215 -0.04741198051220863)"><path d="M0 0 M0 0 C3.6420454810287044 -0.1740994817866464, 7.5001112355069175 -0.06810064198802333, 10.64393230228646 0" stroke="#ce524a" stroke-width="1.4875" fill="none"></path></g></g><g><g transform="translate(35.52815313075439 16.328445435381127) rotate(0 8.093081124976209 0.03288317597798596)"><path d="M0 0 M0 0 C5.413323183521398 -0.20071159350734483, 10.798696410520005 0.33663704848371356, 16.18616224995246 0" stroke="#ce524a" stroke-width="1.4875" fill="none"></path></g></g><g><g transform="translate(37.706660285150974 12.559549492840802) rotate(0 -0.0016947565548548482 1.8490935274969047)"><path d="M0 0 M0 0 C-0.052641953057642035 0.834061397049798, 0.04558046741236365 1.539403118649174, 0 3.698187054993819" stroke="#ce524a" stroke-width="1.4875" fill="none"></path></g></g><g><g transform="translate(44.91328897702067 48.501616471903844) rotate(0 6.912354939284739 0.05272301999212914)"><path d="M0 0 M0 0 C4.525107709585886 0.0274621035610446, 8.778714044674503 0.22577998647833306, 13.824709878569466 0" stroke="#ce524a" stroke-width="1.4875" fill="none"></path></g></g><g><g transform="translate(45.04067721093122 48.88434235528939) rotate(0 0.032571240516290345 -3.3157417624326513)"><path d="M0 0 M0 0 C0.12370337688533012 -1.8877716197412588, 0.040634104923920944 -3.562369531570599, 0 -6.631483524865249" stroke="#ce524a" stroke-width="1.4875" fill="none"></path></g></g><g><g transform="translate(45.326879850999944 38.468810983408844) rotate(0 0.9189349472765116 0.8768463237371407)"><path d="M0 0 M0 0 C0.485043593004117 0.4422992859104214, 0.9240632217762991 0.8685458978344125, 1.8378698945530754 1.7536926474743082" stroke="#ce524a" stroke-width="1.4875" fill="none"></path></g></g><g><g transform="translate(45.08557174270834 38.536152781070655) rotate(0 -0.891998228211321 0.9116395858630426)"><path d="M0 0 M0 0 C-0.6737780700960299 0.7367326330687826, -1.3391821961043688 1.444444191014316, -1.783996456422664 1.823279171726088" stroke="#ce524a" stroke-width="1.4875" fill="none"></path></g></g><g><g transform="translate(46.796895175818804 40.33277582455764) rotate(0 -0.891998228211321 0.9116395858630426)"><path d="M0 0 M0 0 C-0.531636794439889 0.49860679086064275, -1.0058306930823384 1.0459031629239641, -1.783996456422664 1.823279171726088" stroke="#ce524a" stroke-width="1.4875" fill="none"></path></g></g><g><g transform="translate(43.60545514823946 40.40236234880865) rotate(0 0.9189349472765116 0.8768463237371407)"><path d="M0 0 M0 0 C0.6580115995112124 0.6119940167572085, 1.3345616170351582 1.2368859098691423, 1.8378698945530754 1.7536926474743082" stroke="#ce524a" stroke-width="1.4875" fill="none"></path></g></g><g><g transform="translate(45.2331625159178 29.73556189439921) rotate(0 -0.891998228211321 0.9116395858630426)"><path d="M0 0 M0 0 C-0.660307505403807 0.6919647017295688, -1.456115308751809 1.399041824925016, -1.783996456422664 1.823279171726088" stroke="#ce524a" stroke-width="1.4875" fill="none"></path></g></g><g><g transform="translate(45.47447062421236 29.668220096736945) rotate(0 0.9189349472765116 0.8768463237371407)"><path d="M0 0 M0 0 C0.6509792828498399 0.5940678531071006, 1.3170015628606149 1.258996774058929, 1.8378698945530754 1.7536926474743082" stroke="#ce524a" stroke-width="1.4875" fill="none"></path></g></g><g><g transform="translate(46.94448594903088 31.532184937882334) rotate(0 -0.891998228211321 0.9116395858630426)"><path d="M0 0 M0 0 C-0.5561878181856936 0.4783725167241586, -1.0471481089780064 1.0328339774916628, -1.783996456422664 1.823279171726088" stroke="#ce524a" stroke-width="1.4875" fill="none"></path></g></g><g><g transform="translate(43.75304592145096 31.601771462133343) rotate(0 0.9189349472765116 0.8768463237371407)"><path d="M0 0 M0 0 C0.6586247364191784 0.6386613613734273, 1.3929989866523707 1.2951550031691323, 1.8378698945530754 1.7536926474743082" stroke="#ce524a" stroke-width="1.4875" fill="none"></path></g></g><g><g transform="translate(45.34539884535786 38.34310629443735) rotate(0 0.021978159426794264 -2.5421528617787317)"><path d="M0 0 M0 0 C0.028003290850053857 -1.5970396273029808, 0.08308187752036018 -3.16804480884623, 0 -5.08430572355751" stroke="#ce524a" stroke-width="1.4875" fill="none"></path></g></g><g><g transform="translate(45.475592987506275 29.83390897806953) rotate(0 -0.020514332194125018 -3.2722501847752596)"><path d="M0 0 M0 0 C-0.10382670879941323 -2.366483532718229, 0.017505174374502365 -5.115465089154671, 0 -6.5445003695505175" stroke="#ce524a" stroke-width="1.4875" fill="none"></path></g></g><g><g transform="translate(35.44447104395317 19.31960963628444) rotate(0 8.254420848543873 0.07838714003264613)"><path d="M0 0 M0 0 C4.255619276352069 0.14643388171007696, 7.804249121234504 0.265280838270434, 16.50884169708775 0" stroke="#ce524a" stroke-width="1.4875" fill="none"></path></g></g><g transform="translate(50.4378417027998 15.247114422613095) rotate(0 0 6.734179766301338)"><image href="data:," width="0" height="13.468359532602683"></image></g><g><g transform="translate(114.59739904851062 53.91711538869913) rotate(0 0.0993706944607311 8.176416599584229)"><path d="M0 0 M0 0 C0.28362856873517817 5.351782947218239, 0.24634846838886026 10.78583794682375, 0 16.352833199168426" stroke="#ce524a" stroke-width="1.4875" fill="none"></path></g></g><g><g transform="translate(114.97788020530606 54.13541504945624) rotate(0 14.279547603618425 0.0017280943728223974)"><path d="M0 0 M0 0 C11.28775753225376 0.1575893447499383, 21.325230018704925 -0.15038895152996892, 28.559095207236798 0" stroke="#ce524a" stroke-width="1.575" fill="none"></path></g></g><g><g transform="translate(143.4447607507616 54.29142354737735) rotate(0 0.12060484666579896 27.037451170876295)"><path d="M0 0 M0 0 C-0.12312796444905363 16.102959150339316, 0.6290619101999942 31.999993710746672, 0 54.07490234175258" stroke="#ce524a" stroke-width="1.575" fill="none"></path></g></g><g><g transform="translate(80.19696407565175 62.840464760696705) rotate(0 17.43151342012885 1.431934240461885)"><path d="M0.07132308366894727 -0.20342821624875074 C1.4931502460563781 0.20565397128703233, 2.5095934452680364 1.8060789691746355, 8.296323557421326 2.3511997880781914 C14.083053669574616 2.8963206069817473, 30.369384702506117 2.9664865938275784, 34.79170375658869 3.0672966971725852" stroke="#ce524a" stroke-width="1.575" fill="none"></path></g></g><g><g transform="translate(59.15197702400906 48.71588843798247) rotate(0 10.279080447322997 0.9194482169294815)"><path d="M-0.2505034048855305 -0.3698572294414044 C3.194807206176022 0.006374485199472202, 17.386810322991508 1.8357269352317895, 20.808664299531575 2.2087536633004006" stroke="#ce524a" stroke-width="1.575" fill="none"></path></g></g></svg>