<svg version="1.1" xmlns="http://www.w3.org/2000/svg" viewBox="0 0 65.73162166378961 68.65368792503273" width="131.46324332757922" height="137.30737585006545">
  <!-- svg-source:excalidraw -->
  
  <g><g transform="translate(48.6357568933596 44.827098189801745) rotate(0 -3.0711295788374287 -1.7993010647667802)"><path d="M0 0 M0 0 C-2.1733910357799906 -1.153480341960224, -4.2261970584774184 -2.509535678258145, -6.1422591576748795 -3.5986021295335786" stroke="#ce524a" stroke-width="1.4875" fill="none"></path></g></g><g><g transform="translate(17.873355877523977 19.647847211565136) rotate(0 4.409907221714349 -2.407004980077488)"><path d="M0 0 M0 0 C2.0812036367929005 -1.1773971746098555, 3.6031913058417886 -2.1582846418464783, 8.819814443428713 -4.814009960154959" stroke="#ce524a" stroke-width="1.4875" fill="none"></path></g></g><g><g transform="translate(13.763163523623405 30.53428532685973) rotate(0 0.010793525859810416 5.118848159041875)"><path d="M0 0 M0 0 C-0.11535207590583772 2.9405015895151876, 0.16032510032176656 5.66805184950305, 0 10.23769631808377" stroke="#ce524a" stroke-width="1.4875" fill="none"></path></g></g><g><g transform="translate(16.857655492156766 26.40995257919542) rotate(0 3.1735833919845504 1.9699207978497952)"><path d="M0 0 M0 0 C1.6243339015191214 0.9447173828080515, 3.398942011388983 2.2058836927845773, 6.347166783969078 3.939841595699537" stroke="#ce524a" stroke-width="1.4875" fill="none"></path></g></g><g><g transform="translate(32.981393180916655 17.624131437440724) rotate(0 -0.05031957159670242 3.630200273930825)"><path d="M0 0 M0 0 C-0.14614259265449822 2.724371995687552, -0.12222845586117964 5.442710866392575, 0 7.260400547861632" stroke="#ce524a" stroke-width="1.4875" fill="none"></path></g></g><g><g transform="translate(16.949235035099548 45.07814141241545) rotate(0 3.2782914708038504 -1.9961778696026045)"><path d="M0 0 M0 0 C2.551878126420312 -1.3261721276657685, 4.811177706293191 -3.0462942034730935, 6.556582941607699 -3.992355739205223" stroke="#ce524a" stroke-width="1.4875" fill="none"></path></g></g><g><g transform="translate(39.42528845555751 14.958078029945796) rotate(0 4.375324736966576 2.337199594197841)"><path d="M0 0 M0 0 C2.080178009065998 1.0649743086286216, 4.525351207216637 2.430820547941188, 8.750649473933137 4.674399188395659" stroke="#ce524a" stroke-width="1.4875" fill="none"></path></g></g><g><g transform="translate(42.49608501787543 30.31331605764774) rotate(0 3.274448972498618 -2.0413272246898373)"><path d="M0 0 M0 0 C2.738435911539672 -1.6507441782188688, 5.268839435383083 -3.4030055291437926, 6.548897944997243 -4.082654449379687" stroke="#ce524a" stroke-width="1.4875" fill="none"></path></g></g><g><g transform="translate(52.2130971989377 30.712321081671462) rotate(0 -0.02793054089087832 4.989163841238053)"><path d="M0 0 M0 0 C-0.06688616345874523 3.8081399504159683, -0.08207672129258366 7.572454256070025, 0 9.978327682476062" stroke="#ce524a" stroke-width="1.4875" fill="none"></path></g></g><g transform="translate(29.218972540302047 10) rotate(0 3.6625925346444888 3.5710129917015365)"><path d="M7.325185069288994 3.5710129917015556 C7.325185069288994 3.7777129578461914, 7.306355618369283 3.987553160928865, 7.269542058887032 4.1911128901354635 C7.2327284994047805 4.394672619342062, 7.176812269983682 4.598136934038335, 7.104303712395488 4.792371366941147 C7.031795154807295 4.986605799843959, 6.940491133220789 5.177512065909695, 6.8344907133578685 5.356519487552333 C6.728490293494948 5.535526909194972, 6.604572706236879 5.708074536338997, 6.468301193217967 5.866415896796976 C6.332029680199056 6.024757257254955, 6.179263700452934 6.173703473139811, 6.016861635244397 6.3065676503002095 C5.854459570035861 6.439431827460608, 5.677486914792957 6.560250976687053, 5.4938888019667464 6.663600959759371 C5.310290689140536 6.76695094283169, 5.114488582977922 6.855971996687918, 4.915272958287133 6.926667548734118 C4.7160573335963445 6.997363100780317, 4.507375124429124 7.051881199591735, 4.298595053822018 7.087774272036567 C4.089814983214912 7.123667344481399, 3.874593374370338 7.142025983403111, 3.6625925346444976 7.142025983403111 C3.4505916949186575 7.142025983403111, 3.2353700860740826 7.123667344481399, 3.0265900154669767 7.087774272036567 C2.817809944859871 7.051881199591735, 2.60912773569265 6.997363100780317, 2.409912111001862 6.926667548734118 C2.2106964863110745 6.855971996687918, 2.0148943801484602 6.766950942831689, 1.8312962673222495 6.663600959759371 C1.647698154496039 6.560250976687054, 1.4707254992531356 6.43943182746061, 1.3083234340445986 6.306567650300211 C1.1459213688360617 6.173703473139812, 0.9931553890899404 6.024757257254957, 0.8568838760710284 5.866415896796978 C0.7206123630521165 5.708074536338999, 0.5966947757940473 5.5355269091949735, 0.4906943559311272 5.356519487552336 C0.3846939360682071 5.177512065909698, 0.293389914481702 4.986605799843962, 0.22088135689350796 4.7923713669411505 C0.14837279930531394 4.598136934038339, 0.0924565698842145 4.394672619342066, 0.05564301040196318 4.191112890135468 C0.018829450919711853 3.9875531609288695, 3.7007434154171886e-16 3.7777129578461968, 0 3.571012991701561 C-3.7007434154171886e-16 3.364313025556925, 0.018829450919710222 3.1544728224742515, 0.05564301040196096 2.950913093267653 C0.09245656988421169 2.7473533640610546, 0.14837279930531094 2.543889049364782, 0.2208813568935044 2.3496546164619705 C0.2933899144816979 2.155420183559159, 0.3846939360682023 1.9645139174934225, 0.4906943559311219 1.7855064958507842 C0.5966947757940414 1.606499074208146, 0.7206123630521102 1.4339514470641208, 0.8568838760710218 1.2756100866061413 C0.9931553890899334 1.1172687261481618, 1.1459213688360548 0.9683225102633062, 1.3083234340445915 0.8354583331029066 C1.4707254992531282 0.7025941559425071, 1.6476981544960314 0.5817750067160623, 1.8312962673222417 0.47842502364374395 C2.0148943801484522 0.3750750405714256, 2.2106964863110656 0.2860539867151963, 2.4099121110018533 0.2153584346689965 C2.609127735692641 0.14466288262279675, 2.817809944859862 0.09014478381137825, 3.0265900154669674 0.054251711366545496 C3.235370086074073 0.018358638921712744, 3.4505916949186473 5.921189464667501e-16, 3.662592534644487 0 C3.8745933743703267 -5.921189464667501e-16, 4.089814983214901 0.018358638921710378, 4.298595053822007 0.054251711366541944 C4.507375124429113 0.0901447838113735, 4.716057333596334 0.14466288262279087, 4.9152729582871215 0.2153584346689894 C5.114488582977909 0.28605398671518795, 5.310290689140524 0.375075040571416, 5.493888801966735 0.4784250236437333 C5.677486914792945 0.5817750067160506, 5.854459570035849 0.7025941559424947, 6.016861635244386 0.8354583331028933 C6.179263700452924 0.9683225102632919, 6.332029680199046 1.1172687261481458, 6.468301193217958 1.2756100866061244 C6.604572706236871 1.433951447064103, 6.72849029349494 1.6064990742081275, 6.8344907133578605 1.7855064958507652 C6.940491133220781 1.9645139174934028, 7.031795154807287 2.155420183559139, 7.104303712395482 2.34965461646195 C7.176812269983677 2.5438890493647612, 7.232728499404778 2.7473533640610337, 7.26954205888703 2.9509130932676317 C7.306355618369282 3.1544728224742298, 7.315911234222 3.467663008629218, 7.325185069288994 3.5710129917015387 C7.334458904355989 3.6743629747738593, 7.334458904355988 3.467663008629235, 7.325185069288994 3.5710129917015556" stroke="none" stroke-width="0" fill="transparent"></path><path d="M7.325185069288994 3.5710129917015556 C7.325185069288994 3.7777129578461914, 7.306355618369283 3.987553160928865, 7.269542058887032 4.1911128901354635 C7.2327284994047805 4.394672619342062, 7.176812269983682 4.598136934038335, 7.104303712395488 4.792371366941147 C7.031795154807295 4.986605799843959, 6.940491133220789 5.177512065909695, 6.8344907133578685 5.356519487552333 C6.728490293494948 5.535526909194972, 6.604572706236879 5.708074536338997, 6.468301193217967 5.866415896796976 C6.332029680199056 6.024757257254955, 6.179263700452934 6.173703473139811, 6.016861635244397 6.3065676503002095 C5.854459570035861 6.439431827460608, 5.677486914792957 6.560250976687053, 5.4938888019667464 6.663600959759371 C5.310290689140536 6.76695094283169, 5.114488582977922 6.855971996687918, 4.915272958287133 6.926667548734118 C4.7160573335963445 6.997363100780317, 4.507375124429124 7.051881199591735, 4.298595053822018 7.087774272036567 C4.089814983214912 7.123667344481399, 3.874593374370338 7.142025983403111, 3.6625925346444976 7.142025983403111 C3.4505916949186575 7.142025983403111, 3.2353700860740826 7.123667344481399, 3.0265900154669767 7.087774272036567 C2.817809944859871 7.051881199591735, 2.60912773569265 6.997363100780317, 2.409912111001862 6.926667548734118 C2.2106964863110745 6.855971996687918, 2.0148943801484602 6.766950942831689, 1.8312962673222495 6.663600959759371 C1.647698154496039 6.560250976687054, 1.4707254992531356 6.43943182746061, 1.3083234340445986 6.306567650300211 C1.1459213688360617 6.173703473139812, 0.9931553890899404 6.024757257254957, 0.8568838760710284 5.866415896796978 C0.7206123630521165 5.708074536338999, 0.5966947757940473 5.5355269091949735, 0.4906943559311272 5.356519487552336 C0.3846939360682071 5.177512065909698, 0.293389914481702 4.986605799843962, 0.22088135689350796 4.7923713669411505 C0.14837279930531394 4.598136934038339, 0.0924565698842145 4.394672619342066, 0.05564301040196318 4.191112890135468 C0.018829450919711853 3.9875531609288695, 3.7007434154171886e-16 3.7777129578461968, 0 3.571012991701561 C-3.7007434154171886e-16 3.364313025556925, 0.018829450919710222 3.1544728224742515, 0.05564301040196096 2.950913093267653 C0.09245656988421169 2.7473533640610546, 0.14837279930531094 2.543889049364782, 0.2208813568935044 2.3496546164619705 C0.2933899144816979 2.155420183559159, 0.3846939360682023 1.9645139174934225, 0.4906943559311219 1.7855064958507842 C0.5966947757940414 1.606499074208146, 0.7206123630521102 1.4339514470641208, 0.8568838760710218 1.2756100866061413 C0.9931553890899334 1.1172687261481618, 1.1459213688360548 0.9683225102633062, 1.3083234340445915 0.8354583331029066 C1.4707254992531282 0.7025941559425071, 1.6476981544960314 0.5817750067160623, 1.8312962673222417 0.47842502364374395 C2.0148943801484522 0.3750750405714256, 2.2106964863110656 0.2860539867151963, 2.4099121110018533 0.2153584346689965 C2.609127735692641 0.14466288262279675, 2.817809944859862 0.09014478381137825, 3.0265900154669674 0.054251711366545496 C3.235370086074073 0.018358638921712744, 3.4505916949186473 5.921189464667501e-16, 3.662592534644487 0 C3.8745933743703267 -5.921189464667501e-16, 4.089814983214901 0.018358638921710378, 4.298595053822007 0.054251711366541944 C4.507375124429113 0.0901447838113735, 4.716057333596334 0.14466288262279087, 4.9152729582871215 0.2153584346689894 C5.114488582977909 0.28605398671518795, 5.310290689140524 0.375075040571416, 5.493888801966735 0.4784250236437333 C5.677486914792945 0.5817750067160506, 5.854459570035849 0.7025941559424947, 6.016861635244386 0.8354583331028933 C6.179263700452924 0.9683225102632919, 6.332029680199046 1.1172687261481458, 6.468301193217958 1.2756100866061244 C6.604572706236871 1.433951447064103, 6.72849029349494 1.6064990742081275, 6.8344907133578605 1.7855064958507652 C6.940491133220781 1.9645139174934028, 7.031795154807287 2.155420183559139, 7.104303712395482 2.34965461646195 C7.176812269983677 2.5438890493647612, 7.232728499404778 2.7473533640610337, 7.26954205888703 2.9509130932676317 C7.306355618369282 3.1544728224742298, 7.315911234222 3.467663008629218, 7.325185069288994 3.5710129917015387 C7.334458904355989 3.6743629747738593, 7.334458904355988 3.467663008629235, 7.325185069288994 3.5710129917015556" stroke="#ce524a" stroke-width="1.4875" fill="none"></path></g><g transform="translate(48.40643659450063 20.921635399771276) rotate(0 3.6625925346444888 3.5710129917015365)"><path d="M7.325185069288994 3.5710129917015556 C7.325185069288994 3.7777129578461914, 7.306355618369283 3.987553160928865, 7.269542058887032 4.1911128901354635 C7.2327284994047805 4.394672619342062, 7.176812269983682 4.598136934038335, 7.104303712395488 4.792371366941147 C7.031795154807295 4.986605799843959, 6.940491133220789 5.177512065909695, 6.8344907133578685 5.356519487552333 C6.728490293494948 5.535526909194972, 6.604572706236879 5.708074536338997, 6.468301193217967 5.866415896796976 C6.332029680199056 6.024757257254955, 6.179263700452934 6.173703473139811, 6.016861635244397 6.3065676503002095 C5.854459570035861 6.439431827460608, 5.677486914792957 6.560250976687053, 5.4938888019667464 6.663600959759371 C5.310290689140536 6.76695094283169, 5.114488582977922 6.855971996687918, 4.915272958287133 6.926667548734118 C4.7160573335963445 6.997363100780317, 4.507375124429124 7.051881199591735, 4.298595053822018 7.087774272036567 C4.089814983214912 7.123667344481399, 3.874593374370338 7.142025983403111, 3.6625925346444976 7.142025983403111 C3.4505916949186575 7.142025983403111, 3.2353700860740826 7.123667344481399, 3.0265900154669767 7.087774272036567 C2.817809944859871 7.051881199591735, 2.60912773569265 6.997363100780317, 2.409912111001862 6.926667548734118 C2.2106964863110745 6.855971996687918, 2.0148943801484602 6.766950942831689, 1.8312962673222495 6.663600959759371 C1.647698154496039 6.560250976687054, 1.4707254992531356 6.43943182746061, 1.3083234340445986 6.306567650300211 C1.1459213688360617 6.173703473139812, 0.9931553890899404 6.024757257254957, 0.8568838760710284 5.866415896796978 C0.7206123630521165 5.708074536338999, 0.5966947757940473 5.5355269091949735, 0.4906943559311272 5.356519487552336 C0.3846939360682071 5.177512065909698, 0.293389914481702 4.986605799843962, 0.22088135689350796 4.7923713669411505 C0.14837279930531394 4.598136934038339, 0.0924565698842145 4.394672619342066, 0.05564301040196318 4.191112890135468 C0.018829450919711853 3.9875531609288695, 3.7007434154171886e-16 3.7777129578461968, 0 3.571012991701561 C-3.7007434154171886e-16 3.364313025556925, 0.018829450919710222 3.1544728224742515, 0.05564301040196096 2.950913093267653 C0.09245656988421169 2.7473533640610546, 0.14837279930531094 2.543889049364782, 0.2208813568935044 2.3496546164619705 C0.2933899144816979 2.155420183559159, 0.3846939360682023 1.9645139174934225, 0.4906943559311219 1.7855064958507842 C0.5966947757940414 1.606499074208146, 0.7206123630521102 1.4339514470641208, 0.8568838760710218 1.2756100866061413 C0.9931553890899334 1.1172687261481618, 1.1459213688360548 0.9683225102633062, 1.3083234340445915 0.8354583331029066 C1.4707254992531282 0.7025941559425071, 1.6476981544960314 0.5817750067160623, 1.8312962673222417 0.47842502364374395 C2.0148943801484522 0.3750750405714256, 2.2106964863110656 0.2860539867151963, 2.4099121110018533 0.2153584346689965 C2.609127735692641 0.14466288262279675, 2.817809944859862 0.09014478381137825, 3.0265900154669674 0.054251711366545496 C3.235370086074073 0.018358638921712744, 3.4505916949186473 5.921189464667501e-16, 3.662592534644487 0 C3.8745933743703267 -5.921189464667501e-16, 4.089814983214901 0.018358638921710378, 4.298595053822007 0.054251711366541944 C4.507375124429113 0.0901447838113735, 4.716057333596334 0.14466288262279087, 4.9152729582871215 0.2153584346689894 C5.114488582977909 0.28605398671518795, 5.310290689140524 0.375075040571416, 5.493888801966735 0.4784250236437333 C5.677486914792945 0.5817750067160506, 5.854459570035849 0.7025941559424947, 6.016861635244386 0.8354583331028933 C6.179263700452924 0.9683225102632919, 6.332029680199046 1.1172687261481458, 6.468301193217958 1.2756100866061244 C6.604572706236871 1.433951447064103, 6.72849029349494 1.6064990742081275, 6.8344907133578605 1.7855064958507652 C6.940491133220781 1.9645139174934028, 7.031795154807287 2.155420183559139, 7.104303712395482 2.34965461646195 C7.176812269983677 2.5438890493647612, 7.232728499404778 2.7473533640610337, 7.26954205888703 2.9509130932676317 C7.306355618369282 3.1544728224742298, 7.315911234222 3.467663008629218, 7.325185069288994 3.5710129917015387 C7.334458904355989 3.6743629747738593, 7.334458904355988 3.467663008629235, 7.325185069288994 3.5710129917015556" stroke="none" stroke-width="0" fill="transparent"></path><path d="M7.325185069288994 3.5710129917015556 C7.325185069288994 3.7777129578461914, 7.306355618369283 3.987553160928865, 7.269542058887032 4.1911128901354635 C7.2327284994047805 4.394672619342062, 7.176812269983682 4.598136934038335, 7.104303712395488 4.792371366941147 C7.031795154807295 4.986605799843959, 6.940491133220789 5.177512065909695, 6.8344907133578685 5.356519487552333 C6.728490293494948 5.535526909194972, 6.604572706236879 5.708074536338997, 6.468301193217967 5.866415896796976 C6.332029680199056 6.024757257254955, 6.179263700452934 6.173703473139811, 6.016861635244397 6.3065676503002095 C5.854459570035861 6.439431827460608, 5.677486914792957 6.560250976687053, 5.4938888019667464 6.663600959759371 C5.310290689140536 6.76695094283169, 5.114488582977922 6.855971996687918, 4.915272958287133 6.926667548734118 C4.7160573335963445 6.997363100780317, 4.507375124429124 7.051881199591735, 4.298595053822018 7.087774272036567 C4.089814983214912 7.123667344481399, 3.874593374370338 7.142025983403111, 3.6625925346444976 7.142025983403111 C3.4505916949186575 7.142025983403111, 3.2353700860740826 7.123667344481399, 3.0265900154669767 7.087774272036567 C2.817809944859871 7.051881199591735, 2.60912773569265 6.997363100780317, 2.409912111001862 6.926667548734118 C2.2106964863110745 6.855971996687918, 2.0148943801484602 6.766950942831689, 1.8312962673222495 6.663600959759371 C1.647698154496039 6.560250976687054, 1.4707254992531356 6.43943182746061, 1.3083234340445986 6.306567650300211 C1.1459213688360617 6.173703473139812, 0.9931553890899404 6.024757257254957, 0.8568838760710284 5.866415896796978 C0.7206123630521165 5.708074536338999, 0.5966947757940473 5.5355269091949735, 0.4906943559311272 5.356519487552336 C0.3846939360682071 5.177512065909698, 0.293389914481702 4.986605799843962, 0.22088135689350796 4.7923713669411505 C0.14837279930531394 4.598136934038339, 0.0924565698842145 4.394672619342066, 0.05564301040196318 4.191112890135468 C0.018829450919711853 3.9875531609288695, 3.7007434154171886e-16 3.7777129578461968, 0 3.571012991701561 C-3.7007434154171886e-16 3.364313025556925, 0.018829450919710222 3.1544728224742515, 0.05564301040196096 2.950913093267653 C0.09245656988421169 2.7473533640610546, 0.14837279930531094 2.543889049364782, 0.2208813568935044 2.3496546164619705 C0.2933899144816979 2.155420183559159, 0.3846939360682023 1.9645139174934225, 0.4906943559311219 1.7855064958507842 C0.5966947757940414 1.606499074208146, 0.7206123630521102 1.4339514470641208, 0.8568838760710218 1.2756100866061413 C0.9931553890899334 1.1172687261481618, 1.1459213688360548 0.9683225102633062, 1.3083234340445915 0.8354583331029066 C1.4707254992531282 0.7025941559425071, 1.6476981544960314 0.5817750067160623, 1.8312962673222417 0.47842502364374395 C2.0148943801484522 0.3750750405714256, 2.2106964863110656 0.2860539867151963, 2.4099121110018533 0.2153584346689965 C2.609127735692641 0.14466288262279675, 2.817809944859862 0.09014478381137825, 3.0265900154669674 0.054251711366545496 C3.235370086074073 0.018358638921712744, 3.4505916949186473 5.921189464667501e-16, 3.662592534644487 0 C3.8745933743703267 -5.921189464667501e-16, 4.089814983214901 0.018358638921710378, 4.298595053822007 0.054251711366541944 C4.507375124429113 0.0901447838113735, 4.716057333596334 0.14466288262279087, 4.9152729582871215 0.2153584346689894 C5.114488582977909 0.28605398671518795, 5.310290689140524 0.375075040571416, 5.493888801966735 0.4784250236437333 C5.677486914792945 0.5817750067160506, 5.854459570035849 0.7025941559424947, 6.016861635244386 0.8354583331028933 C6.179263700452924 0.9683225102632919, 6.332029680199046 1.1172687261481458, 6.468301193217958 1.2756100866061244 C6.604572706236871 1.433951447064103, 6.72849029349494 1.6064990742081275, 6.8344907133578605 1.7855064958507652 C6.940491133220781 1.9645139174934028, 7.031795154807287 2.155420183559139, 7.104303712395482 2.34965461646195 C7.176812269983677 2.5438890493647612, 7.232728499404778 2.7473533640610337, 7.26954205888703 2.9509130932676317 C7.306355618369282 3.1544728224742298, 7.315911234222 3.467663008629218, 7.325185069288994 3.5710129917015387 C7.334458904355989 3.6743629747738593, 7.334458904355988 3.467663008629235, 7.325185069288994 3.5710129917015556" stroke="#ce524a" stroke-width="1.4875" fill="none"></path></g><g transform="translate(48.40643659450063 43.05442563828774) rotate(0 3.6625925346444888 3.5710129917015365)"><path d="M7.325185069288994 3.5710129917015556 C7.325185069288994 3.7777129578461914, 7.306355618369283 3.987553160928865, 7.269542058887032 4.1911128901354635 C7.2327284994047805 4.394672619342062, 7.176812269983682 4.598136934038335, 7.104303712395488 4.792371366941147 C7.031795154807295 4.986605799843959, 6.940491133220789 5.177512065909695, 6.8344907133578685 5.356519487552333 C6.728490293494948 5.535526909194972, 6.604572706236879 5.708074536338997, 6.468301193217967 5.866415896796976 C6.332029680199056 6.024757257254955, 6.179263700452934 6.173703473139811, 6.016861635244397 6.3065676503002095 C5.854459570035861 6.439431827460608, 5.677486914792957 6.560250976687053, 5.4938888019667464 6.663600959759371 C5.310290689140536 6.76695094283169, 5.114488582977922 6.855971996687918, 4.915272958287133 6.926667548734118 C4.7160573335963445 6.997363100780317, 4.507375124429124 7.051881199591735, 4.298595053822018 7.087774272036567 C4.089814983214912 7.123667344481399, 3.874593374370338 7.142025983403111, 3.6625925346444976 7.142025983403111 C3.4505916949186575 7.142025983403111, 3.2353700860740826 7.123667344481399, 3.0265900154669767 7.087774272036567 C2.817809944859871 7.051881199591735, 2.60912773569265 6.997363100780317, 2.409912111001862 6.926667548734118 C2.2106964863110745 6.855971996687918, 2.0148943801484602 6.766950942831689, 1.8312962673222495 6.663600959759371 C1.647698154496039 6.560250976687054, 1.4707254992531356 6.43943182746061, 1.3083234340445986 6.306567650300211 C1.1459213688360617 6.173703473139812, 0.9931553890899404 6.024757257254957, 0.8568838760710284 5.866415896796978 C0.7206123630521165 5.708074536338999, 0.5966947757940473 5.5355269091949735, 0.4906943559311272 5.356519487552336 C0.3846939360682071 5.177512065909698, 0.293389914481702 4.986605799843962, 0.22088135689350796 4.7923713669411505 C0.14837279930531394 4.598136934038339, 0.0924565698842145 4.394672619342066, 0.05564301040196318 4.191112890135468 C0.018829450919711853 3.9875531609288695, 3.7007434154171886e-16 3.7777129578461968, 0 3.571012991701561 C-3.7007434154171886e-16 3.364313025556925, 0.018829450919710222 3.1544728224742515, 0.05564301040196096 2.950913093267653 C0.09245656988421169 2.7473533640610546, 0.14837279930531094 2.543889049364782, 0.2208813568935044 2.3496546164619705 C0.2933899144816979 2.155420183559159, 0.3846939360682023 1.9645139174934225, 0.4906943559311219 1.7855064958507842 C0.5966947757940414 1.606499074208146, 0.7206123630521102 1.4339514470641208, 0.8568838760710218 1.2756100866061413 C0.9931553890899334 1.1172687261481618, 1.1459213688360548 0.9683225102633062, 1.3083234340445915 0.8354583331029066 C1.4707254992531282 0.7025941559425071, 1.6476981544960314 0.5817750067160623, 1.8312962673222417 0.47842502364374395 C2.0148943801484522 0.3750750405714256, 2.2106964863110656 0.2860539867151963, 2.4099121110018533 0.2153584346689965 C2.609127735692641 0.14466288262279675, 2.817809944859862 0.09014478381137825, 3.0265900154669674 0.054251711366545496 C3.235370086074073 0.018358638921712744, 3.4505916949186473 5.921189464667501e-16, 3.662592534644487 0 C3.8745933743703267 -5.921189464667501e-16, 4.089814983214901 0.018358638921710378, 4.298595053822007 0.054251711366541944 C4.507375124429113 0.0901447838113735, 4.716057333596334 0.14466288262279087, 4.9152729582871215 0.2153584346689894 C5.114488582977909 0.28605398671518795, 5.310290689140524 0.375075040571416, 5.493888801966735 0.4784250236437333 C5.677486914792945 0.5817750067160506, 5.854459570035849 0.7025941559424947, 6.016861635244386 0.8354583331028933 C6.179263700452924 0.9683225102632919, 6.332029680199046 1.1172687261481458, 6.468301193217958 1.2756100866061244 C6.604572706236871 1.433951447064103, 6.72849029349494 1.6064990742081275, 6.8344907133578605 1.7855064958507652 C6.940491133220781 1.9645139174934028, 7.031795154807287 2.155420183559139, 7.104303712395482 2.34965461646195 C7.176812269983677 2.5438890493647612, 7.232728499404778 2.7473533640610337, 7.26954205888703 2.9509130932676317 C7.306355618369282 3.1544728224742298, 7.315911234222 3.467663008629218, 7.325185069288994 3.5710129917015387 C7.334458904355989 3.6743629747738593, 7.334458904355988 3.467663008629235, 7.325185069288994 3.5710129917015556" stroke="none" stroke-width="0" fill="transparent"></path><path d="M7.325185069288994 3.5710129917015556 C7.325185069288994 3.7777129578461914, 7.306355618369283 3.987553160928865, 7.269542058887032 4.1911128901354635 C7.2327284994047805 4.394672619342062, 7.176812269983682 4.598136934038335, 7.104303712395488 4.792371366941147 C7.031795154807295 4.986605799843959, 6.940491133220789 5.177512065909695, 6.8344907133578685 5.356519487552333 C6.728490293494948 5.535526909194972, 6.604572706236879 5.708074536338997, 6.468301193217967 5.866415896796976 C6.332029680199056 6.024757257254955, 6.179263700452934 6.173703473139811, 6.016861635244397 6.3065676503002095 C5.854459570035861 6.439431827460608, 5.677486914792957 6.560250976687053, 5.4938888019667464 6.663600959759371 C5.310290689140536 6.76695094283169, 5.114488582977922 6.855971996687918, 4.915272958287133 6.926667548734118 C4.7160573335963445 6.997363100780317, 4.507375124429124 7.051881199591735, 4.298595053822018 7.087774272036567 C4.089814983214912 7.123667344481399, 3.874593374370338 7.142025983403111, 3.6625925346444976 7.142025983403111 C3.4505916949186575 7.142025983403111, 3.2353700860740826 7.123667344481399, 3.0265900154669767 7.087774272036567 C2.817809944859871 7.051881199591735, 2.60912773569265 6.997363100780317, 2.409912111001862 6.926667548734118 C2.2106964863110745 6.855971996687918, 2.0148943801484602 6.766950942831689, 1.8312962673222495 6.663600959759371 C1.647698154496039 6.560250976687054, 1.4707254992531356 6.43943182746061, 1.3083234340445986 6.306567650300211 C1.1459213688360617 6.173703473139812, 0.9931553890899404 6.024757257254957, 0.8568838760710284 5.866415896796978 C0.7206123630521165 5.708074536338999, 0.5966947757940473 5.5355269091949735, 0.4906943559311272 5.356519487552336 C0.3846939360682071 5.177512065909698, 0.293389914481702 4.986605799843962, 0.22088135689350796 4.7923713669411505 C0.14837279930531394 4.598136934038339, 0.0924565698842145 4.394672619342066, 0.05564301040196318 4.191112890135468 C0.018829450919711853 3.9875531609288695, 3.7007434154171886e-16 3.7777129578461968, 0 3.571012991701561 C-3.7007434154171886e-16 3.364313025556925, 0.018829450919710222 3.1544728224742515, 0.05564301040196096 2.950913093267653 C0.09245656988421169 2.7473533640610546, 0.14837279930531094 2.543889049364782, 0.2208813568935044 2.3496546164619705 C0.2933899144816979 2.155420183559159, 0.3846939360682023 1.9645139174934225, 0.4906943559311219 1.7855064958507842 C0.5966947757940414 1.606499074208146, 0.7206123630521102 1.4339514470641208, 0.8568838760710218 1.2756100866061413 C0.9931553890899334 1.1172687261481618, 1.1459213688360548 0.9683225102633062, 1.3083234340445915 0.8354583331029066 C1.4707254992531282 0.7025941559425071, 1.6476981544960314 0.5817750067160623, 1.8312962673222417 0.47842502364374395 C2.0148943801484522 0.3750750405714256, 2.2106964863110656 0.2860539867151963, 2.4099121110018533 0.2153584346689965 C2.609127735692641 0.14466288262279675, 2.817809944859862 0.09014478381137825, 3.0265900154669674 0.054251711366545496 C3.235370086074073 0.018358638921712744, 3.4505916949186473 5.921189464667501e-16, 3.662592534644487 0 C3.8745933743703267 -5.921189464667501e-16, 4.089814983214901 0.018358638921710378, 4.298595053822007 0.054251711366541944 C4.507375124429113 0.0901447838113735, 4.716057333596334 0.14466288262279087, 4.9152729582871215 0.2153584346689894 C5.114488582977909 0.28605398671518795, 5.310290689140524 0.375075040571416, 5.493888801966735 0.4784250236437333 C5.677486914792945 0.5817750067160506, 5.854459570035849 0.7025941559424947, 6.016861635244386 0.8354583331028933 C6.179263700452924 0.9683225102632919, 6.332029680199046 1.1172687261481458, 6.468301193217958 1.2756100866061244 C6.604572706236871 1.433951447064103, 6.72849029349494 1.6064990742081275, 6.8344907133578605 1.7855064958507652 C6.940491133220781 1.9645139174934028, 7.031795154807287 2.155420183559139, 7.104303712395482 2.34965461646195 C7.176812269983677 2.5438890493647612, 7.232728499404778 2.7473533640610337, 7.26954205888703 2.9509130932676317 C7.306355618369282 3.1544728224742298, 7.315911234222 3.467663008629218, 7.325185069288994 3.5710129917015387 C7.334458904355989 3.6743629747738593, 7.334458904355988 3.467663008629235, 7.325185069288994 3.5710129917015556" stroke="#ce524a" stroke-width="1.4875" fill="none"></path></g><g transform="translate(10.137715139263264 43.05442563828774) rotate(0 3.6625925346444888 3.5710129917015365)"><path d="M7.325185069288994 3.5710129917015556 C7.325185069288994 3.7777129578461914, 7.306355618369283 3.987553160928865, 7.269542058887032 4.1911128901354635 C7.2327284994047805 4.394672619342062, 7.176812269983682 4.598136934038335, 7.104303712395488 4.792371366941147 C7.031795154807295 4.986605799843959, 6.940491133220789 5.177512065909695, 6.8344907133578685 5.356519487552333 C6.728490293494948 5.535526909194972, 6.604572706236879 5.708074536338997, 6.468301193217967 5.866415896796976 C6.332029680199056 6.024757257254955, 6.179263700452934 6.173703473139811, 6.016861635244397 6.3065676503002095 C5.854459570035861 6.439431827460608, 5.677486914792957 6.560250976687053, 5.4938888019667464 6.663600959759371 C5.310290689140536 6.76695094283169, 5.114488582977922 6.855971996687918, 4.915272958287133 6.926667548734118 C4.7160573335963445 6.997363100780317, 4.507375124429124 7.051881199591735, 4.298595053822018 7.087774272036567 C4.089814983214912 7.123667344481399, 3.874593374370338 7.142025983403111, 3.6625925346444976 7.142025983403111 C3.4505916949186575 7.142025983403111, 3.2353700860740826 7.123667344481399, 3.0265900154669767 7.087774272036567 C2.817809944859871 7.051881199591735, 2.60912773569265 6.997363100780317, 2.409912111001862 6.926667548734118 C2.2106964863110745 6.855971996687918, 2.0148943801484602 6.766950942831689, 1.8312962673222495 6.663600959759371 C1.647698154496039 6.560250976687054, 1.4707254992531356 6.43943182746061, 1.3083234340445986 6.306567650300211 C1.1459213688360617 6.173703473139812, 0.9931553890899404 6.024757257254957, 0.8568838760710284 5.866415896796978 C0.7206123630521165 5.708074536338999, 0.5966947757940473 5.5355269091949735, 0.4906943559311272 5.356519487552336 C0.3846939360682071 5.177512065909698, 0.293389914481702 4.986605799843962, 0.22088135689350796 4.7923713669411505 C0.14837279930531394 4.598136934038339, 0.0924565698842145 4.394672619342066, 0.05564301040196318 4.191112890135468 C0.018829450919711853 3.9875531609288695, 3.7007434154171886e-16 3.7777129578461968, 0 3.571012991701561 C-3.7007434154171886e-16 3.364313025556925, 0.018829450919710222 3.1544728224742515, 0.05564301040196096 2.950913093267653 C0.09245656988421169 2.7473533640610546, 0.14837279930531094 2.543889049364782, 0.2208813568935044 2.3496546164619705 C0.2933899144816979 2.155420183559159, 0.3846939360682023 1.9645139174934225, 0.4906943559311219 1.7855064958507842 C0.5966947757940414 1.606499074208146, 0.7206123630521102 1.4339514470641208, 0.8568838760710218 1.2756100866061413 C0.9931553890899334 1.1172687261481618, 1.1459213688360548 0.9683225102633062, 1.3083234340445915 0.8354583331029066 C1.4707254992531282 0.7025941559425071, 1.6476981544960314 0.5817750067160623, 1.8312962673222417 0.47842502364374395 C2.0148943801484522 0.3750750405714256, 2.2106964863110656 0.2860539867151963, 2.4099121110018533 0.2153584346689965 C2.609127735692641 0.14466288262279675, 2.817809944859862 0.09014478381137825, 3.0265900154669674 0.054251711366545496 C3.235370086074073 0.018358638921712744, 3.4505916949186473 5.921189464667501e-16, 3.662592534644487 0 C3.8745933743703267 -5.921189464667501e-16, 4.089814983214901 0.018358638921710378, 4.298595053822007 0.054251711366541944 C4.507375124429113 0.0901447838113735, 4.716057333596334 0.14466288262279087, 4.9152729582871215 0.2153584346689894 C5.114488582977909 0.28605398671518795, 5.310290689140524 0.375075040571416, 5.493888801966735 0.4784250236437333 C5.677486914792945 0.5817750067160506, 5.854459570035849 0.7025941559424947, 6.016861635244386 0.8354583331028933 C6.179263700452924 0.9683225102632919, 6.332029680199046 1.1172687261481458, 6.468301193217958 1.2756100866061244 C6.604572706236871 1.433951447064103, 6.72849029349494 1.6064990742081275, 6.8344907133578605 1.7855064958507652 C6.940491133220781 1.9645139174934028, 7.031795154807287 2.155420183559139, 7.104303712395482 2.34965461646195 C7.176812269983677 2.5438890493647612, 7.232728499404778 2.7473533640610337, 7.26954205888703 2.9509130932676317 C7.306355618369282 3.1544728224742298, 7.315911234222 3.467663008629218, 7.325185069288994 3.5710129917015387 C7.334458904355989 3.6743629747738593, 7.334458904355988 3.467663008629235, 7.325185069288994 3.5710129917015556" stroke="none" stroke-width="0" fill="transparent"></path><path d="M7.325185069288994 3.5710129917015556 C7.325185069288994 3.7777129578461914, 7.306355618369283 3.987553160928865, 7.269542058887032 4.1911128901354635 C7.2327284994047805 4.394672619342062, 7.176812269983682 4.598136934038335, 7.104303712395488 4.792371366941147 C7.031795154807295 4.986605799843959, 6.940491133220789 5.177512065909695, 6.8344907133578685 5.356519487552333 C6.728490293494948 5.535526909194972, 6.604572706236879 5.708074536338997, 6.468301193217967 5.866415896796976 C6.332029680199056 6.024757257254955, 6.179263700452934 6.173703473139811, 6.016861635244397 6.3065676503002095 C5.854459570035861 6.439431827460608, 5.677486914792957 6.560250976687053, 5.4938888019667464 6.663600959759371 C5.310290689140536 6.76695094283169, 5.114488582977922 6.855971996687918, 4.915272958287133 6.926667548734118 C4.7160573335963445 6.997363100780317, 4.507375124429124 7.051881199591735, 4.298595053822018 7.087774272036567 C4.089814983214912 7.123667344481399, 3.874593374370338 7.142025983403111, 3.6625925346444976 7.142025983403111 C3.4505916949186575 7.142025983403111, 3.2353700860740826 7.123667344481399, 3.0265900154669767 7.087774272036567 C2.817809944859871 7.051881199591735, 2.60912773569265 6.997363100780317, 2.409912111001862 6.926667548734118 C2.2106964863110745 6.855971996687918, 2.0148943801484602 6.766950942831689, 1.8312962673222495 6.663600959759371 C1.647698154496039 6.560250976687054, 1.4707254992531356 6.43943182746061, 1.3083234340445986 6.306567650300211 C1.1459213688360617 6.173703473139812, 0.9931553890899404 6.024757257254957, 0.8568838760710284 5.866415896796978 C0.7206123630521165 5.708074536338999, 0.5966947757940473 5.5355269091949735, 0.4906943559311272 5.356519487552336 C0.3846939360682071 5.177512065909698, 0.293389914481702 4.986605799843962, 0.22088135689350796 4.7923713669411505 C0.14837279930531394 4.598136934038339, 0.0924565698842145 4.394672619342066, 0.05564301040196318 4.191112890135468 C0.018829450919711853 3.9875531609288695, 3.7007434154171886e-16 3.7777129578461968, 0 3.571012991701561 C-3.7007434154171886e-16 3.364313025556925, 0.018829450919710222 3.1544728224742515, 0.05564301040196096 2.950913093267653 C0.09245656988421169 2.7473533640610546, 0.14837279930531094 2.543889049364782, 0.2208813568935044 2.3496546164619705 C0.2933899144816979 2.155420183559159, 0.3846939360682023 1.9645139174934225, 0.4906943559311219 1.7855064958507842 C0.5966947757940414 1.606499074208146, 0.7206123630521102 1.4339514470641208, 0.8568838760710218 1.2756100866061413 C0.9931553890899334 1.1172687261481618, 1.1459213688360548 0.9683225102633062, 1.3083234340445915 0.8354583331029066 C1.4707254992531282 0.7025941559425071, 1.6476981544960314 0.5817750067160623, 1.8312962673222417 0.47842502364374395 C2.0148943801484522 0.3750750405714256, 2.2106964863110656 0.2860539867151963, 2.4099121110018533 0.2153584346689965 C2.609127735692641 0.14466288262279675, 2.817809944859862 0.09014478381137825, 3.0265900154669674 0.054251711366545496 C3.235370086074073 0.018358638921712744, 3.4505916949186473 5.921189464667501e-16, 3.662592534644487 0 C3.8745933743703267 -5.921189464667501e-16, 4.089814983214901 0.018358638921710378, 4.298595053822007 0.054251711366541944 C4.507375124429113 0.0901447838113735, 4.716057333596334 0.14466288262279087, 4.9152729582871215 0.2153584346689894 C5.114488582977909 0.28605398671518795, 5.310290689140524 0.375075040571416, 5.493888801966735 0.4784250236437333 C5.677486914792945 0.5817750067160506, 5.854459570035849 0.7025941559424947, 6.016861635244386 0.8354583331028933 C6.179263700452924 0.9683225102632919, 6.332029680199046 1.1172687261481458, 6.468301193217958 1.2756100866061244 C6.604572706236871 1.433951447064103, 6.72849029349494 1.6064990742081275, 6.8344907133578605 1.7855064958507652 C6.940491133220781 1.9645139174934028, 7.031795154807287 2.155420183559139, 7.104303712395482 2.34965461646195 C7.176812269983677 2.5438890493647612, 7.232728499404778 2.7473533640610337, 7.26954205888703 2.9509130932676317 C7.306355618369282 3.1544728224742298, 7.315911234222 3.467663008629218, 7.325185069288994 3.5710129917015387 C7.334458904355989 3.6743629747738593, 7.334458904355988 3.467663008629235, 7.325185069288994 3.5710129917015556" stroke="#ce524a" stroke-width="1.4875" fill="none"></path></g><g transform="translate(10 20.921635399771276) rotate(0 3.6625925346444888 3.5710129917015365)"><path d="M7.325185069288994 3.5710129917015556 C7.325185069288994 3.7777129578461914, 7.306355618369283 3.987553160928865, 7.269542058887032 4.1911128901354635 C7.2327284994047805 4.394672619342062, 7.176812269983682 4.598136934038335, 7.104303712395488 4.792371366941147 C7.031795154807295 4.986605799843959, 6.940491133220789 5.177512065909695, 6.8344907133578685 5.356519487552333 C6.728490293494948 5.535526909194972, 6.604572706236879 5.708074536338997, 6.468301193217967 5.866415896796976 C6.332029680199056 6.024757257254955, 6.179263700452934 6.173703473139811, 6.016861635244397 6.3065676503002095 C5.854459570035861 6.439431827460608, 5.677486914792957 6.560250976687053, 5.4938888019667464 6.663600959759371 C5.310290689140536 6.76695094283169, 5.114488582977922 6.855971996687918, 4.915272958287133 6.926667548734118 C4.7160573335963445 6.997363100780317, 4.507375124429124 7.051881199591735, 4.298595053822018 7.087774272036567 C4.089814983214912 7.123667344481399, 3.874593374370338 7.142025983403111, 3.6625925346444976 7.142025983403111 C3.4505916949186575 7.142025983403111, 3.2353700860740826 7.123667344481399, 3.0265900154669767 7.087774272036567 C2.817809944859871 7.051881199591735, 2.60912773569265 6.997363100780317, 2.409912111001862 6.926667548734118 C2.2106964863110745 6.855971996687918, 2.0148943801484602 6.766950942831689, 1.8312962673222495 6.663600959759371 C1.647698154496039 6.560250976687054, 1.4707254992531356 6.43943182746061, 1.3083234340445986 6.306567650300211 C1.1459213688360617 6.173703473139812, 0.9931553890899404 6.024757257254957, 0.8568838760710284 5.866415896796978 C0.7206123630521165 5.708074536338999, 0.5966947757940473 5.5355269091949735, 0.4906943559311272 5.356519487552336 C0.3846939360682071 5.177512065909698, 0.293389914481702 4.986605799843962, 0.22088135689350796 4.7923713669411505 C0.14837279930531394 4.598136934038339, 0.0924565698842145 4.394672619342066, 0.05564301040196318 4.191112890135468 C0.018829450919711853 3.9875531609288695, 3.7007434154171886e-16 3.7777129578461968, 0 3.571012991701561 C-3.7007434154171886e-16 3.364313025556925, 0.018829450919710222 3.1544728224742515, 0.05564301040196096 2.950913093267653 C0.09245656988421169 2.7473533640610546, 0.14837279930531094 2.543889049364782, 0.2208813568935044 2.3496546164619705 C0.2933899144816979 2.155420183559159, 0.3846939360682023 1.9645139174934225, 0.4906943559311219 1.7855064958507842 C0.5966947757940414 1.606499074208146, 0.7206123630521102 1.4339514470641208, 0.8568838760710218 1.2756100866061413 C0.9931553890899334 1.1172687261481618, 1.1459213688360548 0.9683225102633062, 1.3083234340445915 0.8354583331029066 C1.4707254992531282 0.7025941559425071, 1.6476981544960314 0.5817750067160623, 1.8312962673222417 0.47842502364374395 C2.0148943801484522 0.3750750405714256, 2.2106964863110656 0.2860539867151963, 2.4099121110018533 0.2153584346689965 C2.609127735692641 0.14466288262279675, 2.817809944859862 0.09014478381137825, 3.0265900154669674 0.054251711366545496 C3.235370086074073 0.018358638921712744, 3.4505916949186473 5.921189464667501e-16, 3.662592534644487 0 C3.8745933743703267 -5.921189464667501e-16, 4.089814983214901 0.018358638921710378, 4.298595053822007 0.054251711366541944 C4.507375124429113 0.0901447838113735, 4.716057333596334 0.14466288262279087, 4.9152729582871215 0.2153584346689894 C5.114488582977909 0.28605398671518795, 5.310290689140524 0.375075040571416, 5.493888801966735 0.4784250236437333 C5.677486914792945 0.5817750067160506, 5.854459570035849 0.7025941559424947, 6.016861635244386 0.8354583331028933 C6.179263700452924 0.9683225102632919, 6.332029680199046 1.1172687261481458, 6.468301193217958 1.2756100866061244 C6.604572706236871 1.433951447064103, 6.72849029349494 1.6064990742081275, 6.8344907133578605 1.7855064958507652 C6.940491133220781 1.9645139174934028, 7.031795154807287 2.155420183559139, 7.104303712395482 2.34965461646195 C7.176812269983677 2.5438890493647612, 7.232728499404778 2.7473533640610337, 7.26954205888703 2.9509130932676317 C7.306355618369282 3.1544728224742298, 7.315911234222 3.467663008629218, 7.325185069288994 3.5710129917015387 C7.334458904355989 3.6743629747738593, 7.334458904355988 3.467663008629235, 7.325185069288994 3.5710129917015556" stroke="none" stroke-width="0" fill="transparent"></path><path d="M7.325185069288994 3.5710129917015556 C7.325185069288994 3.7777129578461914, 7.306355618369283 3.987553160928865, 7.269542058887032 4.1911128901354635 C7.2327284994047805 4.394672619342062, 7.176812269983682 4.598136934038335, 7.104303712395488 4.792371366941147 C7.031795154807295 4.986605799843959, 6.940491133220789 5.177512065909695, 6.8344907133578685 5.356519487552333 C6.728490293494948 5.535526909194972, 6.604572706236879 5.708074536338997, 6.468301193217967 5.866415896796976 C6.332029680199056 6.024757257254955, 6.179263700452934 6.173703473139811, 6.016861635244397 6.3065676503002095 C5.854459570035861 6.439431827460608, 5.677486914792957 6.560250976687053, 5.4938888019667464 6.663600959759371 C5.310290689140536 6.76695094283169, 5.114488582977922 6.855971996687918, 4.915272958287133 6.926667548734118 C4.7160573335963445 6.997363100780317, 4.507375124429124 7.051881199591735, 4.298595053822018 7.087774272036567 C4.089814983214912 7.123667344481399, 3.874593374370338 7.142025983403111, 3.6625925346444976 7.142025983403111 C3.4505916949186575 7.142025983403111, 3.2353700860740826 7.123667344481399, 3.0265900154669767 7.087774272036567 C2.817809944859871 7.051881199591735, 2.60912773569265 6.997363100780317, 2.409912111001862 6.926667548734118 C2.2106964863110745 6.855971996687918, 2.0148943801484602 6.766950942831689, 1.8312962673222495 6.663600959759371 C1.647698154496039 6.560250976687054, 1.4707254992531356 6.43943182746061, 1.3083234340445986 6.306567650300211 C1.1459213688360617 6.173703473139812, 0.9931553890899404 6.024757257254957, 0.8568838760710284 5.866415896796978 C0.7206123630521165 5.708074536338999, 0.5966947757940473 5.5355269091949735, 0.4906943559311272 5.356519487552336 C0.3846939360682071 5.177512065909698, 0.293389914481702 4.986605799843962, 0.22088135689350796 4.7923713669411505 C0.14837279930531394 4.598136934038339, 0.0924565698842145 4.394672619342066, 0.05564301040196318 4.191112890135468 C0.018829450919711853 3.9875531609288695, 3.7007434154171886e-16 3.7777129578461968, 0 3.571012991701561 C-3.7007434154171886e-16 3.364313025556925, 0.018829450919710222 3.1544728224742515, 0.05564301040196096 2.950913093267653 C0.09245656988421169 2.7473533640610546, 0.14837279930531094 2.543889049364782, 0.2208813568935044 2.3496546164619705 C0.2933899144816979 2.155420183559159, 0.3846939360682023 1.9645139174934225, 0.4906943559311219 1.7855064958507842 C0.5966947757940414 1.606499074208146, 0.7206123630521102 1.4339514470641208, 0.8568838760710218 1.2756100866061413 C0.9931553890899334 1.1172687261481618, 1.1459213688360548 0.9683225102633062, 1.3083234340445915 0.8354583331029066 C1.4707254992531282 0.7025941559425071, 1.6476981544960314 0.5817750067160623, 1.8312962673222417 0.47842502364374395 C2.0148943801484522 0.3750750405714256, 2.2106964863110656 0.2860539867151963, 2.4099121110018533 0.2153584346689965 C2.609127735692641 0.14466288262279675, 2.817809944859862 0.09014478381137825, 3.0265900154669674 0.054251711366545496 C3.235370086074073 0.018358638921712744, 3.4505916949186473 5.921189464667501e-16, 3.662592534644487 0 C3.8745933743703267 -5.921189464667501e-16, 4.089814983214901 0.018358638921710378, 4.298595053822007 0.054251711366541944 C4.507375124429113 0.0901447838113735, 4.716057333596334 0.14466288262279087, 4.9152729582871215 0.2153584346689894 C5.114488582977909 0.28605398671518795, 5.310290689140524 0.375075040571416, 5.493888801966735 0.4784250236437333 C5.677486914792945 0.5817750067160506, 5.854459570035849 0.7025941559424947, 6.016861635244386 0.8354583331028933 C6.179263700452924 0.9683225102632919, 6.332029680199046 1.1172687261481458, 6.468301193217958 1.2756100866061244 C6.604572706236871 1.433951447064103, 6.72849029349494 1.6064990742081275, 6.8344907133578605 1.7855064958507652 C6.940491133220781 1.9645139174934028, 7.031795154807287 2.155420183559139, 7.104303712395482 2.34965461646195 C7.176812269983677 2.5438890493647612, 7.232728499404778 2.7473533640610337, 7.26954205888703 2.9509130932676317 C7.306355618369282 3.1544728224742298, 7.315911234222 3.467663008629218, 7.325185069288994 3.5710129917015387 C7.334458904355989 3.6743629747738593, 7.334458904355988 3.467663008629235, 7.325185069288994 3.5710129917015556" stroke="#ce524a" stroke-width="1.4875" fill="none"></path></g><g transform="translate(25.154555625041496 28.427978318913006) rotate(0 7.7593361444769755 7.67632694121221)"><path d="M15.518672288953931 7.6763269412121815 C15.518672288953931 8.120653669384534, 15.478781409004831 8.571730718954559, 15.400790537785735 9.009307125729238 C15.322799666566638 9.446883532503918, 15.204339090920838 9.884254834178758, 15.050727061639352 10.301785381860263 C14.897115032357865 10.719315929541768, 14.703684125662415 11.129692177640592, 14.47911836209682 11.514490411818272 C14.254552598531225 11.899288645995952, 13.992028661005303 12.270200765880675, 13.70333248024578 12.610574786926342 C13.414636299486258 12.95094880797201, 13.090995988128071 13.271126822570528, 12.746941277539683 13.556734538092275 C12.402886566951295 13.842342253614023, 12.02796352885156 14.10205771597065, 11.639004216715449 14.324221080056827 C11.250044904579338 14.546384444143003, 10.835230986530505 14.737746031356398, 10.41318540472302 14.88971472260933 C9.991139822915535 15.041683413862263, 9.549038935911547 15.158876700938587, 9.106730725870538 15.236033227574426 C8.664422515829528 15.313189754210265, 8.208467671608156 15.352653882424363, 7.759336144476967 15.352653882424363 C7.310204617345776 15.352653882424363, 6.854249773124405 15.313189754210264, 6.411941563083396 15.236033227574426 C5.969633353042386 15.158876700938588, 5.527532466038398 15.041683413862266, 5.1054868842309125 14.889714722609332 C4.683441302423427 14.737746031356398, 4.268627384374595 14.546384444143001, 3.8796680722384846 14.324221080056827 C3.4907087601023745 14.102057715970652, 3.1157857220026393 13.842342253614026, 2.771731011414251 13.556734538092279 C2.4276763008258624 13.271126822570531, 2.1040359894676763 12.950948807972013, 1.8153398087081536 12.610574786926346 C1.526643627948631 12.270200765880679, 1.2641196904227103 11.899288645995956, 1.0395539268571152 11.514490411818278 C0.8149881632915202 11.1296921776406, 0.6215572565960698 10.719315929541777, 0.46794522731458343 10.301785381860272 C0.3143331980330971 9.884254834178767, 0.1958726223872948 9.446883532503927, 0.11788175116819755 9.009307125729247 C0.0398908799491003 8.571730718954568, 7.401486830834377e-16 8.120653669384545, 0 7.676326941212193 C-7.401486830834377e-16 7.232000213039841, 0.039890879949097194 6.780923163469817, 0.1178817511681931 6.343346756695137 C0.19587262238728903 5.9057703499204575, 0.31433319803309034 5.468399048245618, 0.46794522731457544 5.050868500564112 C0.6215572565960605 4.633337952882607, 0.8149881632915097 4.222961704783785, 1.0395539268571037 3.8381634706061045 C1.2641196904226977 3.4533652364284246, 1.5266436279486173 3.0824531165437006, 1.8153398087081394 2.742079095498033 C2.1040359894676617 2.4017050744523654, 2.4276763008258486 2.0815270598538462, 2.7717310114142366 1.7959193443320984 C3.1157857220026246 1.5103116288103506, 3.4907087601023585 1.250596166453723, 3.879668072238468 1.0284328023675462 C4.268627384374578 0.8062694382813693, 4.683441302423409 0.6149078510679714, 5.105486884230894 0.4629391598150372 C5.5275324660383784 0.310970468562103, 5.969633353042367 0.19377718148578021, 6.411941563083375 0.11662065484994066 C6.854249773124383 0.03946412821410113, 7.310204617345754 1.3322676295501878e-15, 7.7593361444769435 0 C8.208467671608133 -1.3322676295501878e-15, 8.664422515829504 0.03946412821409566, 9.106730725870513 0.11662065484993267 C9.549038935911522 0.19377718148576967, 9.99113982291551 0.3109704685620902, 10.413185404722995 0.4629391598150221 C10.83523098653048 0.614907851067954, 11.250044904579315 0.8062694382813493, 11.639004216715426 1.028432802367524 C12.027963528851537 1.2505961664536986, 12.40288656695127 1.5103116288103244, 12.74694127753966 1.79591934433207 C13.09099598812805 2.0815270598538156, 13.414636299486238 2.401705074452332, 13.703332480245763 2.7420790954979974 C13.992028661005287 3.082453116543663, 14.254552598531207 3.453365236428385, 14.479118362096804 3.8381634706060637 C14.7036841256624 4.222961704783742, 14.897115032357851 4.633337952882563, 15.05072706163934 5.050868500564068 C15.204339090920827 5.468399048245573, 15.322799666566631 5.905770349920411, 15.40079053778573 6.343346756695091 C15.478781409004828 6.780923163469771, 15.499025330425898 7.454163577125964, 15.518672288953931 7.676326941212146 C15.538319247481965 7.898490305298328, 15.538319247481965 7.454163577126, 15.518672288953931 7.6763269412121815" stroke="none" stroke-width="0" fill="transparent"></path><path d="M15.518672288953931 7.6763269412121815 C15.518672288953931 8.120653669384534, 15.478781409004831 8.571730718954559, 15.400790537785735 9.009307125729238 C15.322799666566638 9.446883532503918, 15.204339090920838 9.884254834178758, 15.050727061639352 10.301785381860263 C14.897115032357865 10.719315929541768, 14.703684125662415 11.129692177640592, 14.47911836209682 11.514490411818272 C14.254552598531225 11.899288645995952, 13.992028661005303 12.270200765880675, 13.70333248024578 12.610574786926342 C13.414636299486258 12.95094880797201, 13.090995988128071 13.271126822570528, 12.746941277539683 13.556734538092275 C12.402886566951295 13.842342253614023, 12.02796352885156 14.10205771597065, 11.639004216715449 14.324221080056827 C11.250044904579338 14.546384444143003, 10.835230986530505 14.737746031356398, 10.41318540472302 14.88971472260933 C9.991139822915535 15.041683413862263, 9.549038935911547 15.158876700938587, 9.106730725870538 15.236033227574426 C8.664422515829528 15.313189754210265, 8.208467671608156 15.352653882424363, 7.759336144476967 15.352653882424363 C7.310204617345776 15.352653882424363, 6.854249773124405 15.313189754210264, 6.411941563083396 15.236033227574426 C5.969633353042386 15.158876700938588, 5.527532466038398 15.041683413862266, 5.1054868842309125 14.889714722609332 C4.683441302423427 14.737746031356398, 4.268627384374595 14.546384444143001, 3.8796680722384846 14.324221080056827 C3.4907087601023745 14.102057715970652, 3.1157857220026393 13.842342253614026, 2.771731011414251 13.556734538092279 C2.4276763008258624 13.271126822570531, 2.1040359894676763 12.950948807972013, 1.8153398087081536 12.610574786926346 C1.526643627948631 12.270200765880679, 1.2641196904227103 11.899288645995956, 1.0395539268571152 11.514490411818278 C0.8149881632915202 11.1296921776406, 0.6215572565960698 10.719315929541777, 0.46794522731458343 10.301785381860272 C0.3143331980330971 9.884254834178767, 0.1958726223872948 9.446883532503927, 0.11788175116819755 9.009307125729247 C0.0398908799491003 8.571730718954568, 7.401486830834377e-16 8.120653669384545, 0 7.676326941212193 C-7.401486830834377e-16 7.232000213039841, 0.039890879949097194 6.780923163469817, 0.1178817511681931 6.343346756695137 C0.19587262238728903 5.9057703499204575, 0.31433319803309034 5.468399048245618, 0.46794522731457544 5.050868500564112 C0.6215572565960605 4.633337952882607, 0.8149881632915097 4.222961704783785, 1.0395539268571037 3.8381634706061045 C1.2641196904226977 3.4533652364284246, 1.5266436279486173 3.0824531165437006, 1.8153398087081394 2.742079095498033 C2.1040359894676617 2.4017050744523654, 2.4276763008258486 2.0815270598538462, 2.7717310114142366 1.7959193443320984 C3.1157857220026246 1.5103116288103506, 3.4907087601023585 1.250596166453723, 3.879668072238468 1.0284328023675462 C4.268627384374578 0.8062694382813693, 4.683441302423409 0.6149078510679714, 5.105486884230894 0.4629391598150372 C5.5275324660383784 0.310970468562103, 5.969633353042367 0.19377718148578021, 6.411941563083375 0.11662065484994066 C6.854249773124383 0.03946412821410113, 7.310204617345754 1.3322676295501878e-15, 7.7593361444769435 0 C8.208467671608133 -1.3322676295501878e-15, 8.664422515829504 0.03946412821409566, 9.106730725870513 0.11662065484993267 C9.549038935911522 0.19377718148576967, 9.99113982291551 0.3109704685620902, 10.413185404722995 0.4629391598150221 C10.83523098653048 0.614907851067954, 11.250044904579315 0.8062694382813493, 11.639004216715426 1.028432802367524 C12.027963528851537 1.2505961664536986, 12.40288656695127 1.5103116288103244, 12.74694127753966 1.79591934433207 C13.09099598812805 2.0815270598538156, 13.414636299486238 2.401705074452332, 13.703332480245763 2.7420790954979974 C13.992028661005287 3.082453116543663, 14.254552598531207 3.453365236428385, 14.479118362096804 3.8381634706060637 C14.7036841256624 4.222961704783742, 14.897115032357851 4.633337952882563, 15.05072706163934 5.050868500564068 C15.204339090920827 5.468399048245573, 15.322799666566631 5.905770349920411, 15.40079053778573 6.343346756695091 C15.478781409004828 6.780923163469771, 15.499025330425898 7.454163577125964, 15.518672288953931 7.676326941212146 C15.538319247481965 7.898490305298328, 15.538319247481965 7.454163577126, 15.518672288953931 7.6763269412121815" stroke="#ce524a" stroke-width="1.4875" fill="none"></path></g><g><g transform="translate(25.18434931973917 53.43493481005305) rotate(0 0.0006445886314736526 2.6093765574898384)"><path d="M0 0 M0 0 C-0.08349027619620722 1.5474564201481598, 0.08617606216062966 3.2241085562547256, 0 5.218753114979668" stroke="#ce524a" stroke-width="1.4875" fill="none"></path></g></g><g><g transform="translate(40.673227913994936 53.37569629451434) rotate(0 -0.0038348566620811653 2.6093765574898384)"><path d="M0 0 M0 0 C0.068174165555395 1.37246383376247, -0.08415273498068308 2.477531903496118, 0 5.218753114979668" stroke="#ce524a" stroke-width="1.4875" fill="none"></path></g></g><g transform="translate(37.51351746539598 46.947496492304595) rotate(0 4.475742026011744 5.059466127523592)" stroke="none" fill="#ce524a"><path d="M -0.07,-1.55 Q -0.07,-1.55 0.20,-1.58 0.47,-1.61 1.16,-1.65 1.84,-1.68 2.49,-1.56 3.14,-1.43 3.77,-1.15 4.40,-0.88 4.96,-0.53 5.51,-0.18 6.05,0.35 6.60,0.89 7.00,1.49 7.41,2.09 7.79,2.61 8.17,3.13 8.47,3.81 8.77,4.48 8.98,5.11 9.19,5.74 9.33,6.44 9.47,7.14 9.07,9.40 8.68,11.65 8.57,11.66 8.45,11.66 8.35,11.63 8.24,11.60 8.15,11.54 8.05,11.48 7.99,11.39 7.92,11.30 7.88,11.19 7.85,11.08 7.85,10.97 7.85,10.86 7.89,10.75 7.92,10.65 7.99,10.56 8.06,10.47 8.15,10.41 8.25,10.35 8.35,10.32 8.46,10.29 8.57,10.29 8.69,10.30 8.79,10.34 8.89,10.38 8.98,10.46 9.06,10.53 9.12,10.63 9.18,10.72 9.20,10.83 9.23,10.94 9.21,11.05 9.20,11.17 9.15,11.27 9.10,11.37 9.03,11.45 8.95,11.53 8.85,11.58 8.75,11.63 8.64,11.65 8.53,11.67 8.42,11.65 8.31,11.63 8.21,11.58 8.11,11.53 8.03,11.44 7.96,11.36 7.91,11.26 7.86,11.16 7.85,11.05 7.84,10.93 7.87,10.83 7.89,10.72 7.95,10.62 8.01,10.52 8.09,10.45 8.18,10.38 8.28,10.34 8.39,10.30 8.39,10.30 8.39,10.30 8.18,8.56 7.97,6.83 7.83,6.16 7.69,5.49 7.42,4.82 7.15,4.16 6.80,3.58 6.45,3.01 6.01,2.35 5.57,1.70 5.04,1.25 4.51,0.79 3.94,0.41 3.37,0.03 2.69,-0.13 2.01,-0.30 1.32,-0.27 0.63,-0.23 0.35,-0.20 0.07,-0.17 -0.00,-0.17 -0.09,-0.17 -0.17,-0.19 -0.25,-0.21 -0.32,-0.25 -0.39,-0.29 -0.46,-0.35 -0.52,-0.40 -0.57,-0.47 -0.61,-0.54 -0.64,-0.62 -0.67,-0.70 -0.68,-0.78 -0.69,-0.86 -0.68,-0.95 -0.67,-1.03 -0.64,-1.11 -0.61,-1.19 -0.56,-1.25 -0.51,-1.32 -0.45,-1.38 -0.38,-1.43 -0.31,-1.47 -0.23,-1.51 -0.15,-1.53 -0.07,-1.55 -0.07,-1.55 L -0.07,-1.55 Z"></path></g><g transform="translate(20.335119082826225 133.98730212810403) rotate(0 8.984347596487765 -81.94053387247641)" stroke="none" fill="#ce524a"><path d="M -1.55,-75.80 Q -1.55,-75.80 -1.58,-76.08 -1.61,-76.35 -1.65,-77.05 -1.69,-77.75 -1.69,-78.45 -1.69,-79.15 -1.56,-79.85 -1.43,-80.54 -1.22,-81.24 -1.02,-81.93 -0.68,-82.69 -0.33,-83.45 0.08,-84.14 0.49,-84.83 0.87,-85.39 1.24,-85.94 1.73,-86.39 2.22,-86.85 2.75,-87.23 3.27,-87.62 3.92,-87.84 4.56,-88.06 5.26,-88.21 5.95,-88.35 6.65,-88.45 7.35,-88.55 8.00,-88.55 8.64,-88.56 9.33,-88.29 10.01,-88.01 10.64,-87.79 11.27,-87.57 11.93,-87.51 12.60,-87.45 13.26,-87.51 13.91,-87.57 14.59,-87.81 15.27,-88.05 16.72,-87.79 18.17,-87.53 18.11,-87.63 18.05,-87.72 18.02,-87.83 18.00,-87.94 18.01,-88.05 18.02,-88.16 18.06,-88.26 18.10,-88.37 18.18,-88.45 18.25,-88.53 18.35,-88.59 18.45,-88.65 18.56,-88.67 18.67,-88.69 18.78,-88.67 18.89,-88.66 18.99,-88.61 19.09,-88.56 19.17,-88.48 19.25,-88.40 19.30,-88.30 19.35,-88.20 19.37,-88.09 19.38,-87.98 19.36,-87.87 19.34,-87.76 19.28,-87.66 19.23,-87.56 19.15,-87.49 19.06,-87.41 18.96,-87.37 18.86,-87.32 18.75,-87.31 18.63,-87.30 18.52,-87.33 18.42,-87.36 18.32,-87.42 18.23,-87.48 18.16,-87.57 18.09,-87.65 18.05,-87.76 18.01,-87.86 18.00,-87.98 18.00,-88.09 18.03,-88.19 18.07,-88.30 18.13,-88.39 18.20,-88.48 18.29,-88.55 18.38,-88.62 18.49,-88.65 18.59,-88.68 18.71,-88.68 18.82,-88.68 18.92,-88.64 19.03,-88.60 19.12,-88.53 19.20,-88.46 19.20,-88.46 19.20,-88.46 17.36,-87.60 15.52,-86.74 14.83,-86.47 14.13,-86.19 13.43,-86.13 12.73,-86.06 12.09,-86.07 11.44,-86.08 10.83,-86.32 10.21,-86.56 9.61,-86.82 9.01,-87.09 8.33,-87.12 7.64,-87.16 6.96,-87.09 6.27,-87.01 5.63,-86.87 4.99,-86.73 4.35,-86.54 3.71,-86.34 3.19,-85.89 2.67,-85.45 2.21,-84.91 1.75,-84.38 1.41,-83.83 1.07,-83.29 0.77,-82.67 0.47,-82.05 0.24,-81.33 0.01,-80.61 -0.14,-79.95 -0.30,-79.29 -0.30,-78.60 -0.30,-77.91 -0.27,-77.21 -0.23,-76.51 -0.20,-76.23 -0.17,-75.95 -0.17,-75.87 -0.17,-75.79 -0.19,-75.70 -0.21,-75.62 -0.25,-75.55 -0.29,-75.48 -0.35,-75.41 -0.40,-75.35 -0.47,-75.31 -0.54,-75.26 -0.62,-75.23 -0.70,-75.20 -0.78,-75.19 -0.86,-75.18 -0.95,-75.19 -1.03,-75.20 -1.11,-75.24 -1.19,-75.27 -1.25,-75.31 -1.32,-75.36 -1.38,-75.43 -1.43,-75.49 -1.47,-75.56 -1.51,-75.64 -1.53,-75.72 -1.55,-75.80 -1.55,-75.80 L -1.55,-75.80 Z"></path></g></svg>