<svg version="1.1" xmlns="http://www.w3.org/2000/svg" viewBox="0 0 75.60089166670173 75.64150675664257" width="151.20178333340345" height="151.28301351328514">
  <!-- svg-source:excalidraw -->
  
  <g transform="translate(33.75509042662421 33.90329203568717) rotate(0 3.720503521124016 3.739542581802141)"><path d="M7.441007042248041 3.7395425818021417 C7.441007042248041 3.955997500014752, 7.4218798699554736 4.17574085480657, 7.384484233836176 4.3889073364399716 C7.347088597716878 4.602073818073373, 7.290288250290469 4.815140382225345, 7.216633225532252 5.018541471602552 C7.142978200774036 5.221942560979758, 7.050230528027974 5.4218584147570095, 6.942554085286877 5.609313872703212 C6.834877642545779 5.796769330649415, 6.709000735583867 5.977460131997228, 6.570574569085668 6.14327421927977 C6.432148402587469 6.3090883065623125, 6.276966967530955 6.465063856915689, 6.1119970862976825 6.604198396398468 C5.94702720506441 6.743332935881247, 5.767256351291893 6.869853997070138, 5.580755281686032 6.978081456176444 C5.39425421208017 7.086308915282749, 5.1953561860150845 7.179531208885675, 4.992990668662514 7.253563151036298 C4.790625151309943 7.327595093186921, 4.57864336882702 7.384686106985516, 4.3665621775706045 7.42227310908018 C4.154480986314189 7.459860111174844, 3.9358564066062156 7.479085163604283, 3.720503521124021 7.479085163604283 C3.5051506356418267 7.479085163604283, 3.2865260559338525 7.459860111174844, 3.074444864677437 7.42227310908018 C2.8623636734210214 7.384686106985516, 2.6503818909380987 7.327595093186922, 2.448016373585528 7.253563151036299 C2.245650856232957 7.179531208885676, 2.046752830167873 7.086308915282748, 1.8602517605620112 6.978081456176444 C1.67375069095615 6.869853997070139, 1.4939798371836321 6.743332935881249, 1.3290099559503594 6.60419839639847 C1.1640400747170867 6.465063856915691, 1.0088586396605737 6.309088306562314, 0.8704324731623747 6.143274219279772 C0.7320063066641759 5.97746013199723, 0.6061293997022635 5.796769330649418, 0.4984529569611662 5.609313872703216 C0.3907765142200689 5.421858414757013, 0.29802884147400754 5.221942560979762, 0.22437381671579093 5.018541471602555 C0.15071879195757432 4.815140382225349, 0.09391844453116502 4.602073818073377, 0.05652280841186652 4.388907336439976 C0.01912717229256803 4.175740854806575, 2.9605947323337506e-16 3.9559975000147567, 0 3.739542581802147 C-2.9605947323337506e-16 3.5230876635895374, 0.01912717229256685 3.3033443087977195, 0.056522808411864744 3.090177827164318 C0.09391844453116263 2.8770113455309168, 0.15071879195757137 2.6639447813789454, 0.22437381671578738 2.4605436920017385 C0.2980288414740034 2.2571426026245316, 0.3907765142200641 2.0572267488472806, 0.4984529569611609 1.8697712909010775 C0.6061293997022577 1.6823158329548744, 0.7320063066641694 1.5016250316070623, 0.870432473162368 1.3358109443245194 C1.0088586396605668 1.1699968570419765, 1.1640400747170803 1.014021306688599, 1.3290099559503528 0.8748867672058198 C1.4939798371836253 0.7357522277230406, 1.6737506909561422 0.6092311665341494, 1.8602517605620033 0.5010037074278442 C2.0467528301678644 0.3927762483215389, 2.245650856232949 0.2995539547186114, 2.4480163735855194 0.2255220125679882 C2.65038189093809 0.151490070417365, 2.862363673421012 0.0943990566187698, 3.074444864677427 0.05681205452410509 C3.2865260559338423 0.019225052429440392, 3.5051506356418156 5.921189464667501e-16, 3.72050352112401 0 C3.9358564066062045 -5.921189464667501e-16, 4.154480986314177 0.019225052429438096, 4.366562177570593 0.05681205452410154 C4.5786433688270085 0.09439905661876499, 4.790625151309931 0.15149007041735868, 4.992990668662502 0.22552201256798066 C5.195356186015073 0.29955395471860263, 5.394254212080159 0.3927762483215293, 5.58075528168602 0.5010037074278335 C5.7672563512918815 0.6092311665341378, 5.947027205064399 0.735752227723028, 6.111997086297672 0.874886767205806 C6.276966967530945 1.0140213066885841, 6.43214840258746 1.16999685704196, 6.570574569085659 1.335810944324502 C6.709000735583858 1.501625031607044, 6.834877642545771 1.682315832954855, 6.942554085286869 1.8697712909010575 C7.050230528027966 2.0572267488472598, 7.14297820077403 2.2571426026245103, 7.216633225532247 2.4605436920017167 C7.290288250290464 2.663944781378923, 7.347088597716873 2.877011345530894, 7.384484233836172 3.0901778271642955 C7.421879869955472 3.303344308797697, 7.431586574179397 3.631315122695817, 7.441007042248041 3.7395425818021244 C7.450427510316686 3.847770040908432, 7.450427510316686 3.631315122695834, 7.441007042248041 3.7395425818021417" stroke="none" stroke-width="0" fill="#ce524a"></path><path d="M7.441007042248041 3.7395425818021417 C7.441007042248041 3.955997500014752, 7.4218798699554736 4.17574085480657, 7.384484233836176 4.3889073364399716 C7.347088597716878 4.602073818073373, 7.290288250290469 4.815140382225345, 7.216633225532252 5.018541471602552 C7.142978200774036 5.221942560979758, 7.050230528027974 5.4218584147570095, 6.942554085286877 5.609313872703212 C6.834877642545779 5.796769330649415, 6.709000735583867 5.977460131997228, 6.570574569085668 6.14327421927977 C6.432148402587469 6.3090883065623125, 6.276966967530955 6.465063856915689, 6.1119970862976825 6.604198396398468 C5.94702720506441 6.743332935881247, 5.767256351291893 6.869853997070138, 5.580755281686032 6.978081456176444 C5.39425421208017 7.086308915282749, 5.1953561860150845 7.179531208885675, 4.992990668662514 7.253563151036298 C4.790625151309943 7.327595093186921, 4.57864336882702 7.384686106985516, 4.3665621775706045 7.42227310908018 C4.154480986314189 7.459860111174844, 3.9358564066062156 7.479085163604283, 3.720503521124021 7.479085163604283 C3.5051506356418267 7.479085163604283, 3.2865260559338525 7.459860111174844, 3.074444864677437 7.42227310908018 C2.8623636734210214 7.384686106985516, 2.6503818909380987 7.327595093186922, 2.448016373585528 7.253563151036299 C2.245650856232957 7.179531208885676, 2.046752830167873 7.086308915282748, 1.8602517605620112 6.978081456176444 C1.67375069095615 6.869853997070139, 1.4939798371836321 6.743332935881249, 1.3290099559503594 6.60419839639847 C1.1640400747170867 6.465063856915691, 1.0088586396605737 6.309088306562314, 0.8704324731623747 6.143274219279772 C0.7320063066641759 5.97746013199723, 0.6061293997022635 5.796769330649418, 0.4984529569611662 5.609313872703216 C0.3907765142200689 5.421858414757013, 0.29802884147400754 5.221942560979762, 0.22437381671579093 5.018541471602555 C0.15071879195757432 4.815140382225349, 0.09391844453116502 4.602073818073377, 0.05652280841186652 4.388907336439976 C0.01912717229256803 4.175740854806575, 2.9605947323337506e-16 3.9559975000147567, 0 3.739542581802147 C-2.9605947323337506e-16 3.5230876635895374, 0.01912717229256685 3.3033443087977195, 0.056522808411864744 3.090177827164318 C0.09391844453116263 2.8770113455309168, 0.15071879195757137 2.6639447813789454, 0.22437381671578738 2.4605436920017385 C0.2980288414740034 2.2571426026245316, 0.3907765142200641 2.0572267488472806, 0.4984529569611609 1.8697712909010775 C0.6061293997022577 1.6823158329548744, 0.7320063066641694 1.5016250316070623, 0.870432473162368 1.3358109443245194 C1.0088586396605668 1.1699968570419765, 1.1640400747170803 1.014021306688599, 1.3290099559503528 0.8748867672058198 C1.4939798371836253 0.7357522277230406, 1.6737506909561422 0.6092311665341494, 1.8602517605620033 0.5010037074278442 C2.0467528301678644 0.3927762483215389, 2.245650856232949 0.2995539547186114, 2.4480163735855194 0.2255220125679882 C2.65038189093809 0.151490070417365, 2.862363673421012 0.0943990566187698, 3.074444864677427 0.05681205452410509 C3.2865260559338423 0.019225052429440392, 3.5051506356418156 5.921189464667501e-16, 3.72050352112401 0 C3.9358564066062045 -5.921189464667501e-16, 4.154480986314177 0.019225052429438096, 4.366562177570593 0.05681205452410154 C4.5786433688270085 0.09439905661876499, 4.790625151309931 0.15149007041735868, 4.992990668662502 0.22552201256798066 C5.195356186015073 0.29955395471860263, 5.394254212080159 0.3927762483215293, 5.58075528168602 0.5010037074278335 C5.7672563512918815 0.6092311665341378, 5.947027205064399 0.735752227723028, 6.111997086297672 0.874886767205806 C6.276966967530945 1.0140213066885841, 6.43214840258746 1.16999685704196, 6.570574569085659 1.335810944324502 C6.709000735583858 1.501625031607044, 6.834877642545771 1.682315832954855, 6.942554085286869 1.8697712909010575 C7.050230528027966 2.0572267488472598, 7.14297820077403 2.2571426026245103, 7.216633225532247 2.4605436920017167 C7.290288250290464 2.663944781378923, 7.347088597716873 2.877011345530894, 7.384484233836172 3.0901778271642955 C7.421879869955472 3.303344308797697, 7.431586574179397 3.631315122695817, 7.441007042248041 3.7395425818021244 C7.450427510316686 3.847770040908432, 7.450427510316686 3.631315122695834, 7.441007042248041 3.7395425818021417" stroke="#ce524a" stroke-width="1.4875" fill="none"></path></g><g transform="translate(28.617779889635017 28.576601724391708) rotate(0 8.996259504662433 9.038209977343286)"><path d="M17.992519009324866 9.03820997734329 C17.992519009324866 9.561366207988867, 17.94626908520644 10.092470357303613, 17.855845612963762 10.60767866928002 C17.765422140721085 11.122886981256427, 17.628077648906554 11.637853799745912, 17.449978175868814 12.12945984920173 C17.271878702831074 12.621065898657548, 17.04761278620455 13.104248380127752, 16.78724877473731 13.557314966014932 C16.526884763270072 14.010381551902112, 16.22251162822423 14.447098441155697, 15.887794107065378 14.847859364524812 C15.553076585906528 15.248620287893926, 15.177844456129497 15.625602163240329, 14.778943647784208 15.961880506229619 C14.38004283943892 16.298158849218908, 13.945352953317354 16.603951307137766, 13.49438925699365 16.865529422460554 C13.043425560669945 17.127107537783342, 12.562485750429952 17.352419229179233, 12.073161469841988 17.53134919816635 C11.583837189254025 17.710279167153466, 11.07126056766246 17.848264110296547, 10.558443573465867 17.939109236383253 C10.045626579269275 18.029954362469958, 9.51698752759691 18.07641995468658, 8.996259504662433 18.07641995468658 C8.475531481727955 18.07641995468658, 7.946892430055593 18.029954362469958, 7.434075435859 17.939109236383253 C6.921258441662408 17.848264110296547, 6.408681820070841 17.71027916715347, 5.919357539482878 17.531349198166353 C5.430033258894914 17.352419229179237, 4.949093448654921 17.127107537783342, 4.498129752331218 16.865529422460554 C4.047166056007516 16.603951307137766, 3.6124761698859484 16.29815884921891, 3.21357536154066 15.961880506229623 C2.814674553195372 15.625602163240334, 2.4394424234183396 15.248620287893932, 2.1047249022594894 14.847859364524817 C1.7700073811006392 14.447098441155703, 1.4656342460547975 14.010381551902121, 1.2052702345875588 13.55731496601494 C0.94490622312032 13.10424838012776, 0.7206403064937993 12.621065898657557, 0.5425408334560569 12.129459849201739 C0.36444136041831443 11.63785379974592, 0.22709686860378014 11.122886981256437, 0.13667339636110398 10.60767866928003 C0.046249924118427835 10.092470357303624, 5.921189464667501e-16 9.561366207988877, 0 9.038209977343302 C-5.921189464667501e-16 8.515053746697726, 0.04624992411842577 7.9839495973829795, 0.13667339636110043 7.468741285406574 C0.2270968686037751 6.953532973430168, 0.364441360418307 6.438566154940683, 0.542540833456048 5.946960105484864 C0.720640306493789 5.455354056029045, 0.9449062231203087 4.972171574558841, 1.2052702345875463 4.5191049886716605 C1.465634246054784 4.06603840278448, 1.7700073811006238 3.6293215135308965, 2.1047249022594734 3.2285605901617815 C2.4394424234183227 2.8277996667926666, 2.8146745531953554 2.4508177914462608, 3.2135753615406433 2.11453944845697 C3.612476169885931 1.778261105467679, 4.047166056007497 1.4724686475488247, 4.4981297523312 1.2108905322260357 C4.949093448654902 0.9493124169032467, 5.430033258894895 0.7240007255073535, 5.919357539482857 0.5450707565202357 C6.40868182007082 0.36614078753311796, 6.921258441662385 0.22815584439003506, 7.4340754358589765 0.13731071830332908 C7.946892430055568 0.04646559221662312, 8.47553148172793 1.4802973661668755e-15, 8.996259504662408 0 C9.516987527596886 -1.4802973661668755e-15, 10.045626579269246 0.04646559221661721, 10.558443573465839 0.1373107183033202 C11.071260567662431 0.22815584439002318, 11.583837189253996 0.3661407875331032, 12.07316146984196 0.545070756520218 C12.562485750429923 0.7240007255073327, 13.043425560669919 0.9493124169032225, 13.494389256993623 1.210890532226009 C13.945352953317327 1.4724686475487956, 14.380042839438893 1.7782611054676487, 14.778943647784182 2.114539448456937 C15.17784445612947 2.4508177914462252, 15.553076585906505 2.827799666792626, 15.887794107065357 3.228560590161739 C16.222511628224208 3.6293215135308516, 16.526884763270054 4.066038402784434, 16.787248774737293 4.519104988671613 C17.04761278620453 4.972171574558791, 17.271878702831057 5.455354056028994, 17.4499781758688 5.946960105484812 C17.628077648906544 6.43856615494063, 17.76542214072108 6.9535329734301135, 17.855845612963755 7.468741285406519 C17.94626908520643 7.983949597382925, 17.969740109931347 8.776631862020452, 17.992519009324866 9.038209977343246 C18.015297908718384 9.299788092666041, 18.015297908718384 8.776631862020494, 17.992519009324866 9.03820997734329" stroke="none" stroke-width="0" fill="transparent"></path><path d="M17.992519009324866 9.03820997734329 C17.992519009324866 9.561366207988867, 17.94626908520644 10.092470357303613, 17.855845612963762 10.60767866928002 C17.765422140721085 11.122886981256427, 17.628077648906554 11.637853799745912, 17.449978175868814 12.12945984920173 C17.271878702831074 12.621065898657548, 17.04761278620455 13.104248380127752, 16.78724877473731 13.557314966014932 C16.526884763270072 14.010381551902112, 16.22251162822423 14.447098441155697, 15.887794107065378 14.847859364524812 C15.553076585906528 15.248620287893926, 15.177844456129497 15.625602163240329, 14.778943647784208 15.961880506229619 C14.38004283943892 16.298158849218908, 13.945352953317354 16.603951307137766, 13.49438925699365 16.865529422460554 C13.043425560669945 17.127107537783342, 12.562485750429952 17.352419229179233, 12.073161469841988 17.53134919816635 C11.583837189254025 17.710279167153466, 11.07126056766246 17.848264110296547, 10.558443573465867 17.939109236383253 C10.045626579269275 18.029954362469958, 9.51698752759691 18.07641995468658, 8.996259504662433 18.07641995468658 C8.475531481727955 18.07641995468658, 7.946892430055593 18.029954362469958, 7.434075435859 17.939109236383253 C6.921258441662408 17.848264110296547, 6.408681820070841 17.71027916715347, 5.919357539482878 17.531349198166353 C5.430033258894914 17.352419229179237, 4.949093448654921 17.127107537783342, 4.498129752331218 16.865529422460554 C4.047166056007516 16.603951307137766, 3.6124761698859484 16.29815884921891, 3.21357536154066 15.961880506229623 C2.814674553195372 15.625602163240334, 2.4394424234183396 15.248620287893932, 2.1047249022594894 14.847859364524817 C1.7700073811006392 14.447098441155703, 1.4656342460547975 14.010381551902121, 1.2052702345875588 13.55731496601494 C0.94490622312032 13.10424838012776, 0.7206403064937993 12.621065898657557, 0.5425408334560569 12.129459849201739 C0.36444136041831443 11.63785379974592, 0.22709686860378014 11.122886981256437, 0.13667339636110398 10.60767866928003 C0.046249924118427835 10.092470357303624, 5.921189464667501e-16 9.561366207988877, 0 9.038209977343302 C-5.921189464667501e-16 8.515053746697726, 0.04624992411842577 7.9839495973829795, 0.13667339636110043 7.468741285406574 C0.2270968686037751 6.953532973430168, 0.364441360418307 6.438566154940683, 0.542540833456048 5.946960105484864 C0.720640306493789 5.455354056029045, 0.9449062231203087 4.972171574558841, 1.2052702345875463 4.5191049886716605 C1.465634246054784 4.06603840278448, 1.7700073811006238 3.6293215135308965, 2.1047249022594734 3.2285605901617815 C2.4394424234183227 2.8277996667926666, 2.8146745531953554 2.4508177914462608, 3.2135753615406433 2.11453944845697 C3.612476169885931 1.778261105467679, 4.047166056007497 1.4724686475488247, 4.4981297523312 1.2108905322260357 C4.949093448654902 0.9493124169032467, 5.430033258894895 0.7240007255073535, 5.919357539482857 0.5450707565202357 C6.40868182007082 0.36614078753311796, 6.921258441662385 0.22815584439003506, 7.4340754358589765 0.13731071830332908 C7.946892430055568 0.04646559221662312, 8.47553148172793 1.4802973661668755e-15, 8.996259504662408 0 C9.516987527596886 -1.4802973661668755e-15, 10.045626579269246 0.04646559221661721, 10.558443573465839 0.1373107183033202 C11.071260567662431 0.22815584439002318, 11.583837189253996 0.3661407875331032, 12.07316146984196 0.545070756520218 C12.562485750429923 0.7240007255073327, 13.043425560669919 0.9493124169032225, 13.494389256993623 1.210890532226009 C13.945352953317327 1.4724686475487956, 14.380042839438893 1.7782611054676487, 14.778943647784182 2.114539448456937 C15.17784445612947 2.4508177914462252, 15.553076585906505 2.827799666792626, 15.887794107065357 3.228560590161739 C16.222511628224208 3.6293215135308516, 16.526884763270054 4.066038402784434, 16.787248774737293 4.519104988671613 C17.04761278620453 4.972171574558791, 17.271878702831057 5.455354056028994, 17.4499781758688 5.946960105484812 C17.628077648906544 6.43856615494063, 17.76542214072108 6.9535329734301135, 17.855845612963755 7.468741285406519 C17.94626908520643 7.983949597382925, 17.969740109931347 8.776631862020452, 17.992519009324866 9.038209977343246 C18.015297908718384 9.299788092666041, 18.015297908718384 8.776631862020494, 17.992519009324866 9.03820997734329" stroke="#ce524a" stroke-width="1.4875" fill="none" stroke-dasharray="8 9"></path></g><g><g transform="translate(37.547422043679745 9.940265583872815) rotate(0 -0.03151848900317589 7.762145301046019)"><path d="M-0.20703785431385044 0.05973441612720492 C-0.17744142766793572 2.6525543656157327, 0.09302395649751027 12.909950714015402, 0.1440008763074875 15.464556185964867" stroke="#ce524a" stroke-width="1.4875" fill="none"></path></g><g transform="translate(37.547422043679745 9.940265583872815) rotate(0 -0.03151848900317589 7.762145301046019)"><path d="M2.3897490122180574 11.036784668627243 C2.010547773826569 11.820479615820519, 1.0891393549926895 15.569363945758067, 0.288001752614975 15.58685642469339 C-0.5131358497627396 15.604348903628715, -1.917691376621981 11.919265915170397, -2.4170766020482297 11.141739542239188" stroke="#ce524a" stroke-width="1.4875" fill="none"></path></g></g><g><g transform="translate(57.60232955270018 17.817273569570148) rotate(0 -5.37689513994529 5.270207130917981)"><path d="M0.07501818382740022 -0.07724846756458284 C-1.7005099264822894 1.661174583517539, -8.96367525086924 8.777811008071042, -10.828808463717992 10.61766272940056" stroke="#ce524a" stroke-width="1.4875" fill="none"></path></g><g transform="translate(57.60232955270018 17.817273569570148) rotate(0 -5.37689513994529 5.270207130917981)"><path d="M-5.789944455498012 9.256756643897502 C-6.560775094249721 9.415901272165975, -10.033524333288112 11.038864904358638, -10.665586273695524 10.475997303980753 C-11.297648214102937 9.913129703602868, -9.798236640311446 6.644900356000429, -9.582316097942492 5.879551041630195" stroke="#ce524a" stroke-width="1.4875" fill="none"></path></g></g><g><g transform="translate(17.99140246361955 17.750152813281375) rotate(0 5.291040818267803 5.432197455962125)"><path d="M0.04794126427173615 -0.03523233902454377 C1.8368979966818402 1.7674841128454053, 8.748460617392814 9.061226920498134, 10.534140372263856 10.899627250948813" stroke="#ce524a" stroke-width="1.4875" fill="none"></path></g><g transform="translate(17.99140246361955 17.750152813281375) rotate(0 5.291040818267803 5.432197455962125)"><path d="M9.37711144563609 5.9533606830293 C9.595833638860144 6.770174687863438, 11.035719018914872 10.355638093760515, 10.44190331851191 10.972805590787795 C9.848087618108949 11.589973087815075, 6.629691671726932 9.888154108984128, 5.814217243218325 9.656365665192975" stroke="#ce524a" stroke-width="1.4875" fill="none"></path></g></g><g><g transform="translate(9.976280614018435 37.61079736419447) rotate(0 7.711904750383795 -0.01835685622688743)"><path d="M0.02371938598155974 0.12648071587085724 C2.5699067494991406 0.0658508623043696, 12.890175903937708 -0.1745454097191493, 15.400090114786018 -0.16319442832469944" stroke="#ce524a" stroke-width="1.4875" fill="none"></path></g><g transform="translate(9.976280614018435 37.61079736419447) rotate(0 7.711904750383795 -0.01835685622688743)"><path d="M10.987635251648674 -2.529309807877105 C11.72894260458003 -2.174506978873049, 15.559148160768688 -1.1857627785543414, 15.534725916935791 -0.3263888566493989 C15.510303673102895 0.5329850652555438, 11.588668674589943 2.179481701340548, 10.841101788651292 2.626933723552551" stroke="#ce524a" stroke-width="1.4875" fill="none"></path></g></g><g><g transform="translate(17.840380761968134 57.90191830400431) rotate(0 5.487539683314708 -5.617040840924915)"><path d="M0.009833209156990064 0.002839217066764821 C1.8704240109829566 -1.8842638832930432, 9.197273479018836 -9.332384489637468, 10.965246157472407 -11.236920898916546" stroke="#ce524a" stroke-width="1.4875" fill="none"></path></g><g transform="translate(17.840380761968134 57.90191830400431) rotate(0 5.487539683314708 -5.617040840924915)"><path d="M5.987700721971238 -9.787841517048493 C6.88328810996236 -10.041168540721022, 10.556992022598493 -11.794570954810766, 11.153093187277591 -11.22494517290813 C11.749194351956689 -10.655319391005495, 9.82402449493215 -7.2022685448329264, 9.564307710045826 -6.37008682563268" stroke="#ce524a" stroke-width="1.4875" fill="none"></path></g></g><g><g transform="translate(37.66036562397559 65.65759261486835) rotate(0 0.001328152537354299 -7.78683829496299)"><path d="M-0.1888812762498856 -0.01608585822582245 C-0.16450579686959588 -2.5853505006564865, 0.14554462961355846 -12.94933296589713, 0.19153758132457735 -15.55759073170019" stroke="#ce524a" stroke-width="1.4875" fill="none"></path></g><g transform="translate(37.66036562397559 65.65759261486835) rotate(0 0.001328152537354299 -7.78683829496299)"><path d="M-2.7179471905303796 -11.115517053568047 C-2.240137795215911 -11.816445143662945, -0.5331146491305956 -15.471279984393478, 0.3830751626491547 -15.447002613027818 C1.2992649744289049 -15.422725241662159, 2.3614940932218205 -11.714193610677016, 2.7791916801481213 -10.969852825374092" stroke="#ce524a" stroke-width="1.4875" fill="none"></path></g></g><g><g transform="translate(57.564251431344104 57.37269695633972) rotate(0 -5.444424190925275 -5.478612433088415)"><path d="M0.1336715039014816 -0.11883517158031465 C-1.6814221562301805 -1.9337341468773224, -9.16397598961775 -9.039815304260422, -11.022519885752017 -10.838389694596492" stroke="#ce524a" stroke-width="1.4875" fill="none"></path></g><g transform="translate(57.564251431344104 57.37269695633972) rotate(0 -5.444424190925275 -5.478612433088415)"><path d="M-9.461508308704248 -6.051844407810455 C-9.68883322562959 -6.897694246625501, -11.647287774316236 -10.33034176908058, -11.091087239119823 -10.957104111934862 C-10.534886703923409 -11.583866454789145, -6.949102960993956 -10.068074064687199, -6.124305097525765 -9.812418464936153" stroke="#ce524a" stroke-width="1.4875" fill="none"></path></g></g><g><g transform="translate(65.59099033491938 37.74973732971216) rotate(0 -7.690369971362955 -0.1222398136777656)"><path d="M0.009901331782341006 -0.036813534617424 C-2.558606821486753 -0.07204429964224497, -12.788297468569883 -0.24059356645743057, -15.390641274508248 -0.20194766318798069" stroke="#ce524a" stroke-width="1.4875" fill="none"></path></g><g transform="translate(65.59099033491938 37.74973732971216) rotate(0 -7.690369971362955 -0.1222398136777656)"><path d="M-10.90928811623176 2.3607516661759567 C-11.636952947777578 1.8922687571542423, -15.251098656454166 0.41948332127674504, -15.264770792182693 -0.40389532637596137 C-15.27844292791122 -1.2272739740286678, -11.732879332037479 -2.2034669989620728, -10.99132093060292 -2.5795202197402816" stroke="#ce524a" stroke-width="1.4875" fill="none"></path></g></g></svg>