<svg version="1.1" xmlns="http://www.w3.org/2000/svg" viewBox="0 0 71.41634144240379 72.29758158857726" width="142.83268288480758" height="144.59516317715452">
  <!-- svg-source:excalidraw -->
  
  <g transform="translate(17.931464008121452 21.315455990397368) rotate(0 16.410192692665362 16.634825289550975)"><path d="M32.8203853853307 16.634825289550978 C32.8203853853307 17.597694321997075, 32.736020303775284 18.575191498600994, 32.57107768482647 19.523432386889272 C32.406135065877656 20.47167327517755, 32.15560321152368 21.419469694707796, 31.83072967163782 22.32427061928066 C31.50585613175196 23.229071543853525, 31.096769788218726 24.1183688917108, 30.621836445511306 24.952237934326465 C30.146903102803886 25.78610697694213, 29.591692151631978 26.589884403217965, 28.9811296153933 27.327484874974644 C28.370567079154622 28.065085346731323, 27.68610132414511 28.75892048105933, 26.95846122807923 29.377840764866548 C26.23082113201335 29.996761048673765, 25.4378977187758 30.559572061594903, 24.61528903899803 31.041006577817953 C23.792680359220256 31.522441094041003, 22.915391864427292 31.93712725772378, 22.0228091494126 32.26644786220484 C21.130226434397905 32.595768466685904, 20.19522882503441 32.84972975188815, 19.259792748909867 33.01693020470433 C18.324356672785324 33.18413065752051, 17.36005937808019 33.269650579101956, 16.41019269266535 33.269650579101956 C15.460326007250513 33.269650579101956, 14.496028712545376 33.18413065752051, 13.560592636420836 33.01693020470433 C12.625156560296295 32.84972975188815, 11.690158950932801 32.595768466685904, 10.797576235918108 32.26644786220484 C9.904993520903414 31.93712725772378, 9.02770502611045 31.522441094041003, 8.20509634633268 31.041006577817956 C7.382487666554908 30.55957206159491, 6.58956425331736 29.996761048673772, 5.861924157251481 29.377840764866555 C5.134284061185602 28.758920481059338, 4.449818306176086 28.06508534673133, 3.839255769937406 27.32748487497465 C3.228693233698726 26.589884403217972, 2.673482282526821 25.786106976942143, 2.1985489398194016 24.95223793432648 C1.7236155971119824 24.118368891710816, 1.3145292535787514 23.229071543853543, 0.9896557136928905 22.32427061928068 C0.6647821738070296 21.419469694707814, 0.414250319453051 20.471673275177572, 0.2493077005042359 19.523432386889294 C0.0843650815554208 18.575191498601015, 1.7763568394002505e-15 17.5976943219971, 0 16.634825289551003 C-1.7763568394002505e-15 15.671956257104906, 0.08436508155541281 14.694459080500991, 0.24930770050422524 13.74621819221271 C0.4142503194530377 12.79797730392443, 0.6647821738070157 11.850180884394188, 0.9896557136928745 10.945379959821324 C1.3145292535787334 10.04057903524846, 1.7236155971119616 9.151281687391183, 2.1985489398193785 8.31741264477552 C2.673482282526795 7.483543602159855, 3.228693233698697 6.67976617588402, 3.8392557699373757 5.942165704127339 C4.449818306176054 5.2045652323706575, 5.134284061185571 4.510730098042649, 5.861924157251449 3.8918098142354296 C6.589564253317327 3.2728895304282095, 7.3824876665548755 2.71007851750707, 8.205096346332645 2.228644001284019 C9.027705026110414 1.7472094850609687, 9.904993520903377 1.3325233213781909, 10.797576235918068 1.0032027168971265 C11.69015895093276 0.6738821124160621, 12.625156560296254 0.41992082721382074, 13.560592636420793 0.25272037439763295 C14.496028712545332 0.0855199215814452, 15.460326007250467 2.3684757858670005e-15, 16.410192692665305 0 C17.36005937808014 -2.3684757858670005e-15, 18.324356672785278 0.08551992158143662, 19.259792748909817 0.25272037439761874 C20.195228825034356 0.41992082721380086, 21.13022643439785 0.6738821124160339, 22.022809149412545 1.0032027168970927 C22.91539186442724 1.3325233213781515, 23.792680359220206 1.7472094850609254, 24.61528903899798 2.228644001283971 C25.43789771877575 2.710078517507017, 26.2308211320133 3.2728895304281522, 26.95846122807918 3.8918098142353674 C27.68610132414506 4.510730098042583, 28.370567079154583 5.2045652323705855, 28.981129615393264 5.942165704127262 C29.591692151631946 6.679766175883939, 30.14690310280385 7.483543602159769, 30.62183644551127 8.31741264477543 C31.09676978821869 9.15128168739109, 31.505856131751926 10.040579035248365, 31.83072967163779 10.945379959821228 C32.155603211523655 11.85018088439409, 32.40613506587764 12.79797730392433, 32.57107768482646 13.74621819221261 C32.736020303775284 14.694459080500888, 32.77883410191333 16.15339077332784, 32.8203853853307 16.6348252895509 C32.86193666874807 17.11625980577396, 32.86193666874807 16.153390773327917, 32.8203853853307 16.634825289550978" stroke="none" stroke-width="0" fill="transparent"></path><path d="M32.8203853853307 16.634825289550978 C32.8203853853307 17.597694321997075, 32.736020303775284 18.575191498600994, 32.57107768482647 19.523432386889272 C32.406135065877656 20.47167327517755, 32.15560321152368 21.419469694707796, 31.83072967163782 22.32427061928066 C31.50585613175196 23.229071543853525, 31.096769788218726 24.1183688917108, 30.621836445511306 24.952237934326465 C30.146903102803886 25.78610697694213, 29.591692151631978 26.589884403217965, 28.9811296153933 27.327484874974644 C28.370567079154622 28.065085346731323, 27.68610132414511 28.75892048105933, 26.95846122807923 29.377840764866548 C26.23082113201335 29.996761048673765, 25.4378977187758 30.559572061594903, 24.61528903899803 31.041006577817953 C23.792680359220256 31.522441094041003, 22.915391864427292 31.93712725772378, 22.0228091494126 32.26644786220484 C21.130226434397905 32.595768466685904, 20.19522882503441 32.84972975188815, 19.259792748909867 33.01693020470433 C18.324356672785324 33.18413065752051, 17.36005937808019 33.269650579101956, 16.41019269266535 33.269650579101956 C15.460326007250513 33.269650579101956, 14.496028712545376 33.18413065752051, 13.560592636420836 33.01693020470433 C12.625156560296295 32.84972975188815, 11.690158950932801 32.595768466685904, 10.797576235918108 32.26644786220484 C9.904993520903414 31.93712725772378, 9.02770502611045 31.522441094041003, 8.20509634633268 31.041006577817956 C7.382487666554908 30.55957206159491, 6.58956425331736 29.996761048673772, 5.861924157251481 29.377840764866555 C5.134284061185602 28.758920481059338, 4.449818306176086 28.06508534673133, 3.839255769937406 27.32748487497465 C3.228693233698726 26.589884403217972, 2.673482282526821 25.786106976942143, 2.1985489398194016 24.95223793432648 C1.7236155971119824 24.118368891710816, 1.3145292535787514 23.229071543853543, 0.9896557136928905 22.32427061928068 C0.6647821738070296 21.419469694707814, 0.414250319453051 20.471673275177572, 0.2493077005042359 19.523432386889294 C0.0843650815554208 18.575191498601015, 1.7763568394002505e-15 17.5976943219971, 0 16.634825289551003 C-1.7763568394002505e-15 15.671956257104906, 0.08436508155541281 14.694459080500991, 0.24930770050422524 13.74621819221271 C0.4142503194530377 12.79797730392443, 0.6647821738070157 11.850180884394188, 0.9896557136928745 10.945379959821324 C1.3145292535787334 10.04057903524846, 1.7236155971119616 9.151281687391183, 2.1985489398193785 8.31741264477552 C2.673482282526795 7.483543602159855, 3.228693233698697 6.67976617588402, 3.8392557699373757 5.942165704127339 C4.449818306176054 5.2045652323706575, 5.134284061185571 4.510730098042649, 5.861924157251449 3.8918098142354296 C6.589564253317327 3.2728895304282095, 7.3824876665548755 2.71007851750707, 8.205096346332645 2.228644001284019 C9.027705026110414 1.7472094850609687, 9.904993520903377 1.3325233213781909, 10.797576235918068 1.0032027168971265 C11.69015895093276 0.6738821124160621, 12.625156560296254 0.41992082721382074, 13.560592636420793 0.25272037439763295 C14.496028712545332 0.0855199215814452, 15.460326007250467 2.3684757858670005e-15, 16.410192692665305 0 C17.36005937808014 -2.3684757858670005e-15, 18.324356672785278 0.08551992158143662, 19.259792748909817 0.25272037439761874 C20.195228825034356 0.41992082721380086, 21.13022643439785 0.6738821124160339, 22.022809149412545 1.0032027168970927 C22.91539186442724 1.3325233213781515, 23.792680359220206 1.7472094850609254, 24.61528903899798 2.228644001283971 C25.43789771877575 2.710078517507017, 26.2308211320133 3.2728895304281522, 26.95846122807918 3.8918098142353674 C27.68610132414506 4.510730098042583, 28.370567079154583 5.2045652323705855, 28.981129615393264 5.942165704127262 C29.591692151631946 6.679766175883939, 30.14690310280385 7.483543602159769, 30.62183644551127 8.31741264477543 C31.09676978821869 9.15128168739109, 31.505856131751926 10.040579035248365, 31.83072967163779 10.945379959821228 C32.155603211523655 11.85018088439409, 32.40613506587764 12.79797730392433, 32.57107768482646 13.74621819221261 C32.736020303775284 14.694459080500888, 32.77883410191333 16.15339077332784, 32.8203853853307 16.6348252895509 C32.86193666874807 17.11625980577396, 32.86193666874807 16.153390773327917, 32.8203853853307 16.634825289550978" stroke="#ce524a" stroke-width="1.575" fill="none"></path></g><g transform="translate(26.123949191744714 29.65487589484337) rotate(0 8.32743079830749 8.29768484264946)"><path d="M16.654861596614932 8.297684842649483 C16.654861596614932 8.77797745990968, 16.612050132325404 9.265566801237709, 16.528349211153298 9.738562694430076 C16.444648289981192 10.211558587622443, 16.317514701791406 10.68433277354633, 16.1526560695823 11.135660201803688 C15.987797437373192 11.586987630061046, 15.780204615027587 12.030581656176777, 15.53919741789866 12.446527263974223 C15.298190220769731 12.86247287177167, 15.016445767128246 13.263408358065128, 14.706612886808735 13.631333848588373 C14.396780006489223 13.999259339111617, 14.049444584206181 14.345354063714916, 13.680200135981593 14.65408020711369 C13.310955687757005 14.962806350512464, 12.90858290787827 15.243544400350919, 12.4911461974612 15.483690708981017 C12.07370948704413 15.723837017611116, 11.62852524287587 15.930688309100688, 11.175579873479174 16.09495805889428 C10.722634504082478 16.259227808687875, 10.248165493609648 16.385907270008463, 9.773473981081029 16.469309207742576 C9.29878246855241 16.55271114547669, 8.80944519256532 16.595369685298966, 8.327430798307466 16.595369685298966 C7.845416404049612 16.595369685298966, 7.356079128062522 16.55271114547669, 6.881387615533904 16.469309207742576 C6.406696103005286 16.385907270008463, 5.932227092532454 16.25922780868788, 5.479281723135759 16.094958058894285 C5.0263363537390635 15.930688309100692, 4.581152109570804 15.723837017611118, 4.163715399153735 15.483690708981019 C3.7462786887366653 15.24354440035092, 3.3439059088579315 14.962806350512468, 2.9746614606333424 14.654080207113694 C2.6054170124087532 14.34535406371492, 2.2580815901257103 13.999259339111621, 1.9482487098061991 13.631333848588376 C1.638415829486688 13.263408358065131, 1.3566713758452023 12.862472871771677, 1.1156641787162753 12.44652726397423 C0.8746569815873483 12.030581656176784, 0.667064159241744 11.586987630061053, 0.5022055270326371 11.135660201803695 C0.3373468948235302 10.684332773546338, 0.21021330663374033 10.211558587622452, 0.12651238546163412 9.738562694430085 C0.04281146428952794 9.265566801237718, 5.921189464667501e-16 8.777977459909692, 0 8.297684842649495 C-5.921189464667501e-16 7.817392225389298, 0.042811464289525716 7.329802884061271, 0.12651238546163057 6.856806990868904 C0.21021330663373544 6.383811097676537, 0.33734689482352354 5.91103691175265, 0.5022055270326291 5.459709483495292 C0.6670641592417347 5.008382055237934, 0.8746569815873378 4.564788029122203, 1.1156641787162638 4.148842421324757 C1.3566713758451898 3.7328968135273093, 1.6384158294866744 3.3319613272338535, 1.948248709806185 2.9640358367106083 C2.258081590125695 2.596110346187363, 2.6054170124087377 2.2500156215840614, 2.9746614606333264 1.9412894781852863 C3.343905908857915 1.6325633347865112, 3.7462786887366484 1.351825284948057, 4.163715399153717 1.1116789763179575 C4.581152109570786 0.8715326676878581, 5.026336353739045 0.6646813761982839, 5.479281723135739 0.5004116264046896 C5.932227092532433 0.3361418766110953, 6.406696103005265 0.20946241529050652, 6.881387615533882 0.1260604775563916 C7.356079128062499 0.04265853982227667, 7.8454164040495895 1.1842378929335002e-15, 8.327430798307443 0 C8.809445192565297 -1.1842378929335002e-15, 9.298782468552387 0.04265853982227237, 9.773473981081004 0.1260604775563845 C10.248165493609621 0.20946241529049664, 10.722634504082453 0.3361418766110812, 11.175579873479148 0.5004116264046727 C11.628525242875842 0.6646813761982643, 12.073709487044104 0.8715326676878363, 12.491146197461173 1.1116789763179336 C12.908582907878243 1.3518252849480308, 13.310955687756978 1.6325633347864834, 13.680200135981568 1.941289478185256 C14.049444584206158 2.2500156215840286, 14.396780006489204 2.5961103461873267, 14.706612886808715 2.9640358367105692 C15.016445767128227 3.3319613272338118, 15.298190220769714 3.732896813527266, 15.539197417898642 4.148842421324712 C15.78020461502757 4.564788029122158, 15.987797437373176 5.008382055237887, 16.152656069582285 5.459709483495244 C16.317514701791392 5.911036911752601, 16.44464828998118 6.383811097676488, 16.52834921115329 6.856806990868854 C16.6120501323254 7.329802884061221, 16.633776199037992 8.05753853401934, 16.654861596614932 8.297684842649444 C16.67594699419187 8.537831151279548, 16.67594699419187 8.057538534019377, 16.654861596614932 8.297684842649483" stroke="none" stroke-width="0" fill="transparent"></path><path d="M16.654861596614932 8.297684842649483 C16.654861596614932 8.77797745990968, 16.612050132325404 9.265566801237709, 16.528349211153298 9.738562694430076 C16.444648289981192 10.211558587622443, 16.317514701791406 10.68433277354633, 16.1526560695823 11.135660201803688 C15.987797437373192 11.586987630061046, 15.780204615027587 12.030581656176777, 15.53919741789866 12.446527263974223 C15.298190220769731 12.86247287177167, 15.016445767128246 13.263408358065128, 14.706612886808735 13.631333848588373 C14.396780006489223 13.999259339111617, 14.049444584206181 14.345354063714916, 13.680200135981593 14.65408020711369 C13.310955687757005 14.962806350512464, 12.90858290787827 15.243544400350919, 12.4911461974612 15.483690708981017 C12.07370948704413 15.723837017611116, 11.62852524287587 15.930688309100688, 11.175579873479174 16.09495805889428 C10.722634504082478 16.259227808687875, 10.248165493609648 16.385907270008463, 9.773473981081029 16.469309207742576 C9.29878246855241 16.55271114547669, 8.80944519256532 16.595369685298966, 8.327430798307466 16.595369685298966 C7.845416404049612 16.595369685298966, 7.356079128062522 16.55271114547669, 6.881387615533904 16.469309207742576 C6.406696103005286 16.385907270008463, 5.932227092532454 16.25922780868788, 5.479281723135759 16.094958058894285 C5.0263363537390635 15.930688309100692, 4.581152109570804 15.723837017611118, 4.163715399153735 15.483690708981019 C3.7462786887366653 15.24354440035092, 3.3439059088579315 14.962806350512468, 2.9746614606333424 14.654080207113694 C2.6054170124087532 14.34535406371492, 2.2580815901257103 13.999259339111621, 1.9482487098061991 13.631333848588376 C1.638415829486688 13.263408358065131, 1.3566713758452023 12.862472871771677, 1.1156641787162753 12.44652726397423 C0.8746569815873483 12.030581656176784, 0.667064159241744 11.586987630061053, 0.5022055270326371 11.135660201803695 C0.3373468948235302 10.684332773546338, 0.21021330663374033 10.211558587622452, 0.12651238546163412 9.738562694430085 C0.04281146428952794 9.265566801237718, 5.921189464667501e-16 8.777977459909692, 0 8.297684842649495 C-5.921189464667501e-16 7.817392225389298, 0.042811464289525716 7.329802884061271, 0.12651238546163057 6.856806990868904 C0.21021330663373544 6.383811097676537, 0.33734689482352354 5.91103691175265, 0.5022055270326291 5.459709483495292 C0.6670641592417347 5.008382055237934, 0.8746569815873378 4.564788029122203, 1.1156641787162638 4.148842421324757 C1.3566713758451898 3.7328968135273093, 1.6384158294866744 3.3319613272338535, 1.948248709806185 2.9640358367106083 C2.258081590125695 2.596110346187363, 2.6054170124087377 2.2500156215840614, 2.9746614606333264 1.9412894781852863 C3.343905908857915 1.6325633347865112, 3.7462786887366484 1.351825284948057, 4.163715399153717 1.1116789763179575 C4.581152109570786 0.8715326676878581, 5.026336353739045 0.6646813761982839, 5.479281723135739 0.5004116264046896 C5.932227092532433 0.3361418766110953, 6.406696103005265 0.20946241529050652, 6.881387615533882 0.1260604775563916 C7.356079128062499 0.04265853982227667, 7.8454164040495895 1.1842378929335002e-15, 8.327430798307443 0 C8.809445192565297 -1.1842378929335002e-15, 9.298782468552387 0.04265853982227237, 9.773473981081004 0.1260604775563845 C10.248165493609621 0.20946241529049664, 10.722634504082453 0.3361418766110812, 11.175579873479148 0.5004116264046727 C11.628525242875842 0.6646813761982643, 12.073709487044104 0.8715326676878363, 12.491146197461173 1.1116789763179336 C12.908582907878243 1.3518252849480308, 13.310955687756978 1.6325633347864834, 13.680200135981568 1.941289478185256 C14.049444584206158 2.2500156215840286, 14.396780006489204 2.5961103461873267, 14.706612886808715 2.9640358367105692 C15.016445767128227 3.3319613272338118, 15.298190220769714 3.732896813527266, 15.539197417898642 4.148842421324712 C15.78020461502757 4.564788029122158, 15.987797437373176 5.008382055237887, 16.152656069582285 5.459709483495244 C16.317514701791392 5.911036911752601, 16.44464828998118 6.383811097676488, 16.52834921115329 6.856806990868854 C16.6120501323254 7.329802884061221, 16.633776199037992 8.05753853401934, 16.654861596614932 8.297684842649444 C16.67594699419187 8.537831151279548, 16.67594699419187 8.057538534019377, 16.654861596614932 8.297684842649483" stroke="#ce524a" stroke-width="1.4875" fill="none"></path></g><g transform="translate(10 13.65234779347702) rotate(0 24.567826987784144 24.32261689755012)"><path d="M49.135653975568324 24.32261689755012 C49.135653975568324 25.730476264333607, 49.00935035645298 27.15972417834135, 48.76241348001656 28.546194997900585 C48.51547660358015 29.93266581745982, 48.14040341778823 31.318486756834776, 47.65403271694983 32.64144181490554 C47.16766201611143 33.96439687297631, 46.55521567259703 35.264683369734804, 45.84418927498617 36.48392534632518 C45.13316287737531 37.703167322915554, 44.30195224837331 38.878410829830294, 43.38787433128468 39.95689367444779 C42.473796414196045 41.03537651906529, 41.4490774140558 42.04986785688058, 40.35972177245439 42.95482241403015 C39.270366130852985 43.85977697117971, 38.08327432786092 44.68269133395343, 36.851740481676245 45.38662101734517 C35.62020663549157 46.09055070073691, 34.30681121338416 46.69688425197094, 32.970518695346335 47.17840051438061 C31.634226177308513 47.65991677679028, 30.234433991376346 48.03124637834994, 28.833985373449316 48.27571859180321 C27.433536755522287 48.52019080525648, 25.98987978300588 48.64523379510024, 24.567826987784162 48.64523379510024 C23.145774192562445 48.64523379510024, 21.70211722004604 48.52019080525648, 20.301668602119012 48.27571859180321 C18.901219984191982 48.03124637834994, 17.50142779825981 47.65991677679028, 16.16513528022199 47.17840051438061 C14.828842762184168 46.69688425197094, 13.515447340076761 46.09055070073692, 12.283913493892086 45.38662101734518 C11.052379647707411 44.682691333953436, 9.865287844715342 43.85977697117971, 8.775932203113936 42.954822414030154 C7.68657656151253 42.049867856880596, 6.661857561372282 41.035376519065295, 5.7477796442836535 39.956893674447805 C4.833701727195025 38.878410829830315, 4.002491098193023 37.703167322915576, 3.2914647005821642 36.4839253463252 C2.580438302971306 35.264683369734826, 1.9679919594569035 33.96439687297634, 1.4816212586185031 32.64144181490557 C0.9952505577801027 31.318486756834805, 0.6201773719881795 29.93266581745985, 0.3732404955517623 28.546194997900614 C0.12630361911534513 27.159724178341378, 1.7763568394002505e-15 25.730476264333642, 0 24.322616897550155 C-1.7763568394002505e-15 22.914757530766668, 0.1263036191153386 21.48550961675893, 0.37324049555175165 20.099038797199693 C0.6201773719881647 18.712567977640457, 0.9952505577800821 17.326747038265502, 1.4816212586184783 16.003791980194737 C1.9679919594568744 14.680836922123973, 2.5804383029712734 13.380550425365477, 3.2914647005821287 12.161308448775102 C4.002491098192984 10.942066472184727, 4.833701727194984 9.766822965269984, 5.747779644283611 8.688340120652489 C6.661857561372238 7.609857276034993, 7.686576561512485 6.595365938219693, 8.77593220311389 5.690411381070128 C9.865287844715294 4.785456823920562, 11.052379647707362 3.9625424611468403, 12.283913493892035 3.2586127777550935 C13.515447340076708 2.5546830943633467, 14.828842762184113 1.9483495431293243, 16.165135280221932 1.4668332807196478 C17.50142779825975 0.9853170183099713, 18.901219984191922 0.6139874167503088, 20.301668602118948 0.36951520329703413 C21.702117220045974 0.1250429898437595, 23.145774192562378 4.144832625267251e-15, 24.56782698778409 0 C25.989879783005804 -4.144832625267251e-15, 27.433536755522212 0.12504298984374293, 28.833985373449238 0.36951520329700926 C30.234433991376264 0.6139874167502756, 31.634226177308435 0.9853170183099287, 32.97051869534626 1.466833280719598 C34.30681121338408 1.9483495431292674, 35.6202066354915 2.5546830943632863, 36.851740481676174 3.258612777755026 C38.08327432786085 3.9625424611467657, 39.27036613085291 4.785456823920477, 40.35972177245432 5.690411381070035 C41.44907741405573 6.595365938219594, 42.47379641419599 7.6098572760348855, 43.38787433128462 8.688340120652375 C44.301952248373254 9.766822965269865, 45.133162877375256 10.942066472184603, 45.84418927498612 12.161308448774973 C46.55521567259699 13.380550425365342, 47.167662016111386 14.680836922123836, 47.65403271694979 16.0037919801946 C48.1404034177882 17.32674703826536, 48.515476603580126 18.71256797764031, 48.76241348001655 20.099038797199547 C49.00935035645297 21.485509616758783, 49.073447226309696 23.618687214158243, 49.135653975568324 24.322616897550006 C49.19786072482695 25.02654658094177, 49.19786072482695 23.618687214158356, 49.135653975568324 24.32261689755012" stroke="none" stroke-width="0" fill="transparent"></path><path d="M49.135653975568324 24.32261689755012 C49.135653975568324 25.730476264333607, 49.00935035645298 27.15972417834135, 48.76241348001656 28.546194997900585 C48.51547660358015 29.93266581745982, 48.14040341778823 31.318486756834776, 47.65403271694983 32.64144181490554 C47.16766201611143 33.96439687297631, 46.55521567259703 35.264683369734804, 45.84418927498617 36.48392534632518 C45.13316287737531 37.703167322915554, 44.30195224837331 38.878410829830294, 43.38787433128468 39.95689367444779 C42.473796414196045 41.03537651906529, 41.4490774140558 42.04986785688058, 40.35972177245439 42.95482241403015 C39.270366130852985 43.85977697117971, 38.08327432786092 44.68269133395343, 36.851740481676245 45.38662101734517 C35.62020663549157 46.09055070073691, 34.30681121338416 46.69688425197094, 32.970518695346335 47.17840051438061 C31.634226177308513 47.65991677679028, 30.234433991376346 48.03124637834994, 28.833985373449316 48.27571859180321 C27.433536755522287 48.52019080525648, 25.98987978300588 48.64523379510024, 24.567826987784162 48.64523379510024 C23.145774192562445 48.64523379510024, 21.70211722004604 48.52019080525648, 20.301668602119012 48.27571859180321 C18.901219984191982 48.03124637834994, 17.50142779825981 47.65991677679028, 16.16513528022199 47.17840051438061 C14.828842762184168 46.69688425197094, 13.515447340076761 46.09055070073692, 12.283913493892086 45.38662101734518 C11.052379647707411 44.682691333953436, 9.865287844715342 43.85977697117971, 8.775932203113936 42.954822414030154 C7.68657656151253 42.049867856880596, 6.661857561372282 41.035376519065295, 5.7477796442836535 39.956893674447805 C4.833701727195025 38.878410829830315, 4.002491098193023 37.703167322915576, 3.2914647005821642 36.4839253463252 C2.580438302971306 35.264683369734826, 1.9679919594569035 33.96439687297634, 1.4816212586185031 32.64144181490557 C0.9952505577801027 31.318486756834805, 0.6201773719881795 29.93266581745985, 0.3732404955517623 28.546194997900614 C0.12630361911534513 27.159724178341378, 1.7763568394002505e-15 25.730476264333642, 0 24.322616897550155 C-1.7763568394002505e-15 22.914757530766668, 0.1263036191153386 21.48550961675893, 0.37324049555175165 20.099038797199693 C0.6201773719881647 18.712567977640457, 0.9952505577800821 17.326747038265502, 1.4816212586184783 16.003791980194737 C1.9679919594568744 14.680836922123973, 2.5804383029712734 13.380550425365477, 3.2914647005821287 12.161308448775102 C4.002491098192984 10.942066472184727, 4.833701727194984 9.766822965269984, 5.747779644283611 8.688340120652489 C6.661857561372238 7.609857276034993, 7.686576561512485 6.595365938219693, 8.77593220311389 5.690411381070128 C9.865287844715294 4.785456823920562, 11.052379647707362 3.9625424611468403, 12.283913493892035 3.2586127777550935 C13.515447340076708 2.5546830943633467, 14.828842762184113 1.9483495431293243, 16.165135280221932 1.4668332807196478 C17.50142779825975 0.9853170183099713, 18.901219984191922 0.6139874167503088, 20.301668602118948 0.36951520329703413 C21.702117220045974 0.1250429898437595, 23.145774192562378 4.144832625267251e-15, 24.56782698778409 0 C25.989879783005804 -4.144832625267251e-15, 27.433536755522212 0.12504298984374293, 28.833985373449238 0.36951520329700926 C30.234433991376264 0.6139874167502756, 31.634226177308435 0.9853170183099287, 32.97051869534626 1.466833280719598 C34.30681121338408 1.9483495431292674, 35.6202066354915 2.5546830943632863, 36.851740481676174 3.258612777755026 C38.08327432786085 3.9625424611467657, 39.27036613085291 4.785456823920477, 40.35972177245432 5.690411381070035 C41.44907741405573 6.595365938219594, 42.47379641419599 7.6098572760348855, 43.38787433128462 8.688340120652375 C44.301952248373254 9.766822965269865, 45.133162877375256 10.942066472184603, 45.84418927498612 12.161308448774973 C46.55521567259699 13.380550425365342, 47.167662016111386 14.680836922123836, 47.65403271694979 16.0037919801946 C48.1404034177882 17.32674703826536, 48.515476603580126 18.71256797764031, 48.76241348001655 20.099038797199547 C49.00935035645297 21.485509616758783, 49.073447226309696 23.618687214158243, 49.135653975568324 24.322616897550006 C49.19786072482695 25.02654658094177, 49.19786072482695 23.618687214158356, 49.135653975568324 24.32261689755012" stroke="#ce524a" stroke-width="1.575" fill="none"></path></g><g><g transform="translate(47.10122100331398 18.049347355781038) rotate(0 4.084809544312634 -4.024673677890519)"><path d="M0 0 M0 0 C1.6831418870813926 -1.6976799941940122, 3.531826430018785 -3.7206940787428833, 8.16961908862529 -8.049347355781038" stroke="#ce524a" stroke-width="1.4875" fill="none"></path></g></g><g><g transform="translate(55.694263014092485 15.732082921130768) rotate(0 -0.02031003849208446 -2.6558894229906116)"><path d="M0 0 M0 0 C-0.031221846313580378 -2.0188961523752886, -0.07321339177276107 -4.001537644833582, 0 -5.311778845981251" stroke="#ce524a" stroke-width="1.4875" fill="none"></path></g></g><g><g transform="translate(55.99212000721923 15.596239981262102) rotate(0 2.6989747833917477 0.009552229868234008)"><path d="M0 0 M0 0 C1.9987960752413994 0.05203605123793338, 4.215632531690276 -0.012149102414063084, 5.397949566783471 0" stroke="#ce524a" stroke-width="1.4875" fill="none"></path></g></g><g><g transform="translate(53.61515581946196 24.347165089962118) rotate(0 3.900592811470915 -4.184393275587695)"><path d="M0 0 M0 0 C2.380917903343821 -2.5615274768308254, 4.611079817457623 -5.048613245088262, 7.801185622941868 -8.368786551175385" stroke="#ce524a" stroke-width="1.4875" fill="none"></path></g></g><g><g transform="translate(47.138475167612455 17.942295159519972) rotate(0 0.016470304173822115 2.9675498522477426)"><path d="M0 0 M0 0 C0.0772973725323508 2.176980653365544, -0.006071602852344919 4.629188735459317, 0 5.9350997044954665" stroke="#ce524a" stroke-width="1.4875" fill="none"></path></g></g><g><g transform="translate(53.36125560940229 24.356233040704524) rotate(0 -3.033128768240033 0.030058094684079606)"><path d="M0 0 M0 0 C-1.8261916431898104 0.08628985609958116, -3.6377070127714344 0.07401998221553949, -6.066257536480073 0" stroke="#ce524a" stroke-width="1.4875" fill="none"></path></g></g><g><g transform="translate(34.42606464469145 37.59330008031657) rotate(0 6.570485975247493 -6.898569470848628)"><path d="M0 0 M0 0 C4.861245737171254 -4.811368940217721, 9.53226371551187 -9.73928622663202, 13.140971950494983 -13.797138941697268" stroke="#ce524a" stroke-width="1.4875" fill="none"></path></g></g></svg>